<svg width="224" height="104" viewBox="0 0 224 104" fill="none" xmlns="http://www.w3.org/2000/svg">
<path d="M222 3.02148C222.564 3.02148 223.021 2.56415 223.021 2C223.021 1.43585 222.564 0.97852 222 0.97852V3.02148ZM222 103.021C222.564 103.021 223.021 102.564 223.021 102C223.021 101.436 222.564 100.979 222 100.979V103.021ZM2 102H0.97852C0.97852 102.564 1.43585 103.021 2 103.021L2 102ZM124.41 0.97852C123.846 0.97852 123.389 1.43585 123.389 2C123.389 2.56415 123.846 3.02148 124.41 3.02148V0.97852ZM3.02148 87.76C3.02148 87.1959 2.56415 86.7386 2 86.7386C1.43585 86.7386 0.97852 87.1959 0.97852 87.76H3.02148ZM222 100.979H2V103.021H222V100.979ZM222 0.97852H124.41V3.02148H222V0.97852ZM3.02148 102V87.76H0.97852V102H3.02148Z" fill="#0F73EF"/>
</svg>
