<svg width="1221" height="595" viewBox="0 0 1221 595" fill="none" xmlns="http://www.w3.org/2000/svg">
<path d="M595.588 139.583C595.588 135.434 597.343 131.478 600.42 128.695L649.863 83.9606C652.164 81.8789 655.065 80.5796 658.15 80.2491L674.074 78.5429C677.33 78.194 680.609 78.9436 683.39 80.6723L708.587 96.3356C711.365 98.0619 713.053 101.1 713.053 104.37V107.217C713.053 107.903 712.781 108.561 712.296 109.046C710.288 111.054 712.512 114.361 715.129 113.259L720.395 111.042L739.118 100.459C740.689 99.5714 742.433 99.0357 744.231 98.8889L770.92 96.7102C775.479 96.3381 776.739 90.2515 772.704 88.0993L763.517 83.1526C755.731 78.96 753.39 68.8862 758.53 61.6901L764.2 53.7531C766.14 51.0363 768.949 49.062 772.162 48.1556L802.573 39.578C802.849 39.5005 803.133 39.4611 803.419 39.4611C806.805 39.4611 807.758 44.1031 804.645 45.4369L773.324 58.8603C769.607 60.4532 767.198 64.1077 767.198 68.1513V70.537C767.198 75.1932 769.558 79.5318 773.467 82.0613L781.835 87.4755C782.476 87.8907 783.149 88.2552 783.848 88.5656L798.81 95.2153C802.933 97.0477 807.577 94.0298 807.577 89.5181C807.577 88.5841 807.786 87.6621 808.19 86.8202L814.214 74.2721C815.794 70.9803 820.582 71.3014 821.708 74.7747L823.245 79.5138C824.39 83.0434 829.601 82.2194 829.601 78.5089C829.601 76.7099 831.06 75.2514 832.859 75.2514H848.828C852.771 75.2514 854.499 70.2744 851.404 67.8308C848.474 65.5183 849.84 60.8163 853.552 60.4323L865.433 59.2033C868.016 58.936 869.98 56.7587 869.98 54.161C869.98 51.5493 871.964 49.365 874.564 49.1151L913.128 45.407C916.105 45.1207 918.924 43.9321 921.207 42.0002L929.631 34.8726L917.701 24.7779L893.868 13.9448C888.109 11.3272 888.658 2.97382 894.709 1.13199C897.017 0.429762 899.523 0.990286 901.312 2.60842L912.869 13.0645C915.945 15.8481 917.701 19.8035 917.701 23.9526V24.7779L925.524 19.9637C927.962 18.4633 931.095 18.7381 933.235 20.6401C935.836 22.9522 936.15 26.9048 933.946 29.5983L929.631 34.8726L957.797 48.2852C962.121 50.3442 962.288 56.4371 958.084 58.7303C952.749 61.6402 954.816 69.7452 960.893 69.7452H1010.39C1015.46 69.7452 1019.57 73.8539 1019.57 78.9223C1019.57 83.9906 1023.67 88.0993 1028.74 88.0993H1050.21C1051.63 88.0993 1052.47 86.523 1051.68 85.3462C1050.9 84.1693 1051.74 82.5931 1053.16 82.5931H1058.24C1062.11 82.5931 1064.16 78.0266 1061.6 75.129L1054.44 67.038C1050.86 62.9919 1052.38 56.621 1057.39 54.6147L1058.36 54.2276C1059.94 53.5947 1061.73 53.7125 1063.21 54.548L1068.01 57.2496C1070.72 58.7742 1070.18 62.8275 1067.16 63.5817C1064.48 64.2511 1063.65 67.6436 1065.71 69.4819L1085.5 87.1555C1086.2 87.7832 1086.97 88.3418 1087.78 88.8235L1117.04 106.226C1119.31 107.576 1121.91 108.289 1124.55 108.289H1141C1142.62 108.289 1144.22 108.644 1145.68 109.329L1151.37 111.982C1154.46 113.425 1158.12 111.803 1159.12 108.542C1160.08 105.428 1163.47 103.779 1166.51 104.951L1217.09 124.459C1220.87 125.918 1221.9 130.787 1219.04 133.655C1217.69 135.004 1215.74 135.575 1213.88 135.169L1205.86 133.426C1199.8 132.109 1193.57 134.737 1190.29 139.992L1189.73 140.889C1187.71 144.113 1184.53 146.43 1180.84 147.352L1149.88 155.091L1135.28 159.074C1132.39 159.862 1130.94 163.098 1132.28 165.777C1132.96 167.135 1132.95 168.737 1132.25 170.085L1122.27 189.329C1121.19 191.41 1119.04 192.717 1116.7 192.717C1113.23 192.717 1110.42 189.906 1110.42 186.439V175.274C1110.42 170.944 1113.32 167.149 1117.49 166.009L1118.66 165.691C1119.86 165.363 1120.93 164.662 1121.71 163.689C1125.67 158.736 1120.07 151.881 1114.43 154.776L1105.41 159.399C1103.89 160.178 1102.17 160.454 1100.48 160.188L1074.49 156.084C1070.48 155.451 1066.39 156.505 1063.18 158.997L1046.82 171.724C1044.87 173.238 1044.33 175.954 1045.56 178.095C1046.5 179.742 1048.3 180.707 1050.19 180.581L1051.28 180.508C1055.93 180.198 1059.47 184.61 1058.17 189.083L1051.65 211.35C1050.5 215.268 1047.77 218.533 1044.12 220.359L1036.1 224.368C1034.28 225.28 1032.27 225.754 1030.23 225.754C1026.91 225.754 1023.72 227.008 1021.29 229.264L1018.59 231.776C1014.89 235.211 1014.13 240.78 1016.77 245.08L1017.95 246.995C1018.97 248.643 1019.14 250.674 1018.42 252.47C1016.31 257.759 1008.75 257.537 1006.95 252.133L1005.16 246.789C1004.4 244.507 1002.68 242.675 1000.44 241.782L994.738 239.5C992.231 238.497 989.386 239.716 988.383 242.223L987.505 244.42C986.969 245.76 987.639 247.278 988.99 247.785C990.987 248.534 991.259 251.246 989.451 252.376L988.548 252.941C987.357 253.685 986.816 255.137 987.229 256.48L991.795 271.322C993.107 275.583 992.41 280.209 989.903 283.896L980.596 297.584C979.074 299.822 976.964 301.595 974.497 302.709L950.929 313.353C950.198 313.683 949.405 313.854 948.603 313.854C944.059 313.854 941.374 318.945 943.94 322.695L946.283 326.12C948.351 329.143 948.05 333.196 945.557 335.881L941.353 340.408C939.239 342.685 936.001 343.537 933.04 342.595L924.608 339.912C921.767 339.008 919.115 341.74 920.103 344.553C921.512 348.562 916.045 351.291 913.688 347.755L911.644 344.688C911.401 344.324 911.218 343.922 911.103 343.499L906.721 327.434C906.16 325.376 904.291 323.948 902.158 323.948C899.971 323.948 898.069 322.449 897.559 320.322L896.535 316.058C894.819 308.906 886.371 305.81 880.44 310.16L857.626 326.89C853.854 329.656 851.626 334.053 851.626 338.73V344.138H854.899C857.469 344.138 859.036 346.965 857.674 349.145C855.931 351.933 851.626 350.698 851.626 347.41V344.138C847.225 347.072 841.251 345.518 838.837 340.811L826.065 315.905C825.368 314.546 824.463 313.303 823.382 312.223L811.877 300.718C809.124 297.964 805.389 296.417 801.495 296.417H786.99C784.251 296.417 781.565 295.651 779.239 294.204L751.363 276.876C749.749 275.873 747.805 275.55 745.953 275.977C741.376 277.034 739.026 282.126 741.194 286.294L743.791 291.289C746.624 296.737 753.224 299.015 758.814 296.474L762.261 294.907C766.284 293.078 771.031 294.093 773.955 297.407C778.381 302.423 776.763 310.283 770.714 313.142L743.605 325.958C737.1 329.033 729.326 326.942 725.242 321.019L699.121 283.144C697.343 280.566 693.615 280.352 691.553 282.708C690.153 284.308 689.972 286.638 691.107 288.435L718.457 331.74C720.806 335.459 724.898 337.714 729.296 337.714C740.083 337.714 746.048 350.224 739.256 358.605L716.329 386.899C714.21 389.514 713.053 392.777 713.053 396.143V426.731L726.819 429.484L740.172 414.461C741.018 413.51 742.23 412.965 743.503 412.965C746.284 412.965 748.386 415.484 747.888 418.219L742.075 450.193C741.702 452.245 740.712 454.134 739.238 455.609L738.148 456.699C734.888 459.958 729.643 460.083 726.232 456.982C723.784 454.757 722.823 451.329 723.756 448.156L726.222 439.772C726.618 438.426 726.819 437.031 726.819 435.629V429.484L713.053 426.731L702.46 433.422C698.2 436.112 695.617 440.798 695.617 445.836V447.846C695.617 451.391 694.335 454.817 692.006 457.49L674.399 477.706C672.101 480.344 668.938 482.074 665.478 482.587L655.642 484.044C649.83 484.905 644.064 482.219 640.985 477.215L619.341 442.043C617.626 439.256 616.891 435.977 617.252 432.726L619.256 414.688C619.384 413.543 619.376 412.388 619.233 411.245L617.186 394.869C616.864 392.296 615.867 389.854 614.296 387.791L602.012 371.669L600.501 369.295C597.494 364.569 592.059 361.966 586.492 362.585L561.189 365.396C556.822 365.881 552.467 364.385 549.32 361.319L522.937 335.612C520.101 332.849 518.501 329.056 518.501 325.096V310.896C518.501 308.616 519.032 306.368 520.051 304.329L527.926 288.58C528.969 286.493 530.495 284.685 532.376 283.306L541.48 276.629C542.672 275.755 543.726 274.705 544.605 273.516L553.646 261.283C556.279 257.722 554.795 252.632 550.662 251.042C548.373 250.162 546.748 248.102 546.424 245.672L545.495 238.707C544.322 229.905 551.169 222.084 560.05 222.084H568.369C572.251 222.084 575.398 218.936 575.398 215.054C575.398 213.099 574.584 211.233 573.152 209.903L572.352 209.16C567.553 204.704 568.574 196.846 574.353 193.764L590.081 185.376H575.398L557.68 191.091C554.482 192.123 551.894 188.372 553.993 185.748C554.191 185.501 554.353 185.227 554.475 184.935L558.469 175.349C558.74 174.698 559.136 174.107 559.635 173.608C561.356 171.887 561.713 169.226 560.505 167.112L560.384 166.902C559.454 165.273 557.722 164.268 555.847 164.268C552.96 164.268 550.62 166.608 550.62 169.495V169.988C550.62 170.456 550.563 170.922 550.45 171.375L548.316 179.911C547.513 183.122 544.627 185.376 541.316 185.376C537.332 185.376 534.102 182.145 534.102 178.161V173.044C534.102 171.559 534.783 170.157 535.951 169.24L542.593 164.02C544.024 162.896 543.229 160.598 541.409 160.598C540.084 160.598 539.159 159.285 539.605 158.037L541.756 152.013C542.669 149.456 545.091 147.75 547.806 147.75H557.251C560.178 147.75 562.55 150.123 562.55 153.05C562.55 154.364 563.039 155.631 563.92 156.605L573.74 167.459C577.554 171.674 578.592 177.711 576.406 182.958L575.398 185.376H590.081C590.081 182.019 592.033 178.969 595.081 177.562L596.047 177.116C599.683 175.438 602.012 171.798 602.012 167.793V158.303C602.012 156.529 600.574 155.091 598.8 155.091C597.026 155.091 595.588 153.653 595.588 151.879V139.583Z" fill="url(#paint0_linear_2_3192)" fill-opacity="0.8"/>
<path d="M1043.43 261.892C1048.48 259.434 1051.68 254.308 1051.68 248.689V241.355C1058.68 243.855 1062.18 251.691 1059.37 258.571L1058.36 261.027C1057.02 264.319 1054.52 267.01 1051.34 268.6L1024.83 281.853C1021.57 283.485 1017.73 281.112 1017.73 277.463C1017.73 275.585 1018.8 273.871 1020.49 273.049L1043.43 261.892Z" fill="url(#paint1_linear_2_3192)" fill-opacity="0.8"/>
<path d="M986.27 315.728C983.665 314.797 982.706 311.609 984.366 309.395C986.394 306.69 990.639 307.457 991.593 310.701C992.54 313.922 989.433 316.857 986.27 315.728Z" fill="url(#paint2_linear_2_3192)" fill-opacity="0.8"/>
<path d="M989.324 335.517C986.834 334.724 985.557 331.969 986.562 329.557C987.823 326.531 991.81 325.856 993.996 328.3C997.021 331.681 993.647 336.892 989.324 335.517Z" fill="url(#paint3_linear_2_3192)" fill-opacity="0.8"/>
<path d="M997.718 349.466C999.413 347.771 998.902 344.907 996.726 343.903C993.955 342.624 991.013 345.315 992.039 348.189C992.89 350.57 995.93 351.254 997.718 349.466Z" fill="url(#paint4_linear_2_3192)" fill-opacity="0.8"/>
<path d="M1006.72 356.068C1006.72 353.856 1004.5 352.333 1002.43 353.127L994.787 356.068L1002.43 359.009C1004.5 359.803 1006.72 358.279 1006.72 356.068Z" fill="url(#paint5_linear_2_3192)" fill-opacity="0.8"/>
<path d="M980.422 366.41C980.797 364.535 980.21 362.597 978.858 361.246C976.918 359.306 973.874 359.017 971.604 360.557L952.379 373.603C950.726 374.725 949.519 376.392 948.971 378.312L948.893 378.584C948.312 380.617 948.576 382.799 949.625 384.635C950.898 386.861 953.177 388.326 955.73 388.558L964.426 389.348C968.998 389.764 973.431 387.644 975.977 383.824C976.884 382.464 977.516 380.938 977.837 379.335L980.422 366.41Z" fill="url(#paint6_linear_2_3192)" fill-opacity="0.8"/>
<path d="M983.999 349.189C982.542 350.16 980.838 348.359 981.889 346.958C982.787 345.761 984.693 346.396 984.693 347.893C984.693 348.413 984.432 348.9 983.999 349.189Z" fill="url(#paint7_linear_2_3192)" fill-opacity="0.8"/>
<path d="M929.212 380.477C928.881 380.113 928.495 379.805 928.068 379.562C923.439 376.94 918.762 382.912 922.418 386.777L929.046 393.784C931.154 396.012 934.819 395.55 936.309 392.869C937.254 391.168 937.009 389.053 935.7 387.613L929.212 380.477Z" fill="url(#paint8_linear_2_3192)" fill-opacity="0.8"/>
<path d="M940.953 396.797C940.195 396.581 939.38 396.792 938.823 397.349C937.618 398.554 938.208 400.615 939.869 400.998L959.462 405.519C959.758 405.587 960.067 405.573 960.356 405.477C961.896 404.963 961.849 402.768 960.287 402.321L940.953 396.797Z" fill="url(#paint9_linear_2_3192)" fill-opacity="0.8"/>
<path d="M982.702 394.654C982.204 392.828 982.24 390.898 982.804 389.093L984.48 383.729C985.675 379.905 989.377 377.434 993.367 377.797L995.404 377.982C996.189 378.053 996.972 377.831 997.602 377.358L998.651 376.571C999.543 375.902 1000.81 376.12 1001.43 377.048L1001.6 377.295C1001.92 377.781 1002.5 378.031 1003.07 377.935L1004.24 377.74C1005.3 377.564 1005.96 378.848 1005.2 379.605C1005 379.812 1004.72 379.928 1004.43 379.928H990.927C989.214 379.928 988.005 381.606 988.547 383.23C988.961 384.474 990.263 385.189 991.535 384.871L997.428 383.398C998.44 383.144 999.234 384.271 998.655 385.139C998.527 385.331 998.343 385.48 998.129 385.566L997.498 385.818C995.595 386.579 994.826 388.863 995.88 390.621L996.155 391.078C996.458 391.583 996.577 392.176 996.494 392.758L996.405 393.38C996.131 395.304 993.724 396.018 992.444 394.556C991.181 393.111 988.807 393.786 988.492 395.679L987.684 400.525C987.547 401.349 986.834 401.953 985.998 401.953C985.227 401.953 984.552 401.437 984.349 400.694L982.702 394.654Z" fill="url(#paint10_linear_2_3192)" fill-opacity="0.8"/>
<path d="M1014.98 375.334C1014.98 373.65 1013.2 372.555 1011.7 373.308C1010.5 373.905 1010.08 375.402 1010.79 376.534L1013.1 380.227C1013.52 380.9 1014.51 380.853 1014.87 380.143C1014.94 380.001 1014.98 379.846 1014.98 379.688V375.334Z" fill="url(#paint11_linear_2_3192)" fill-opacity="0.8"/>
<path d="M1005.41 390.94C1004.61 390.94 1003.96 390.293 1003.96 389.495C1003.96 388.448 1005.04 387.748 1006 388.173C1007.42 388.808 1006.97 390.94 1005.41 390.94Z" fill="url(#paint12_linear_2_3192)" fill-opacity="0.8"/>
<path d="M1014.77 387.066C1013.84 387.182 1013.14 387.975 1013.14 388.915C1013.14 390.005 1014.07 390.863 1015.16 390.772L1019.94 390.374C1021.6 390.235 1022.34 388.212 1021.16 387.031C1020.73 386.602 1020.13 386.396 1019.53 386.471L1014.77 387.066Z" fill="url(#paint13_linear_2_3192)" fill-opacity="0.8"/>
<path d="M981.94 405.165C981.94 405.925 981.323 406.541 980.563 406.541H972.582C972.121 406.541 971.692 406.311 971.436 405.928C970.826 405.014 971.482 403.788 972.582 403.788H980.563C981.323 403.788 981.94 404.405 981.94 405.165Z" fill="url(#paint14_linear_2_3192)" fill-opacity="0.8"/>
<path d="M988.126 406.421C987.7 406.497 987.264 406.359 986.957 406.053C986.122 405.217 986.714 403.788 987.896 403.788C989.516 403.788 989.722 406.14 988.126 406.421Z" fill="url(#paint15_linear_2_3192)" fill-opacity="0.8"/>
<path d="M1002.26 409.935C1003.58 408.421 1001.95 406.156 1000.1 406.929C998.657 407.529 998.513 409.511 999.85 410.313C1000.64 410.786 1001.65 410.627 1002.26 409.935Z" fill="url(#paint16_linear_2_3192)" fill-opacity="0.8"/>
<path d="M1030.95 387.302C1031.82 386.955 1031.83 385.728 1030.97 385.368L1027.28 383.832C1025.26 382.988 1025.08 380.184 1026.99 379.095C1028.02 378.503 1029.33 378.678 1030.17 379.521L1032.86 382.212C1034.85 384.197 1037.76 384.931 1040.45 384.125L1041.79 383.722C1044.03 383.049 1046.44 383.186 1048.59 384.108L1077.38 396.447L1082.89 394.611L1095.67 389.348C1097.43 388.625 1099.43 388.846 1100.98 389.935L1105.93 393.395C1106.76 393.98 1106.75 395.222 1105.9 395.788C1105.33 396.171 1104.56 396.095 1104.07 395.607L1101.39 392.928C1099.84 391.378 1097.29 391.52 1095.92 393.231C1095.22 394.103 1094.17 394.611 1093.05 394.611H1082.89L1077.38 396.447L1079.02 397.701C1082.08 400.039 1079.71 404.883 1075.99 403.904C1075.69 403.827 1075.39 403.788 1075.09 403.788H1061.49C1061.07 403.788 1060.65 403.758 1060.24 403.699L1050.36 402.288C1049.2 402.123 1048.55 400.877 1049.07 399.835C1049.5 398.982 1049.14 397.944 1048.28 397.533L1030.89 389.215C1030.07 388.823 1030.11 387.641 1030.95 387.302Z" fill="url(#paint17_linear_2_3192)" fill-opacity="0.8"/>
<path d="M964.673 453.604C963.534 449.809 965.454 445.767 969.116 444.252L985.934 437.293C988.133 436.383 990.077 434.953 991.6 433.125L992.721 431.781C993.484 430.865 994.356 430.045 995.317 429.34L1004.52 422.59C1006.53 421.119 1009 420.431 1011.48 420.656L1013.19 420.812C1015.98 421.065 1018.66 419.731 1020.14 417.363L1020.93 416.103C1021.79 414.722 1023.31 413.883 1024.94 413.883H1028.4C1029.1 413.883 1029.66 413.321 1029.66 412.627C1029.66 411.846 1030.37 411.254 1031.13 411.39L1039.21 412.815C1041.76 413.265 1042.75 416.397 1040.92 418.226C1039.41 419.729 1039.77 422.252 1041.63 423.284L1050.47 428.196C1052.82 429.501 1055.75 429.091 1057.65 427.19C1059.55 425.288 1059.96 422.357 1058.66 420.007L1057.52 417.956C1056.76 416.595 1056.88 414.916 1057.81 413.67C1059.6 411.279 1063.3 411.671 1064.55 414.385L1066.89 419.454C1067.15 420.02 1067.49 420.55 1067.88 421.032L1079.02 434.55C1079.76 435.452 1080.61 436.262 1081.54 436.963L1092.21 444.962C1093.93 446.252 1095.34 447.903 1096.35 449.799L1098.51 453.851C1100.79 458.128 1100.82 463.255 1098.58 467.553L1092.35 479.479C1091.56 480.999 1091.15 482.688 1091.15 484.403C1091.15 489.738 1087.2 494.25 1081.91 494.955L1077.38 495.558V502.9C1080.67 502.242 1083.07 505.95 1081.12 508.68L1080.12 510.074C1078.64 512.146 1075.71 512.523 1073.76 510.893L1068.47 506.485C1067.29 505.504 1067.09 503.774 1068.01 502.549C1068.69 501.645 1069.83 501.222 1070.93 501.467L1077.38 502.9V495.558H1062.26C1057.39 495.558 1052.85 493.071 1050.24 488.963L1048.55 486.299C1048.2 485.753 1048.01 485.12 1048.01 484.474C1048.01 481.759 1044.99 480.139 1042.73 481.645L1041.75 482.299C1040.52 483.118 1038.94 483.2 1037.64 482.513L1026.69 476.754C1023.86 475.26 1020.61 474.737 1017.44 475.264L1005.42 477.267C1002.11 477.82 999.083 479.505 996.869 482.036C994.916 484.268 992.328 485.849 989.451 486.568L977.864 489.465C976.355 489.842 974.76 489.632 973.4 488.877L969.948 486.959C968.525 486.168 968.127 484.303 969.104 483C969.666 482.25 969.797 481.262 969.449 480.392L964.225 467.332C963.223 464.827 963.193 462.039 964.14 459.513L964.507 458.534C965.1 456.953 965.158 455.222 964.673 453.604Z" fill="url(#paint18_linear_2_3192)" fill-opacity="0.8"/>
<path d="M1156.3 504.735L1146.85 515.766C1145.97 516.791 1146.03 518.321 1146.98 519.276C1147.64 519.931 1148.6 520.186 1149.49 519.942L1154.59 518.551C1156.9 517.921 1158.96 516.596 1160.49 514.757L1169.11 504.417C1170.66 502.558 1170.43 499.799 1168.59 498.225C1166.84 496.72 1164.22 496.821 1162.58 498.456L1156.3 504.735Z" fill="url(#paint19_linear_2_3192)" fill-opacity="0.8"/>
<path d="M1175.57 496.344C1175.57 495.875 1175.27 495.458 1174.83 495.31L1173.35 494.816C1171.57 494.223 1170.66 492.255 1171.35 490.514L1171.55 490.012C1171.78 489.436 1171.87 488.812 1171.8 488.195L1171.09 481.85C1171.03 481.246 1170.64 480.723 1170.09 480.477L1169.53 480.228C1167.97 479.535 1168.47 477.204 1170.17 477.204C1170.68 477.204 1171.16 477.451 1171.46 477.866L1174.99 482.806C1175.38 483.351 1175.85 483.833 1176.38 484.235L1177.71 485.228C1178.67 485.947 1179.92 486.127 1181.04 485.707L1182.24 485.257C1184.2 484.524 1186.23 486.153 1185.93 488.221L1185.87 488.615C1185.75 489.484 1185.11 490.191 1184.26 490.404L1183.63 490.563C1182.75 490.782 1182.24 491.703 1182.53 492.562C1182.76 493.243 1182.49 493.991 1181.88 494.371L1177.24 497.269C1176.52 497.723 1175.57 497.201 1175.57 496.344Z" fill="url(#paint20_linear_2_3192)" fill-opacity="0.8"/>
<path d="M241.667 39.5102C242.923 39.0128 244.318 39.8008 244.54 41.1334C244.904 43.3146 247.945 43.5532 248.644 41.4554L249.057 40.2155C249.39 39.217 250.325 38.5434 251.377 38.5434H258.25C259.819 38.5434 261.373 38.2351 262.824 37.636L300.291 22.1603C301.977 21.4643 303.777 21.0882 305.599 21.0512L435.076 18.4267C437.431 18.3789 439.741 17.765 441.809 16.6368L444.787 15.0127C447.373 13.6021 450.323 13.002 453.255 13.2904L504.735 18.354L514.305 19.949C524.179 21.5947 526.629 34.6635 518.022 39.774C515.406 41.3273 513.572 43.9177 512.975 46.9012L508.406 69.7452L499.716 114.775C498.833 119.352 495.828 123.239 491.62 125.246L443.842 148.032C440.51 149.621 437.9 152.406 436.529 155.832L432.571 165.728C429.775 172.718 422.144 176.461 414.904 174.393L413.566 174.01C410.216 173.053 407.316 170.936 405.383 168.037L389.936 144.866C388.783 143.137 388.011 141.184 387.669 139.135L384.284 118.822C383.839 116.151 384.251 113.408 385.462 110.986C387.186 107.537 387.266 103.496 385.679 99.982L379.241 85.7266C376.866 80.4672 371.63 77.0869 365.86 77.0869H345.361C342.184 77.0869 339.093 76.0564 336.551 74.1502L335.3 73.2117C328.277 67.9441 318.231 69.9764 313.807 77.5598L309.156 85.5325C305.519 91.7685 306.954 99.7236 312.541 104.295L355.499 139.442C360.254 143.332 362.084 149.771 360.087 155.58L356.253 166.734C354.451 171.975 355.754 177.784 359.622 181.754L384.021 206.795C386.692 209.537 388.187 213.214 388.187 217.042V228.127C388.187 233.46 385.296 238.373 380.635 240.963L326.62 270.971C323.703 272.592 321.424 275.158 320.161 278.247L315.557 289.501C314.447 292.214 312.55 294.533 310.111 296.159L301.526 301.883C297.459 304.594 295.796 309.75 297.512 314.326L301.306 324.443C302.049 326.424 300.584 328.537 298.469 328.537C297.23 328.537 296.116 327.782 295.655 326.632L291.021 315.047C289.846 312.109 287.001 310.183 283.836 310.183H269.63C267.203 310.183 266.104 313.218 267.969 314.771L270.281 316.699C271.363 317.6 270.725 319.36 269.318 319.36C269.036 319.36 268.759 319.281 268.52 319.131L260.499 314.118C256.757 311.779 251.927 312.155 248.593 315.045L244.434 318.649C242.275 320.521 242.156 323.832 244.177 325.853C245.759 327.434 246.076 329.884 244.949 331.816L243.97 333.494C241.986 336.895 242.994 341.254 246.271 343.438L247.614 344.333C251.397 346.856 256.459 346.22 259.501 342.84L259.757 342.555C261.479 340.642 263.932 339.549 266.507 339.549H271.25C275.7 339.549 278.638 344.179 276.743 348.205C275.075 351.751 277.151 355.924 280.985 356.731L284.095 357.386C288.067 358.222 290.911 361.737 290.911 365.797C290.911 370.553 294.767 374.422 299.524 374.422H309.578C312.37 374.422 315.105 373.626 317.461 372.126L319.889 370.581C322.526 368.903 325.63 368.11 328.749 368.318L362.801 370.588C364.419 370.696 366.008 371.071 367.503 371.698L389.097 380.753C392.078 382.004 394.563 384.203 396.167 387.009L405.723 403.733C407.437 406.732 410.154 409.031 413.396 410.226L445.205 421.945C451.259 424.175 451.883 432.49 446.23 435.599C443.826 436.922 442.332 439.448 442.332 442.192V457.036C442.332 461.119 440.632 465.017 437.64 467.796L366.571 533.788C365.69 534.606 364.913 535.529 364.257 536.536L344.736 566.515C342.058 570.627 343.829 576.162 348.397 577.956C354.741 580.449 355.009 589.328 348.826 592.198L345.098 593.929C341.718 595.498 337.734 594.949 334.905 592.524L320.609 580.271C316.457 576.712 314.627 571.14 315.859 565.812L337.329 473.031C338.672 467.228 336.376 461.189 331.517 457.744L299.973 435.376C293.795 430.995 291.962 422.635 295.741 416.072L304.967 400.048C305.979 398.29 306.512 396.296 306.512 394.267C306.512 387.868 301.325 382.681 294.926 382.681H283.268C279.901 382.681 276.636 381.524 274.021 379.403L248.151 358.428C245.536 356.307 242.271 355.15 238.904 355.15H230.223C226.746 355.15 223.381 353.916 220.728 351.667L145.596 287.968C142.305 285.178 140.408 281.082 140.408 276.768V247.714C140.408 243.129 138.267 238.807 134.618 236.03L86.6814 199.541C81.9798 195.962 75.5911 195.55 70.4688 198.496L47.5754 211.659C44.1471 213.631 40.0686 214.136 36.2631 213.06L10.69 205.833C4.36628 204.046 0 198.275 0 191.703V163.422C0 159.285 1.74513 155.34 4.8062 152.558L25.1947 134.023C28.4195 131.091 32.78 129.743 37.0966 130.344L99.3766 139.016C101.617 139.328 103.899 139.118 106.045 138.403L126.146 131.703C130.505 130.249 133.933 126.839 135.409 122.487L149.239 81.687C150.623 77.6046 153.731 74.3365 157.738 72.7493L241.667 39.5102Z" fill="url(#paint21_linear_2_3192)" fill-opacity="0.8"/>
<defs>
<linearGradient id="paint0_linear_2_3192" x1="612.565" y1="0" x2="612.565" y2="596.505" gradientUnits="userSpaceOnUse">
<stop stop-color="#222027"/>
<stop offset="1" stop-color="#222027" stop-opacity="0.39"/>
</linearGradient>
<linearGradient id="paint1_linear_2_3192" x1="612.565" y1="0" x2="612.565" y2="596.505" gradientUnits="userSpaceOnUse">
<stop stop-color="#222027"/>
<stop offset="1" stop-color="#222027" stop-opacity="0.39"/>
</linearGradient>
<linearGradient id="paint2_linear_2_3192" x1="612.565" y1="0" x2="612.565" y2="596.505" gradientUnits="userSpaceOnUse">
<stop stop-color="#222027"/>
<stop offset="1" stop-color="#222027" stop-opacity="0.39"/>
</linearGradient>
<linearGradient id="paint3_linear_2_3192" x1="612.565" y1="0" x2="612.565" y2="596.505" gradientUnits="userSpaceOnUse">
<stop stop-color="#222027"/>
<stop offset="1" stop-color="#222027" stop-opacity="0.39"/>
</linearGradient>
<linearGradient id="paint4_linear_2_3192" x1="612.565" y1="0" x2="612.565" y2="596.505" gradientUnits="userSpaceOnUse">
<stop stop-color="#222027"/>
<stop offset="1" stop-color="#222027" stop-opacity="0.39"/>
</linearGradient>
<linearGradient id="paint5_linear_2_3192" x1="612.565" y1="0" x2="612.565" y2="596.505" gradientUnits="userSpaceOnUse">
<stop stop-color="#222027"/>
<stop offset="1" stop-color="#222027" stop-opacity="0.39"/>
</linearGradient>
<linearGradient id="paint6_linear_2_3192" x1="612.565" y1="0" x2="612.565" y2="596.505" gradientUnits="userSpaceOnUse">
<stop stop-color="#222027"/>
<stop offset="1" stop-color="#222027" stop-opacity="0.39"/>
</linearGradient>
<linearGradient id="paint7_linear_2_3192" x1="612.565" y1="0" x2="612.565" y2="596.505" gradientUnits="userSpaceOnUse">
<stop stop-color="#222027"/>
<stop offset="1" stop-color="#222027" stop-opacity="0.39"/>
</linearGradient>
<linearGradient id="paint8_linear_2_3192" x1="612.565" y1="0" x2="612.565" y2="596.505" gradientUnits="userSpaceOnUse">
<stop stop-color="#222027"/>
<stop offset="1" stop-color="#222027" stop-opacity="0.39"/>
</linearGradient>
<linearGradient id="paint9_linear_2_3192" x1="612.565" y1="0" x2="612.565" y2="596.505" gradientUnits="userSpaceOnUse">
<stop stop-color="#222027"/>
<stop offset="1" stop-color="#222027" stop-opacity="0.39"/>
</linearGradient>
<linearGradient id="paint10_linear_2_3192" x1="612.565" y1="0" x2="612.565" y2="596.505" gradientUnits="userSpaceOnUse">
<stop stop-color="#222027"/>
<stop offset="1" stop-color="#222027" stop-opacity="0.39"/>
</linearGradient>
<linearGradient id="paint11_linear_2_3192" x1="612.565" y1="0" x2="612.565" y2="596.505" gradientUnits="userSpaceOnUse">
<stop stop-color="#222027"/>
<stop offset="1" stop-color="#222027" stop-opacity="0.39"/>
</linearGradient>
<linearGradient id="paint12_linear_2_3192" x1="612.565" y1="0" x2="612.565" y2="596.505" gradientUnits="userSpaceOnUse">
<stop stop-color="#222027"/>
<stop offset="1" stop-color="#222027" stop-opacity="0.39"/>
</linearGradient>
<linearGradient id="paint13_linear_2_3192" x1="612.565" y1="0" x2="612.565" y2="596.505" gradientUnits="userSpaceOnUse">
<stop stop-color="#222027"/>
<stop offset="1" stop-color="#222027" stop-opacity="0.39"/>
</linearGradient>
<linearGradient id="paint14_linear_2_3192" x1="612.565" y1="0" x2="612.565" y2="596.505" gradientUnits="userSpaceOnUse">
<stop stop-color="#222027"/>
<stop offset="1" stop-color="#222027" stop-opacity="0.39"/>
</linearGradient>
<linearGradient id="paint15_linear_2_3192" x1="612.565" y1="0" x2="612.565" y2="596.505" gradientUnits="userSpaceOnUse">
<stop stop-color="#222027"/>
<stop offset="1" stop-color="#222027" stop-opacity="0.39"/>
</linearGradient>
<linearGradient id="paint16_linear_2_3192" x1="612.565" y1="0" x2="612.565" y2="596.505" gradientUnits="userSpaceOnUse">
<stop stop-color="#222027"/>
<stop offset="1" stop-color="#222027" stop-opacity="0.39"/>
</linearGradient>
<linearGradient id="paint17_linear_2_3192" x1="612.565" y1="0" x2="612.565" y2="596.505" gradientUnits="userSpaceOnUse">
<stop stop-color="#222027"/>
<stop offset="1" stop-color="#222027" stop-opacity="0.39"/>
</linearGradient>
<linearGradient id="paint18_linear_2_3192" x1="612.565" y1="0" x2="612.565" y2="596.505" gradientUnits="userSpaceOnUse">
<stop stop-color="#222027"/>
<stop offset="1" stop-color="#222027" stop-opacity="0.39"/>
</linearGradient>
<linearGradient id="paint19_linear_2_3192" x1="612.565" y1="0" x2="612.565" y2="596.505" gradientUnits="userSpaceOnUse">
<stop stop-color="#222027"/>
<stop offset="1" stop-color="#222027" stop-opacity="0.39"/>
</linearGradient>
<linearGradient id="paint20_linear_2_3192" x1="612.565" y1="0" x2="612.565" y2="596.505" gradientUnits="userSpaceOnUse">
<stop stop-color="#222027"/>
<stop offset="1" stop-color="#222027" stop-opacity="0.39"/>
</linearGradient>
<linearGradient id="paint21_linear_2_3192" x1="612.565" y1="0" x2="612.565" y2="596.505" gradientUnits="userSpaceOnUse">
<stop stop-color="#222027"/>
<stop offset="1" stop-color="#222027" stop-opacity="0.39"/>
</linearGradient>
</defs>
</svg>
