<svg width="1255" height="629" viewBox="0 0 1255 629" fill="none" xmlns="http://www.w3.org/2000/svg">
<g filter="url(#filter0_d_941_1433)">
<path d="M612.588 152.583C612.588 148.434 614.343 144.478 617.42 141.695L666.863 96.9606C669.164 94.8789 672.065 93.5796 675.15 93.2491L691.074 91.5429C694.33 91.194 697.609 91.9436 700.39 93.6723L725.587 109.336C728.365 111.062 730.053 114.1 730.053 117.37V120.217C730.053 120.903 729.781 121.561 729.296 122.046C727.288 124.054 729.512 127.361 732.129 126.259L737.395 124.042L756.118 113.459C757.689 112.571 759.433 112.036 761.231 111.889L787.92 109.71C792.479 109.338 793.739 103.252 789.704 101.099L780.517 96.1526C772.731 91.96 770.39 81.8862 775.53 74.6901L781.2 66.7531C783.14 64.0363 785.949 62.062 789.162 61.1556L819.573 52.578C819.849 52.5005 820.133 52.4611 820.419 52.4611C823.805 52.4611 824.758 57.1031 821.645 58.4369L790.324 71.8603C786.607 73.4532 784.198 77.1077 784.198 81.1513V83.537C784.198 88.1932 786.558 92.5318 790.467 95.0613L798.835 100.475C799.476 100.891 800.149 101.255 800.848 101.566L815.81 108.215C819.933 110.048 824.577 107.03 824.577 102.518C824.577 101.584 824.786 100.662 825.19 99.8202L831.214 87.2721C832.794 83.9803 837.582 84.3014 838.708 87.7747L840.245 92.5138C841.39 96.0434 846.601 95.2194 846.601 91.5089C846.601 89.7099 848.06 88.2514 849.859 88.2514H865.828C869.771 88.2514 871.499 83.2744 868.404 80.8308C865.474 78.5183 866.84 73.8163 870.552 73.4323L882.433 72.2033C885.016 71.936 886.98 69.7587 886.98 67.161C886.98 64.5493 888.964 62.365 891.564 62.1151L930.128 58.407C933.105 58.1207 935.924 56.9321 938.207 55.0002L946.631 47.8726L934.701 37.7779L910.868 26.9448C905.109 24.3272 905.658 15.9738 911.709 14.132C914.017 13.4298 916.523 13.9903 918.312 15.6084L929.869 26.0645C932.945 28.8481 934.701 32.8035 934.701 36.9526V37.7779L942.524 32.9637C944.962 31.4633 948.095 31.7381 950.235 33.6401C952.836 35.9522 953.15 39.9048 950.946 42.5983L946.631 47.8726L974.797 61.2852C979.121 63.3442 979.288 69.4371 975.084 71.7303C969.749 74.6402 971.816 82.7452 977.893 82.7452H1027.39C1032.46 82.7452 1036.57 86.8539 1036.57 91.9223C1036.57 96.9906 1040.67 101.099 1045.74 101.099H1067.21C1068.63 101.099 1069.47 99.523 1068.68 98.3462C1067.9 97.1693 1068.74 95.5931 1070.16 95.5931H1075.24C1079.11 95.5931 1081.16 91.0266 1078.6 88.129L1071.44 80.038C1067.86 75.9919 1069.38 69.621 1074.39 67.6147L1075.36 67.2276C1076.94 66.5947 1078.73 66.7125 1080.21 67.548L1085.01 70.2496C1087.72 71.7742 1087.18 75.8275 1084.16 76.5817C1081.48 77.2511 1080.65 80.6436 1082.71 82.4819L1102.5 100.155C1103.2 100.783 1103.97 101.342 1104.78 101.823L1134.04 119.226C1136.31 120.576 1138.91 121.289 1141.55 121.289H1158C1159.62 121.289 1161.22 121.644 1162.68 122.329L1168.37 124.982C1171.46 126.425 1175.12 124.803 1176.12 121.542C1177.08 118.428 1180.47 116.779 1183.51 117.951L1234.09 137.459C1237.87 138.918 1238.9 143.787 1236.04 146.655C1234.69 148.004 1232.74 148.575 1230.88 148.169L1222.86 146.426C1216.8 145.109 1210.57 147.737 1207.29 152.992L1206.73 153.889C1204.71 157.113 1201.53 159.43 1197.84 160.352L1166.88 168.091L1152.28 172.074C1149.39 172.862 1147.94 176.098 1149.28 178.777C1149.96 180.135 1149.95 181.737 1149.25 183.085L1139.27 202.329C1138.19 204.41 1136.04 205.717 1133.7 205.717C1130.23 205.717 1127.42 202.906 1127.42 199.439V188.274C1127.42 183.944 1130.32 180.149 1134.49 179.009L1135.66 178.691C1136.86 178.363 1137.93 177.662 1138.71 176.689C1142.67 171.736 1137.07 164.881 1131.43 167.776L1122.41 172.399C1120.89 173.178 1119.17 173.454 1117.48 173.188L1091.49 169.084C1087.48 168.451 1083.39 169.505 1080.18 171.997L1063.82 184.724C1061.87 186.238 1061.33 188.954 1062.56 191.095C1063.5 192.742 1065.3 193.707 1067.19 193.581L1068.28 193.508C1072.93 193.198 1076.47 197.61 1075.17 202.083L1068.65 224.35C1067.5 228.268 1064.77 231.533 1061.12 233.359L1053.1 237.368C1051.28 238.28 1049.27 238.754 1047.23 238.754C1043.91 238.754 1040.72 240.008 1038.29 242.264L1035.59 244.776C1031.89 248.211 1031.13 253.78 1033.77 258.08L1034.95 259.995C1035.97 261.643 1036.14 263.674 1035.42 265.47C1033.31 270.759 1025.75 270.537 1023.95 265.133L1022.16 259.789C1021.4 257.507 1019.68 255.675 1017.44 254.782L1011.74 252.5C1009.23 251.497 1006.39 252.716 1005.38 255.223L1004.5 257.42C1003.97 258.76 1004.64 260.278 1005.99 260.785C1007.99 261.534 1008.26 264.246 1006.45 265.376L1005.55 265.941C1004.36 266.685 1003.82 268.137 1004.23 269.48L1008.8 284.322C1010.11 288.583 1009.41 293.209 1006.9 296.896L997.596 310.584C996.074 312.822 993.964 314.595 991.497 315.709L967.929 326.353C967.198 326.683 966.405 326.854 965.603 326.854C961.059 326.854 958.374 331.945 960.94 335.695L963.283 339.12C965.351 342.143 965.05 346.196 962.557 348.881L958.353 353.408C956.239 355.685 953.001 356.537 950.04 355.595L941.608 352.912C938.767 352.008 936.115 354.74 937.103 357.553C938.512 361.562 933.045 364.291 930.688 360.755L928.644 357.688C928.401 357.324 928.218 356.922 928.103 356.499L923.721 340.434C923.16 338.376 921.291 336.948 919.158 336.948C916.971 336.948 915.069 335.449 914.559 333.322L913.535 329.058C911.819 321.906 903.371 318.81 897.44 323.16L874.626 339.89C870.854 342.656 868.626 347.053 868.626 351.73V357.138H871.899C874.469 357.138 876.036 359.965 874.674 362.145C872.931 364.933 868.626 363.698 868.626 360.41V357.138C864.225 360.072 858.251 358.518 855.837 353.811L843.065 328.905C842.368 327.546 841.463 326.303 840.382 325.223L828.877 313.718C826.124 310.964 822.389 309.417 818.495 309.417H803.99C801.251 309.417 798.565 308.651 796.239 307.204L768.363 289.876C766.749 288.873 764.805 288.55 762.953 288.977C758.376 290.034 756.026 295.126 758.194 299.294L760.791 304.289C763.624 309.737 770.224 312.015 775.814 309.474L779.261 307.907C783.284 306.078 788.031 307.093 790.955 310.407C795.381 315.423 793.763 323.283 787.714 326.142L760.605 338.958C754.1 342.033 746.326 339.942 742.242 334.019L716.121 296.144C714.343 293.566 710.615 293.352 708.553 295.708C707.153 297.308 706.972 299.638 708.107 301.435L735.457 344.74C737.806 348.459 741.898 350.714 746.296 350.714C757.083 350.714 763.048 363.224 756.256 371.605L733.329 399.899C731.21 402.514 730.053 405.777 730.053 409.143V439.731L743.819 442.484L757.172 427.461C758.018 426.51 759.23 425.965 760.503 425.965C763.284 425.965 765.386 428.484 764.888 431.219L759.075 463.193C758.702 465.245 757.712 467.134 756.238 468.609L755.148 469.699C751.888 472.958 746.643 473.083 743.232 469.982C740.784 467.757 739.823 464.329 740.756 461.156L743.222 452.772C743.618 451.426 743.819 450.031 743.819 448.629V442.484L730.053 439.731L719.46 446.422C715.2 449.112 712.617 453.798 712.617 458.836V460.846C712.617 464.391 711.335 467.817 709.006 470.49L691.399 490.706C689.101 493.344 685.938 495.074 682.478 495.587L672.642 497.044C666.83 497.905 661.064 495.219 657.985 490.215L636.341 455.043C634.626 452.256 633.891 448.977 634.252 445.726L636.256 427.688C636.384 426.543 636.376 425.388 636.233 424.245L634.186 407.869C633.864 405.296 632.867 402.854 631.296 400.791L619.012 384.669L617.501 382.295C614.494 377.569 609.059 374.966 603.492 375.585L578.189 378.396C573.822 378.881 569.467 377.385 566.32 374.319L539.937 348.612C537.101 345.849 535.501 342.056 535.501 338.096V323.896C535.501 321.616 536.032 319.368 537.051 317.329L544.926 301.58C545.969 299.493 547.495 297.685 549.376 296.306L558.48 289.629C559.672 288.755 560.726 287.705 561.605 286.516L570.646 274.283C573.279 270.722 571.795 265.632 567.662 264.042C565.373 263.162 563.748 261.102 563.424 258.672L562.495 251.707C561.322 242.905 568.169 235.084 577.05 235.084H585.369C589.251 235.084 592.398 231.936 592.398 228.054C592.398 226.099 591.584 224.233 590.152 222.903L589.352 222.16C584.553 217.704 585.574 209.846 591.353 206.764L607.081 198.376H592.398L574.68 204.091C571.482 205.123 568.894 201.372 570.993 198.748C571.191 198.501 571.353 198.227 571.475 197.935L575.469 188.349C575.74 187.698 576.136 187.107 576.635 186.608C578.356 184.887 578.713 182.226 577.505 180.112L577.384 179.902C576.454 178.273 574.722 177.268 572.847 177.268C569.96 177.268 567.62 179.608 567.62 182.495V182.988C567.62 183.456 567.563 183.922 567.45 184.375L565.316 192.911C564.513 196.122 561.627 198.376 558.316 198.376C554.332 198.376 551.102 195.145 551.102 191.161V186.044C551.102 184.559 551.783 183.157 552.951 182.24L559.593 177.02C561.024 175.896 560.229 173.598 558.409 173.598C557.084 173.598 556.159 172.285 556.605 171.037L558.756 165.013C559.669 162.456 562.091 160.75 564.806 160.75H574.251C577.178 160.75 579.55 163.123 579.55 166.05C579.55 167.364 580.039 168.631 580.92 169.605L590.74 180.459C594.554 184.674 595.592 190.711 593.406 195.958L592.398 198.376H607.081C607.081 195.019 609.033 191.969 612.081 190.562L613.047 190.116C616.683 188.438 619.012 184.798 619.012 180.793V171.303C619.012 169.529 617.574 168.091 615.8 168.091C614.026 168.091 612.588 166.653 612.588 164.879V152.583Z" fill="white"/>
<path d="M1060.43 274.892C1065.48 272.434 1068.68 267.308 1068.68 261.689V254.355C1075.68 256.855 1079.18 264.691 1076.37 271.571L1075.36 274.027C1074.02 277.319 1071.52 280.01 1068.34 281.6L1041.83 294.853C1038.57 296.485 1034.73 294.112 1034.73 290.463C1034.73 288.585 1035.8 286.871 1037.49 286.049L1060.43 274.892Z" fill="white"/>
<path d="M1003.27 328.728C1000.66 327.797 999.706 324.609 1001.37 322.395C1003.39 319.69 1007.64 320.457 1008.59 323.701C1009.54 326.922 1006.43 329.857 1003.27 328.728Z" fill="white"/>
<path d="M1006.32 348.517C1003.83 347.724 1002.56 344.969 1003.56 342.557C1004.82 339.531 1008.81 338.856 1011 341.3C1014.02 344.681 1010.65 349.892 1006.32 348.517Z" fill="white"/>
<path d="M1014.72 362.466C1016.41 360.771 1015.9 357.907 1013.73 356.903C1010.96 355.624 1008.01 358.315 1009.04 361.189C1009.89 363.57 1012.93 364.254 1014.72 362.466Z" fill="white"/>
<path d="M1023.72 369.068C1023.72 366.856 1021.5 365.333 1019.43 366.127L1011.79 369.068L1019.43 372.009C1021.5 372.803 1023.72 371.279 1023.72 369.068Z" fill="white"/>
<path d="M997.422 379.41C997.797 377.535 997.21 375.597 995.858 374.246C993.918 372.306 990.874 372.017 988.604 373.557L969.379 386.603C967.726 387.725 966.519 389.392 965.971 391.312L965.893 391.584C965.312 393.617 965.576 395.799 966.625 397.635C967.898 399.861 970.177 401.326 972.73 401.558L981.426 402.348C985.998 402.764 990.431 400.644 992.977 396.824C993.884 395.464 994.516 393.938 994.837 392.335L997.422 379.41Z" fill="white"/>
<path d="M1001 362.189C999.542 363.16 997.838 361.359 998.889 359.958C999.787 358.761 1001.69 359.396 1001.69 360.893C1001.69 361.413 1001.43 361.9 1001 362.189Z" fill="white"/>
<path d="M946.212 393.477C945.881 393.113 945.495 392.805 945.068 392.562C940.439 389.94 935.762 395.912 939.418 399.777L946.046 406.784C948.154 409.012 951.819 408.55 953.309 405.869C954.254 404.168 954.009 402.053 952.7 400.613L946.212 393.477Z" fill="white"/>
<path d="M957.953 409.797C957.195 409.581 956.38 409.792 955.823 410.349C954.618 411.554 955.208 413.615 956.869 413.998L976.462 418.519C976.758 418.587 977.067 418.573 977.356 418.477C978.896 417.963 978.849 415.768 977.287 415.321L957.953 409.797Z" fill="white"/>
<path d="M999.702 407.654C999.204 405.828 999.24 403.898 999.804 402.093L1001.48 396.729C1002.67 392.905 1006.38 390.434 1010.37 390.797L1012.4 390.982C1013.19 391.053 1013.97 390.831 1014.6 390.358L1015.65 389.571C1016.54 388.902 1017.81 389.12 1018.43 390.048L1018.6 390.295C1018.92 390.781 1019.5 391.031 1020.07 390.935L1021.24 390.74C1022.3 390.564 1022.96 391.848 1022.2 392.605C1022 392.812 1021.72 392.928 1021.43 392.928H1007.93C1006.21 392.928 1005.01 394.606 1005.55 396.23C1005.96 397.474 1007.26 398.189 1008.54 397.871L1014.43 396.398C1015.44 396.144 1016.23 397.271 1015.66 398.139C1015.53 398.331 1015.34 398.48 1015.13 398.566L1014.5 398.818C1012.6 399.579 1011.83 401.863 1012.88 403.621L1013.15 404.078C1013.46 404.583 1013.58 405.176 1013.49 405.758L1013.41 406.38C1013.13 408.304 1010.72 409.018 1009.44 407.556C1008.18 406.111 1005.81 406.786 1005.49 408.679L1004.68 413.525C1004.55 414.349 1003.83 414.953 1003 414.953C1002.23 414.953 1001.55 414.437 1001.35 413.694L999.702 407.654Z" fill="white"/>
<path d="M1031.98 388.334C1031.98 386.65 1030.2 385.555 1028.7 386.308C1027.5 386.905 1027.08 388.402 1027.79 389.534L1030.1 393.227C1030.52 393.9 1031.51 393.853 1031.87 393.143C1031.94 393.001 1031.98 392.846 1031.98 392.688V388.334Z" fill="white"/>
<path d="M1022.41 403.94C1021.61 403.94 1020.96 403.293 1020.96 402.495C1020.96 401.448 1022.04 400.748 1023 401.173C1024.42 401.808 1023.97 403.94 1022.41 403.94Z" fill="white"/>
<path d="M1031.77 400.066C1030.84 400.182 1030.14 400.975 1030.14 401.915C1030.14 403.005 1031.07 403.863 1032.16 403.772L1036.94 403.374C1038.6 403.235 1039.34 401.212 1038.16 400.031C1037.73 399.602 1037.13 399.396 1036.53 399.471L1031.77 400.066Z" fill="white"/>
<path d="M998.94 418.165C998.94 418.925 998.323 419.541 997.563 419.541H989.582C989.121 419.541 988.692 419.311 988.436 418.928C987.826 418.014 988.482 416.788 989.582 416.788H997.563C998.323 416.788 998.94 417.405 998.94 418.165Z" fill="white"/>
<path d="M1005.13 419.421C1004.7 419.497 1004.26 419.359 1003.96 419.053C1003.12 418.217 1003.71 416.788 1004.9 416.788C1006.52 416.788 1006.72 419.14 1005.13 419.421Z" fill="white"/>
<path d="M1019.26 422.935C1020.58 421.421 1018.95 419.156 1017.1 419.929C1015.66 420.529 1015.51 422.511 1016.85 423.313C1017.64 423.786 1018.65 423.627 1019.26 422.935Z" fill="white"/>
<path d="M1047.95 400.302C1048.82 399.955 1048.83 398.728 1047.97 398.368L1044.28 396.832C1042.26 395.988 1042.08 393.184 1043.99 392.095C1045.02 391.503 1046.33 391.678 1047.17 392.521L1049.86 395.212C1051.85 397.197 1054.76 397.931 1057.45 397.125L1058.79 396.722C1061.03 396.049 1063.44 396.186 1065.59 397.108L1094.38 409.447L1099.89 407.611L1112.67 402.348C1114.43 401.625 1116.43 401.846 1117.98 402.935L1122.93 406.395C1123.76 406.98 1123.75 408.222 1122.9 408.788C1122.33 409.171 1121.56 409.095 1121.07 408.607L1118.39 405.928C1116.84 404.378 1114.29 404.52 1112.92 406.231C1112.22 407.103 1111.17 407.611 1110.05 407.611H1099.89L1094.38 409.447L1096.02 410.701C1099.08 413.039 1096.71 417.883 1092.99 416.904C1092.69 416.827 1092.39 416.788 1092.09 416.788H1078.49C1078.07 416.788 1077.65 416.758 1077.24 416.699L1067.36 415.288C1066.2 415.123 1065.55 413.877 1066.07 412.835C1066.5 411.982 1066.14 410.944 1065.28 410.533L1047.89 402.215C1047.07 401.823 1047.11 400.641 1047.95 400.302Z" fill="white"/>
<path d="M981.673 466.604C980.534 462.809 982.454 458.767 986.116 457.252L1002.93 450.293C1005.13 449.383 1007.08 447.953 1008.6 446.125L1009.72 444.781C1010.48 443.865 1011.36 443.045 1012.32 442.34L1021.52 435.59C1023.53 434.119 1026 433.431 1028.48 433.656L1030.19 433.812C1032.98 434.065 1035.66 432.731 1037.14 430.363L1037.93 429.103C1038.79 427.722 1040.31 426.883 1041.94 426.883H1045.4C1046.1 426.883 1046.66 426.321 1046.66 425.627C1046.66 424.846 1047.37 424.254 1048.13 424.39L1056.21 425.815C1058.76 426.265 1059.75 429.397 1057.92 431.226C1056.41 432.729 1056.77 435.252 1058.63 436.284L1067.47 441.196C1069.82 442.501 1072.75 442.091 1074.65 440.19C1076.55 438.288 1076.96 435.357 1075.66 433.007L1074.52 430.956C1073.76 429.595 1073.88 427.916 1074.81 426.67C1076.6 424.279 1080.3 424.671 1081.55 427.385L1083.89 432.454C1084.15 433.02 1084.49 433.55 1084.88 434.032L1096.02 447.55C1096.76 448.452 1097.61 449.262 1098.54 449.963L1109.21 457.962C1110.93 459.252 1112.34 460.903 1113.35 462.799L1115.51 466.851C1117.79 471.128 1117.82 476.255 1115.58 480.553L1109.35 492.479C1108.56 493.999 1108.15 495.688 1108.15 497.403C1108.15 502.738 1104.2 507.25 1098.91 507.955L1094.38 508.558V515.9C1097.67 515.242 1100.07 518.95 1098.12 521.68L1097.12 523.074C1095.64 525.146 1092.71 525.523 1090.76 523.893L1085.47 519.485C1084.29 518.504 1084.09 516.774 1085.01 515.549C1085.69 514.645 1086.83 514.222 1087.93 514.467L1094.38 515.9V508.558H1079.26C1074.39 508.558 1069.85 506.071 1067.24 501.963L1065.55 499.299C1065.2 498.753 1065.01 498.12 1065.01 497.474C1065.01 494.759 1061.99 493.139 1059.73 494.645L1058.75 495.299C1057.52 496.118 1055.94 496.2 1054.64 495.513L1043.69 489.754C1040.86 488.26 1037.61 487.737 1034.44 488.264L1022.42 490.267C1019.11 490.82 1016.08 492.505 1013.87 495.036C1011.92 497.268 1009.33 498.849 1006.45 499.568L994.864 502.465C993.355 502.842 991.76 502.632 990.4 501.877L986.948 499.959C985.525 499.168 985.127 497.303 986.104 496C986.666 495.25 986.797 494.262 986.449 493.392L981.225 480.332C980.223 477.827 980.193 475.039 981.14 472.513L981.507 471.534C982.1 469.953 982.158 468.222 981.673 466.604Z" fill="white"/>
<path d="M1173.3 517.735L1163.85 528.766C1162.97 529.791 1163.03 531.321 1163.98 532.276C1164.64 532.931 1165.6 533.186 1166.49 532.942L1171.59 531.551C1173.9 530.921 1175.96 529.596 1177.49 527.757L1186.11 517.417C1187.66 515.558 1187.43 512.799 1185.59 511.225C1183.84 509.72 1181.22 509.821 1179.58 511.456L1173.3 517.735Z" fill="white"/>
<path d="M1192.57 509.344C1192.57 508.875 1192.27 508.458 1191.83 508.31L1190.35 507.816C1188.57 507.223 1187.66 505.255 1188.35 503.514L1188.55 503.012C1188.78 502.436 1188.87 501.812 1188.8 501.195L1188.09 494.85C1188.03 494.246 1187.64 493.723 1187.09 493.477L1186.53 493.228C1184.97 492.535 1185.47 490.204 1187.17 490.204C1187.68 490.204 1188.16 490.451 1188.46 490.866L1191.99 495.806C1192.38 496.351 1192.85 496.833 1193.38 497.235L1194.71 498.228C1195.67 498.947 1196.92 499.127 1198.04 498.707L1199.24 498.257C1201.2 497.524 1203.23 499.153 1202.93 501.221L1202.87 501.615C1202.75 502.484 1202.11 503.191 1201.26 503.404L1200.63 503.563C1199.75 503.782 1199.24 504.703 1199.53 505.562C1199.76 506.243 1199.49 506.991 1198.88 507.371L1194.24 510.269C1193.52 510.723 1192.57 510.201 1192.57 509.344Z" fill="white"/>
<path d="M258.667 52.5102C259.923 52.0128 261.318 52.8008 261.54 54.1334C261.904 56.3146 264.945 56.5532 265.644 54.4554L266.057 53.2155C266.39 52.217 267.325 51.5434 268.377 51.5434H275.25C276.819 51.5434 278.373 51.2351 279.824 50.636L317.291 35.1603C318.977 34.4643 320.777 34.0882 322.599 34.0512L452.076 31.4267C454.431 31.3789 456.741 30.765 458.809 29.6368L461.787 28.0127C464.373 26.6021 467.323 26.002 470.255 26.2904L521.735 31.354L531.305 32.949C541.179 34.5947 543.629 47.6635 535.022 52.774C532.406 54.3273 530.572 56.9177 529.975 59.9012L525.406 82.7452L516.716 127.775C515.833 132.352 512.828 136.239 508.62 138.246L460.842 161.032C457.51 162.621 454.9 165.406 453.529 168.832L449.571 178.728C446.775 185.718 439.144 189.461 431.904 187.393L430.566 187.01C427.216 186.053 424.316 183.936 422.383 181.037L406.936 157.866C405.783 156.137 405.011 154.184 404.669 152.135L401.284 131.822C400.839 129.151 401.251 126.408 402.462 123.986C404.186 120.537 404.266 116.496 402.679 112.982L396.241 98.7266C393.866 93.4672 388.63 90.0869 382.86 90.0869H362.361C359.184 90.0869 356.093 89.0564 353.551 87.1502L352.3 86.2117C345.277 80.9441 335.231 82.9764 330.807 90.5598L326.156 98.5325C322.519 104.768 323.954 112.724 329.541 117.295L372.499 152.442C377.254 156.332 379.084 162.771 377.087 168.58L373.253 179.734C371.451 184.975 372.754 190.784 376.622 194.754L401.021 219.795C403.692 222.537 405.187 226.214 405.187 230.042V241.127C405.187 246.46 402.296 251.373 397.635 253.963L343.62 283.971C340.703 285.592 338.424 288.158 337.161 291.247L332.557 302.501C331.447 305.214 329.55 307.533 327.111 309.159L318.526 314.883C314.459 317.594 312.796 322.75 314.512 327.326L318.306 337.443C319.049 339.424 317.584 341.537 315.469 341.537C314.23 341.537 313.116 340.782 312.655 339.632L308.021 328.047C306.846 325.109 304.001 323.183 300.836 323.183H286.63C284.203 323.183 283.104 326.218 284.969 327.771L287.281 329.699C288.363 330.6 287.725 332.36 286.318 332.36C286.036 332.36 285.759 332.281 285.52 332.131L277.499 327.118C273.757 324.779 268.927 325.155 265.593 328.045L261.434 331.649C259.275 333.521 259.156 336.832 261.177 338.853C262.759 340.434 263.076 342.884 261.949 344.816L260.97 346.494C258.986 349.895 259.994 354.254 263.271 356.438L264.614 357.333C268.397 359.856 273.459 359.22 276.501 355.84L276.757 355.555C278.479 353.642 280.932 352.549 283.507 352.549H288.25C292.7 352.549 295.638 357.179 293.743 361.205C292.075 364.751 294.151 368.924 297.985 369.731L301.095 370.386C305.067 371.222 307.911 374.737 307.911 378.797C307.911 383.553 311.767 387.422 316.524 387.422H326.578C329.37 387.422 332.105 386.626 334.461 385.126L336.889 383.581C339.526 381.903 342.63 381.11 345.749 381.318L379.801 383.588C381.419 383.696 383.008 384.071 384.503 384.698L406.097 393.753C409.078 395.004 411.563 397.203 413.167 400.009L422.723 416.733C424.437 419.732 427.154 422.031 430.396 423.226L462.205 434.945C468.259 437.175 468.883 445.49 463.23 448.599C460.826 449.922 459.332 452.448 459.332 455.192V470.036C459.332 474.119 457.632 478.017 454.64 480.796L383.571 546.788C382.69 547.606 381.913 548.529 381.257 549.536L361.736 579.515C359.058 583.627 360.829 589.162 365.397 590.956C371.741 593.449 372.009 602.328 365.826 605.198L362.098 606.929C358.718 608.498 354.734 607.949 351.905 605.524L337.609 593.271C333.457 589.712 331.627 584.14 332.859 578.812L354.329 486.031C355.672 480.228 353.376 474.189 348.517 470.744L316.973 448.376C310.795 443.995 308.962 435.635 312.741 429.072L321.967 413.048C322.979 411.29 323.512 409.296 323.512 407.267C323.512 400.868 318.325 395.681 311.926 395.681H300.268C296.901 395.681 293.636 394.524 291.021 392.403L265.151 371.428C262.536 369.307 259.271 368.15 255.904 368.15H247.223C243.746 368.15 240.381 366.916 237.728 364.667L162.596 300.968C159.305 298.178 157.408 294.082 157.408 289.768V260.714C157.408 256.129 155.267 251.807 151.618 249.03L103.681 212.541C98.9798 208.962 92.5911 208.55 87.4688 211.496L64.5754 224.659C61.1471 226.631 57.0686 227.136 53.2631 226.06L27.69 218.833C21.3663 217.046 17 211.275 17 204.703V176.422C17 172.285 18.7451 168.34 21.8062 165.558L42.1947 147.023C45.4195 144.091 49.78 142.743 54.0966 143.344L116.377 152.016C118.617 152.328 120.899 152.118 123.045 151.403L143.146 144.703C147.505 143.249 150.933 139.839 152.409 135.487L166.239 94.687C167.623 90.6046 170.731 87.3365 174.738 85.7493L258.667 52.5102Z" fill="white"/>
</g>
<defs>
<filter id="filter0_d_941_1433" x="0" y="0.834473" width="1254.68" height="627.979" filterUnits="userSpaceOnUse" color-interpolation-filters="sRGB">
<feFlood flood-opacity="0" result="BackgroundImageFix"/>
<feColorMatrix in="SourceAlpha" type="matrix" values="0 0 0 0 0 0 0 0 0 0 0 0 0 0 0 0 0 0 127 0" result="hardAlpha"/>
<feOffset dy="4"/>
<feGaussianBlur stdDeviation="8.5"/>
<feComposite in2="hardAlpha" operator="out"/>
<feColorMatrix type="matrix" values="0 0 0 0 0.0508646 0 0 0 0 0.0346354 0 0 0 0 0.2375 0 0 0 0.05 0"/>
<feBlend mode="normal" in2="BackgroundImageFix" result="effect1_dropShadow_941_1433"/>
<feBlend mode="normal" in="SourceGraphic" in2="effect1_dropShadow_941_1433" result="shape"/>
</filter>
<filter id="filter1_d_941_1433" x="299.21" y="189.21" width="98.5807" height="98.5807" filterUnits="userSpaceOnUse" color-interpolation-filters="sRGB">
<feFlood flood-opacity="0" result="BackgroundImageFix"/>
<feColorMatrix in="SourceAlpha" type="matrix" values="0 0 0 0 0 0 0 0 0 0 0 0 0 0 0 0 0 0 127 0" result="hardAlpha"/>
<feOffset/>
<feGaussianBlur stdDeviation="17.8952"/>
<feComposite in2="hardAlpha" operator="out"/>
<feColorMatrix type="matrix" values="0 0 0 0 0.419965 0 0 0 0 0.831406 0 0 0 0 0.854167 0 0 0 0.6 0"/>
<feBlend mode="normal" in2="BackgroundImageFix" result="effect1_dropShadow_941_1433"/>
<feBlend mode="normal" in="SourceGraphic" in2="effect1_dropShadow_941_1433" result="shape"/>
</filter>
<filter id="filter2_d_941_1433" x="865.21" y="30.2097" width="98.5807" height="98.5807" filterUnits="userSpaceOnUse" color-interpolation-filters="sRGB">
<feFlood flood-opacity="0" result="BackgroundImageFix"/>
<feColorMatrix in="SourceAlpha" type="matrix" values="0 0 0 0 0 0 0 0 0 0 0 0 0 0 0 0 0 0 127 0" result="hardAlpha"/>
<feOffset/>
<feGaussianBlur stdDeviation="17.8952"/>
<feComposite in2="hardAlpha" operator="out"/>
<feColorMatrix type="matrix" values="0 0 0 0 0.419965 0 0 0 0 0.831406 0 0 0 0 0.854167 0 0 0 0.6 0"/>
<feBlend mode="normal" in2="BackgroundImageFix" result="effect1_dropShadow_941_1433"/>
<feBlend mode="normal" in="SourceGraphic" in2="effect1_dropShadow_941_1433" result="shape"/>
</filter>
<filter id="filter3_d_941_1433" x="674.21" y="333.21" width="98.5807" height="98.5807" filterUnits="userSpaceOnUse" color-interpolation-filters="sRGB">
<feFlood flood-opacity="0" result="BackgroundImageFix"/>
<feColorMatrix in="SourceAlpha" type="matrix" values="0 0 0 0 0 0 0 0 0 0 0 0 0 0 0 0 0 0 127 0" result="hardAlpha"/>
<feOffset/>
<feGaussianBlur stdDeviation="17.8952"/>
<feComposite in2="hardAlpha" operator="out"/>
<feColorMatrix type="matrix" values="0 0 0 0 0.419965 0 0 0 0 0.831406 0 0 0 0 0.854167 0 0 0 0.6 0"/>
<feBlend mode="normal" in2="BackgroundImageFix" result="effect1_dropShadow_941_1433"/>
<feBlend mode="normal" in="SourceGraphic" in2="effect1_dropShadow_941_1433" result="shape"/>
</filter>
<filter id="filter4_d_941_1433" x="691.21" y="86.2097" width="98.5807" height="98.5807" filterUnits="userSpaceOnUse" color-interpolation-filters="sRGB">
<feFlood flood-opacity="0" result="BackgroundImageFix"/>
<feColorMatrix in="SourceAlpha" type="matrix" values="0 0 0 0 0 0 0 0 0 0 0 0 0 0 0 0 0 0 127 0" result="hardAlpha"/>
<feOffset/>
<feGaussianBlur stdDeviation="17.8952"/>
<feComposite in2="hardAlpha" operator="out"/>
<feColorMatrix type="matrix" values="0 0 0 0 0.419965 0 0 0 0 0.831406 0 0 0 0 0.854167 0 0 0 0.6 0"/>
<feBlend mode="normal" in2="BackgroundImageFix" result="effect1_dropShadow_941_1433"/>
<feBlend mode="normal" in="SourceGraphic" in2="effect1_dropShadow_941_1433" result="shape"/>
</filter>
<filter id="filter5_d_941_1433" x="284.21" y="246.21" width="90.5807" height="90.5807" filterUnits="userSpaceOnUse" color-interpolation-filters="sRGB">
<feFlood flood-opacity="0" result="BackgroundImageFix"/>
<feColorMatrix in="SourceAlpha" type="matrix" values="0 0 0 0 0 0 0 0 0 0 0 0 0 0 0 0 0 0 127 0" result="hardAlpha"/>
<feOffset/>
<feGaussianBlur stdDeviation="17.8952"/>
<feComposite in2="hardAlpha" operator="out"/>
<feColorMatrix type="matrix" values="0 0 0 0 0.419965 0 0 0 0 0.831406 0 0 0 0 0.854167 0 0 0 0.6 0"/>
<feBlend mode="normal" in2="BackgroundImageFix" result="effect1_dropShadow_941_1433"/>
<feBlend mode="normal" in="SourceGraphic" in2="effect1_dropShadow_941_1433" result="shape"/>
</filter>
<filter id="filter6_d_941_1433" x="181.21" y="313.21" width="109.581" height="109.581" filterUnits="userSpaceOnUse" color-interpolation-filters="sRGB">
<feFlood flood-opacity="0" result="BackgroundImageFix"/>
<feColorMatrix in="SourceAlpha" type="matrix" values="0 0 0 0 0 0 0 0 0 0 0 0 0 0 0 0 0 0 127 0" result="hardAlpha"/>
<feOffset/>
<feGaussianBlur stdDeviation="17.8952"/>
<feComposite in2="hardAlpha" operator="out"/>
<feColorMatrix type="matrix" values="0 0 0 0 0.419965 0 0 0 0 0.831406 0 0 0 0 0.854167 0 0 0 0.6 0"/>
<feBlend mode="normal" in2="BackgroundImageFix" result="effect1_dropShadow_941_1433"/>
<feBlend mode="normal" in="SourceGraphic" in2="effect1_dropShadow_941_1433" result="shape"/>
</filter>
<filter id="filter7_d_941_1433" x="103.21" y="96.2097" width="93.5807" height="93.5807" filterUnits="userSpaceOnUse" color-interpolation-filters="sRGB">
<feFlood flood-opacity="0" result="BackgroundImageFix"/>
<feColorMatrix in="SourceAlpha" type="matrix" values="0 0 0 0 0 0 0 0 0 0 0 0 0 0 0 0 0 0 127 0" result="hardAlpha"/>
<feOffset/>
<feGaussianBlur stdDeviation="17.8952"/>
<feComposite in2="hardAlpha" operator="out"/>
<feColorMatrix type="matrix" values="0 0 0 0 0.419965 0 0 0 0 0.831406 0 0 0 0 0.854167 0 0 0 0.6 0"/>
<feBlend mode="normal" in2="BackgroundImageFix" result="effect1_dropShadow_941_1433"/>
<feBlend mode="normal" in="SourceGraphic" in2="effect1_dropShadow_941_1433" result="shape"/>
</filter>
<filter id="filter8_d_941_1433" x="168.21" y="101.21" width="101.581" height="101.581" filterUnits="userSpaceOnUse" color-interpolation-filters="sRGB">
<feFlood flood-opacity="0" result="BackgroundImageFix"/>
<feColorMatrix in="SourceAlpha" type="matrix" values="0 0 0 0 0 0 0 0 0 0 0 0 0 0 0 0 0 0 127 0" result="hardAlpha"/>
<feOffset/>
<feGaussianBlur stdDeviation="17.8952"/>
<feComposite in2="hardAlpha" operator="out"/>
<feColorMatrix type="matrix" values="0 0 0 0 1 0 0 0 0 1 0 0 0 0 1 0 0 0 0.6 0"/>
<feBlend mode="normal" in2="BackgroundImageFix" result="effect1_dropShadow_941_1433"/>
<feBlend mode="normal" in="SourceGraphic" in2="effect1_dropShadow_941_1433" result="shape"/>
</filter>
<filter id="filter9_d_941_1433" x="850.21" y="79.2097" width="101.581" height="101.581" filterUnits="userSpaceOnUse" color-interpolation-filters="sRGB">
<feFlood flood-opacity="0" result="BackgroundImageFix"/>
<feColorMatrix in="SourceAlpha" type="matrix" values="0 0 0 0 0 0 0 0 0 0 0 0 0 0 0 0 0 0 127 0" result="hardAlpha"/>
<feOffset/>
<feGaussianBlur stdDeviation="17.8952"/>
<feComposite in2="hardAlpha" operator="out"/>
<feColorMatrix type="matrix" values="0 0 0 0 1 0 0 0 0 1 0 0 0 0 1 0 0 0 0.6 0"/>
<feBlend mode="normal" in2="BackgroundImageFix" result="effect1_dropShadow_941_1433"/>
<feBlend mode="normal" in="SourceGraphic" in2="effect1_dropShadow_941_1433" result="shape"/>
</filter>
<filter id="filter10_d_941_1433" x="532.21" y="195.21" width="101.581" height="101.581" filterUnits="userSpaceOnUse" color-interpolation-filters="sRGB">
<feFlood flood-opacity="0" result="BackgroundImageFix"/>
<feColorMatrix in="SourceAlpha" type="matrix" values="0 0 0 0 0 0 0 0 0 0 0 0 0 0 0 0 0 0 127 0" result="hardAlpha"/>
<feOffset/>
<feGaussianBlur stdDeviation="17.8952"/>
<feComposite in2="hardAlpha" operator="out"/>
<feColorMatrix type="matrix" values="0 0 0 0 1 0 0 0 0 1 0 0 0 0 1 0 0 0 0.6 0"/>
<feBlend mode="normal" in2="BackgroundImageFix" result="effect1_dropShadow_941_1433"/>
<feBlend mode="normal" in="SourceGraphic" in2="effect1_dropShadow_941_1433" result="shape"/>
</filter>
<filter id="filter11_d_941_1433" x="744.21" y="123.21" width="101.581" height="101.581" filterUnits="userSpaceOnUse" color-interpolation-filters="sRGB">
<feFlood flood-opacity="0" result="BackgroundImageFix"/>
<feColorMatrix in="SourceAlpha" type="matrix" values="0 0 0 0 0 0 0 0 0 0 0 0 0 0 0 0 0 0 127 0" result="hardAlpha"/>
<feOffset/>
<feGaussianBlur stdDeviation="17.8952"/>
<feComposite in2="hardAlpha" operator="out"/>
<feColorMatrix type="matrix" values="0 0 0 0 1 0 0 0 0 1 0 0 0 0 1 0 0 0 0.6 0"/>
<feBlend mode="normal" in2="BackgroundImageFix" result="effect1_dropShadow_941_1433"/>
<feBlend mode="normal" in="SourceGraphic" in2="effect1_dropShadow_941_1433" result="shape"/>
</filter>
<filter id="filter12_d_941_1433" x="967.21" y="390.21" width="101.581" height="101.581" filterUnits="userSpaceOnUse" color-interpolation-filters="sRGB">
<feFlood flood-opacity="0" result="BackgroundImageFix"/>
<feColorMatrix in="SourceAlpha" type="matrix" values="0 0 0 0 0 0 0 0 0 0 0 0 0 0 0 0 0 0 127 0" result="hardAlpha"/>
<feOffset/>
<feGaussianBlur stdDeviation="17.8952"/>
<feComposite in2="hardAlpha" operator="out"/>
<feColorMatrix type="matrix" values="0 0 0 0 1 0 0 0 0 1 0 0 0 0 1 0 0 0 0.6 0"/>
<feBlend mode="normal" in2="BackgroundImageFix" result="effect1_dropShadow_941_1433"/>
<feBlend mode="normal" in="SourceGraphic" in2="effect1_dropShadow_941_1433" result="shape"/>
</filter>
<filter id="filter13_d_941_1433" x="456.21" y="63.2097" width="89.5807" height="89.5807" filterUnits="userSpaceOnUse" color-interpolation-filters="sRGB">
<feFlood flood-opacity="0" result="BackgroundImageFix"/>
<feColorMatrix in="SourceAlpha" type="matrix" values="0 0 0 0 0 0 0 0 0 0 0 0 0 0 0 0 0 0 127 0" result="hardAlpha"/>
<feOffset/>
<feGaussianBlur stdDeviation="17.8952"/>
<feComposite in2="hardAlpha" operator="out"/>
<feColorMatrix type="matrix" values="0 0 0 0 1 0 0 0 0 1 0 0 0 0 1 0 0 0 0.6 0"/>
<feBlend mode="normal" in2="BackgroundImageFix" result="effect1_dropShadow_941_1433"/>
<feBlend mode="normal" in="SourceGraphic" in2="effect1_dropShadow_941_1433" result="shape"/>
</filter>
<filter id="filter14_d_941_1433" x="379.21" y="127.21" width="98.5807" height="98.5807" filterUnits="userSpaceOnUse" color-interpolation-filters="sRGB">
<feFlood flood-opacity="0" result="BackgroundImageFix"/>
<feColorMatrix in="SourceAlpha" type="matrix" values="0 0 0 0 0 0 0 0 0 0 0 0 0 0 0 0 0 0 127 0" result="hardAlpha"/>
<feOffset/>
<feGaussianBlur stdDeviation="17.8952"/>
<feComposite in2="hardAlpha" operator="out"/>
<feColorMatrix type="matrix" values="0 0 0 0 0.631357 0 0 0 0 0.441667 0 0 0 0 1 0 0 0 0.8 0"/>
<feBlend mode="normal" in2="BackgroundImageFix" result="effect1_dropShadow_941_1433"/>
<feBlend mode="normal" in="SourceGraphic" in2="effect1_dropShadow_941_1433" result="shape"/>
</filter>
<filter id="filter15_d_941_1433" x="691.21" y="387.21" width="98.5807" height="98.5807" filterUnits="userSpaceOnUse" color-interpolation-filters="sRGB">
<feFlood flood-opacity="0" result="BackgroundImageFix"/>
<feColorMatrix in="SourceAlpha" type="matrix" values="0 0 0 0 0 0 0 0 0 0 0 0 0 0 0 0 0 0 127 0" result="hardAlpha"/>
<feOffset/>
<feGaussianBlur stdDeviation="17.8952"/>
<feComposite in2="hardAlpha" operator="out"/>
<feColorMatrix type="matrix" values="0 0 0 0 0.631357 0 0 0 0 0.441667 0 0 0 0 1 0 0 0 0.8 0"/>
<feBlend mode="normal" in2="BackgroundImageFix" result="effect1_dropShadow_941_1433"/>
<feBlend mode="normal" in="SourceGraphic" in2="effect1_dropShadow_941_1433" result="shape"/>
</filter>
<filter id="filter16_d_941_1433" x="256.21" y="210.21" width="93.5807" height="93.5807" filterUnits="userSpaceOnUse" color-interpolation-filters="sRGB">
<feFlood flood-opacity="0" result="BackgroundImageFix"/>
<feColorMatrix in="SourceAlpha" type="matrix" values="0 0 0 0 0 0 0 0 0 0 0 0 0 0 0 0 0 0 127 0" result="hardAlpha"/>
<feOffset/>
<feGaussianBlur stdDeviation="17.8952"/>
<feComposite in2="hardAlpha" operator="out"/>
<feColorMatrix type="matrix" values="0 0 0 0 0.631357 0 0 0 0 0.441667 0 0 0 0 1 0 0 0 0.8 0"/>
<feBlend mode="normal" in2="BackgroundImageFix" result="effect1_dropShadow_941_1433"/>
<feBlend mode="normal" in="SourceGraphic" in2="effect1_dropShadow_941_1433" result="shape"/>
</filter>
<filter id="filter17_d_941_1433" x="822.21" y="51.2097" width="93.5807" height="93.5807" filterUnits="userSpaceOnUse" color-interpolation-filters="sRGB">
<feFlood flood-opacity="0" result="BackgroundImageFix"/>
<feColorMatrix in="SourceAlpha" type="matrix" values="0 0 0 0 0 0 0 0 0 0 0 0 0 0 0 0 0 0 127 0" result="hardAlpha"/>
<feOffset/>
<feGaussianBlur stdDeviation="17.8952"/>
<feComposite in2="hardAlpha" operator="out"/>
<feColorMatrix type="matrix" values="0 0 0 0 0.631357 0 0 0 0 0.441667 0 0 0 0 1 0 0 0 0.8 0"/>
<feBlend mode="normal" in2="BackgroundImageFix" result="effect1_dropShadow_941_1433"/>
<feBlend mode="normal" in="SourceGraphic" in2="effect1_dropShadow_941_1433" result="shape"/>
</filter>
<filter id="filter18_d_941_1433" x="414.21" y="94.2097" width="92.5807" height="92.5807" filterUnits="userSpaceOnUse" color-interpolation-filters="sRGB">
<feFlood flood-opacity="0" result="BackgroundImageFix"/>
<feColorMatrix in="SourceAlpha" type="matrix" values="0 0 0 0 0 0 0 0 0 0 0 0 0 0 0 0 0 0 127 0" result="hardAlpha"/>
<feOffset/>
<feGaussianBlur stdDeviation="17.8952"/>
<feComposite in2="hardAlpha" operator="out"/>
<feColorMatrix type="matrix" values="0 0 0 0 0.419965 0 0 0 0 0.831406 0 0 0 0 0.854167 0 0 0 0.6 0"/>
<feBlend mode="normal" in2="BackgroundImageFix" result="effect1_dropShadow_941_1433"/>
<feBlend mode="normal" in="SourceGraphic" in2="effect1_dropShadow_941_1433" result="shape"/>
</filter>
<filter id="filter19_d_941_1433" x="918.21" y="250.21" width="117.581" height="117.581" filterUnits="userSpaceOnUse" color-interpolation-filters="sRGB">
<feFlood flood-opacity="0" result="BackgroundImageFix"/>
<feColorMatrix in="SourceAlpha" type="matrix" values="0 0 0 0 0 0 0 0 0 0 0 0 0 0 0 0 0 0 127 0" result="hardAlpha"/>
<feOffset/>
<feGaussianBlur stdDeviation="17.8952"/>
<feComposite in2="hardAlpha" operator="out"/>
<feColorMatrix type="matrix" values="0 0 0 0 0.419965 0 0 0 0 0.831406 0 0 0 0 0.854167 0 0 0 0.6 0"/>
<feBlend mode="normal" in2="BackgroundImageFix" result="effect1_dropShadow_941_1433"/>
<feBlend mode="normal" in="SourceGraphic" in2="effect1_dropShadow_941_1433" result="shape"/>
</filter>
<filter id="filter20_d_941_1433" x="638.21" y="167.21" width="106.581" height="106.581" filterUnits="userSpaceOnUse" color-interpolation-filters="sRGB">
<feFlood flood-opacity="0" result="BackgroundImageFix"/>
<feColorMatrix in="SourceAlpha" type="matrix" values="0 0 0 0 0 0 0 0 0 0 0 0 0 0 0 0 0 0 127 0" result="hardAlpha"/>
<feOffset/>
<feGaussianBlur stdDeviation="17.8952"/>
<feComposite in2="hardAlpha" operator="out"/>
<feColorMatrix type="matrix" values="0 0 0 0 0.419965 0 0 0 0 0.831406 0 0 0 0 0.854167 0 0 0 0.6 0"/>
<feBlend mode="normal" in2="BackgroundImageFix" result="effect1_dropShadow_941_1433"/>
<feBlend mode="normal" in="SourceGraphic" in2="effect1_dropShadow_941_1433" result="shape"/>
</filter>
<filter id="filter21_d_941_1433" x="977.21" y="57.2097" width="106.581" height="106.581" filterUnits="userSpaceOnUse" color-interpolation-filters="sRGB">
<feFlood flood-opacity="0" result="BackgroundImageFix"/>
<feColorMatrix in="SourceAlpha" type="matrix" values="0 0 0 0 0 0 0 0 0 0 0 0 0 0 0 0 0 0 127 0" result="hardAlpha"/>
<feOffset/>
<feGaussianBlur stdDeviation="17.8952"/>
<feComposite in2="hardAlpha" operator="out"/>
<feColorMatrix type="matrix" values="0 0 0 0 0.419965 0 0 0 0 0.831406 0 0 0 0 0.854167 0 0 0 0.6 0"/>
<feBlend mode="normal" in2="BackgroundImageFix" result="effect1_dropShadow_941_1433"/>
<feBlend mode="normal" in="SourceGraphic" in2="effect1_dropShadow_941_1433" result="shape"/>
</filter>
</defs>
</svg>
