<svg width="12" height="12" viewBox="0 0 12 12" fill="none" xmlns="http://www.w3.org/2000/svg">
<path d="M11.0586 6.4824C10.9705 7.43563 10.6128 8.34407 10.0272 9.1014C9.44169 9.85874 8.65257 10.4336 7.75221 10.7589C6.85185 11.0841 5.87749 11.1461 4.94314 10.9378C4.00879 10.7295 3.15309 10.2593 2.47618 9.58243C1.79927 8.90552 1.32914 8.04983 1.1208 7.11548C0.912467 6.18113 0.974538 5.20677 1.29975 4.30641C1.62497 3.40605 2.19988 2.61693 2.95722 2.03138C3.71455 1.44584 4.62298 1.08809 5.57622 1C5.01813 1.75503 4.74957 2.68529 4.81939 3.62159C4.88922 4.55789 5.29278 5.43803 5.95668 6.10194C6.62058 6.76584 7.50072 7.1694 8.43703 7.23922C9.37333 7.30904 10.3036 7.04049 11.0586 6.4824Z" stroke="#0F73EF" stroke-linecap="round" stroke-linejoin="round"/>
</svg>
