<svg width="190" height="190" viewBox="0 0 190 190" fill="none" xmlns="http://www.w3.org/2000/svg">
<path fill-rule="evenodd" clip-rule="evenodd" d="M95 190C147.467 190 190 147.467 190 95C190 42.5329 147.467 0 95 0C42.5329 0 0 42.5329 0 95C0 147.467 42.5329 190 95 190ZM91.3603 9.97573C91.3469 9.57143 91.0083 9.25455 90.604 9.26795C90.1997 9.28135 89.8828 9.61997 89.8962 10.0243L90.2863 21.7911C90.2997 22.1954 90.6383 22.5123 91.0426 22.4989C91.4469 22.4855 91.7638 22.1469 91.7504 21.7426L91.3603 9.97573ZM99.1451 10.1177C99.1661 9.71373 98.8558 9.36915 98.4518 9.34807C98.0478 9.32699 97.7032 9.63738 97.6822 10.0414L97.0663 21.8427C97.0452 22.2467 97.3556 22.5912 97.7596 22.6123C98.1635 22.6334 98.5081 22.323 98.5292 21.919L99.1451 10.1177ZM83.5936 10.5257C83.5459 10.1241 83.1815 9.83714 82.7798 9.8849C82.3781 9.93266 82.0912 10.297 82.139 10.6987L83.534 22.4311C83.5817 22.8327 83.9461 23.1197 84.3478 23.0719C84.7495 23.0241 85.0364 22.6598 84.9886 22.2581L83.5936 10.5257ZM106.888 10.9437C106.943 10.543 106.663 10.1735 106.262 10.1185C105.861 10.0634 105.492 10.3437 105.437 10.7445L103.812 22.5804C103.757 22.9812 104.037 23.3507 104.438 23.4057C104.839 23.4607 105.208 23.1804 105.263 22.7797L106.888 10.9437ZM75.9027 11.7601C75.8213 11.3638 75.4341 11.1086 75.0378 11.19C74.6416 11.2714 74.3864 11.6586 74.4678 12.0548L76.8708 23.7526C76.9522 24.1489 77.3394 24.4041 77.7356 24.3227C78.1319 24.2413 78.3871 23.8541 78.3057 23.4578L75.9027 11.7601ZM115.835 12.1769C115.938 11.7858 115.705 11.385 115.314 11.2816C114.923 11.1783 114.522 11.4115 114.419 11.8026L111.402 23.2153C111.299 23.6064 111.532 24.0072 111.923 24.1106C112.315 24.2139 112.715 23.9807 112.819 23.5896L115.835 12.1769ZM68.3488 13.6708C68.2352 13.2826 67.8283 13.06 67.4401 13.1737C67.0519 13.2873 66.8293 13.6941 66.9429 14.0824L70.3571 25.7455C70.4707 26.1337 70.8775 26.3563 71.2658 26.2426C71.654 26.129 71.8766 25.7221 71.763 25.3339L68.3488 13.6708ZM123.241 14.6185C123.377 14.2377 123.179 13.8184 122.798 13.6821C122.417 13.5457 121.998 13.7439 121.862 14.1247L117.901 25.1874C117.765 25.5683 117.963 25.9875 118.344 26.1239C118.724 26.2602 119.144 26.062 119.28 25.6812L123.241 14.6185ZM60.99 16.2452C60.8458 15.8673 60.4226 15.6777 60.0446 15.8219C59.6667 15.966 59.4771 16.3892 59.6212 16.7672L64.0558 28.3953C64.1999 28.7733 64.6232 28.9628 65.0011 28.8187C65.3791 28.6745 65.5687 28.2513 65.4245 27.8733L60.99 16.2452ZM130.409 17.7105C130.578 17.3427 130.416 16.908 130.048 16.7396C129.681 16.5711 129.246 16.7327 129.078 17.1005L124.171 27.8128C124.003 28.1806 124.164 28.6153 124.532 28.7837C124.9 28.9522 125.334 28.7906 125.503 28.4228L130.409 17.7105ZM53.8792 19.4601C53.7067 19.0942 53.2702 18.9374 52.9043 19.1099C52.5384 19.2824 52.3816 19.7188 52.5541 20.0847L58.0194 31.6775C58.1919 32.0434 58.6283 32.2001 58.9942 32.0276C59.3601 31.8551 59.5169 31.4187 59.3444 31.0528L53.8792 19.4601ZM137.288 21.4204C137.487 21.0682 137.362 20.6214 137.01 20.4224C136.658 20.2233 136.211 20.3475 136.012 20.6997L130.157 31.0605C129.958 31.4127 130.082 31.8595 130.434 32.0585C130.787 32.2576 131.233 32.1334 131.432 31.7812L137.288 21.4204ZM47.7417 23.9991C47.514 23.6648 47.0583 23.5784 46.724 23.8061C46.3897 24.0339 46.3033 24.4895 46.531 24.8238L53.2228 34.6466C53.4506 34.9809 53.9062 35.0673 54.2405 34.8395C54.5749 34.6118 54.6612 34.1561 54.4335 33.8218L47.7417 23.9991ZM143.469 24.8238C143.697 24.4895 143.61 24.0339 143.276 23.8061C142.942 23.5784 142.486 23.6648 142.258 23.9991L135.567 33.8218C135.339 34.1561 135.425 34.6118 135.759 34.8395C136.094 35.0673 136.549 34.9809 136.777 34.6466L143.469 24.8238ZM41.4972 28.7293C41.2418 28.4156 40.7805 28.3684 40.4668 28.6238C40.1531 28.8792 40.1058 29.3406 40.3613 29.6543L47.7719 38.7558C48.0273 39.0695 48.4886 39.1168 48.8023 38.8613C49.116 38.6059 49.1633 38.1446 48.9079 37.8309L41.4972 28.7293ZM149.639 29.6543C149.894 29.3406 149.847 28.8792 149.533 28.6238C149.22 28.3684 148.758 28.4156 148.503 28.7293L141.092 37.8309C140.837 38.1446 140.884 38.6059 141.198 38.8613C141.511 39.1168 141.973 39.0695 142.228 38.7558L149.639 29.6543ZM35.6782 33.9911C35.3967 33.7006 34.933 33.6935 34.6425 33.975C34.3521 34.2566 34.3449 34.7203 34.6265 35.0107L42.7538 43.3934C43.0354 43.6838 43.4991 43.691 43.7895 43.4094C44.0799 43.1278 44.0871 42.6641 43.8055 42.3737L35.6782 33.9911ZM155.373 35.0107C155.655 34.7203 155.648 34.2566 155.357 33.975C155.067 33.6935 154.603 33.7006 154.322 33.9911L146.195 42.3737C145.913 42.6641 145.92 43.1278 146.211 43.4094C146.501 43.691 146.965 43.6838 147.246 43.3934L155.373 35.0107ZM30.3332 39.7493C30.0275 39.4844 29.5649 39.5174 29.3 39.8231C29.0351 40.1288 29.0681 40.5914 29.3738 40.8563L38.2169 48.5207C38.5226 48.7857 38.9852 48.7526 39.2501 48.4469C39.5151 48.1413 39.482 47.6787 39.1764 47.4137L30.3332 39.7493ZM160.626 40.8563C160.932 40.5914 160.965 40.1288 160.7 39.8231C160.435 39.5174 159.973 39.4844 159.667 39.7493L150.824 47.4137C150.518 47.6787 150.485 48.1413 150.75 48.4469C151.015 48.7526 151.477 48.7857 151.783 48.5207L160.626 40.8563ZM25.4988 45.9578C25.1715 45.7201 24.7135 45.7927 24.4757 46.12C24.238 46.4473 24.3107 46.9054 24.638 47.1431L34.1992 54.0871C34.5265 54.3248 34.9846 54.2522 35.2223 53.9249C35.46 53.5976 35.3874 53.1395 35.0601 52.9018L25.4988 45.9578ZM165.362 47.1431C165.689 46.9054 165.762 46.4473 165.524 46.12C165.287 45.7927 164.829 45.7201 164.501 45.9578L154.94 52.9018C154.613 53.1395 154.54 53.5976 154.778 53.9249C155.015 54.2522 155.473 54.3248 155.801 54.0871L165.362 47.1431ZM21.2167 52.5698C20.8706 52.3604 20.4203 52.4712 20.2109 52.8173C20.0015 53.1634 20.1123 53.6137 20.4584 53.8232L30.7399 60.0445C31.086 60.254 31.5364 60.1432 31.7458 59.7971C31.9552 59.451 31.8444 59.0006 31.4983 58.7912L21.2167 52.5698ZM169.542 53.8232C169.888 53.6137 169.999 53.1634 169.789 52.8173C169.58 52.4712 169.129 52.3604 168.783 52.5698L158.502 58.7912C158.156 59.0006 158.045 59.451 158.254 59.7971C158.464 60.1432 158.914 60.254 159.26 60.0445L169.542 53.8232ZM17.5195 59.5353C17.1575 59.3548 16.7177 59.5018 16.5371 59.8638C16.3565 60.2257 16.5035 60.6656 16.8655 60.8462L27.874 66.3383C28.236 66.5189 28.6758 66.3718 28.8564 66.0099C29.037 65.6479 28.89 65.208 28.528 65.0275L17.5195 59.5353ZM173.135 60.8462C173.496 60.6656 173.644 60.2257 173.463 59.8638C173.282 59.5018 172.843 59.3548 172.481 59.5353L161.472 65.0275C161.11 65.208 160.963 65.6479 161.144 66.0099C161.324 66.3718 161.764 66.5189 162.126 66.3383L173.135 60.8462ZM14.4324 66.8023C14.0574 66.6505 13.6304 66.8314 13.4785 67.2063C13.3267 67.5813 13.5076 68.0083 13.8825 68.1601L25.6253 72.9156C26.0002 73.0674 26.4273 72.8866 26.5791 72.5116C26.731 72.1367 26.5501 71.7097 26.1752 71.5578L14.4324 66.8023ZM176.118 68.1601C176.492 68.0083 176.673 67.5813 176.521 67.2063C176.37 66.8314 175.943 66.6505 175.568 66.8023L163.825 71.5578C163.45 71.7097 163.269 72.1367 163.421 72.5116C163.573 72.8866 164 73.0674 164.375 72.9156L176.118 68.1601ZM12.165 74.9065C11.7701 74.8188 11.3789 75.068 11.2913 75.4629C11.2037 75.8578 11.4528 76.249 11.8478 76.3366L23.3265 78.8829C23.7214 78.9705 24.1126 78.7213 24.2002 78.3264C24.2878 77.9315 24.0386 77.5403 23.6437 77.4527L12.165 74.9065ZM178.152 76.3366C178.547 76.249 178.796 75.8578 178.709 75.4629C178.621 75.068 178.23 74.8188 177.835 74.9065L166.356 77.4527C165.961 77.5403 165.712 77.9315 165.8 78.3264C165.887 78.7213 166.279 78.9705 166.674 78.8829L178.152 76.3366ZM10.7642 82.6965C10.3632 82.6435 9.99516 82.9258 9.94225 83.3268C9.88933 83.7279 10.1715 84.0959 10.5726 84.1488L22.0939 85.669C22.495 85.7219 22.863 85.4397 22.9159 85.0386C22.9688 84.6376 22.6866 84.2696 22.2856 84.2166L10.7642 82.6965ZM179.427 84.1488C179.828 84.0959 180.111 83.7279 180.058 83.3268C180.005 82.9258 179.637 82.6435 179.236 82.6965L167.714 84.2166C167.313 84.2696 167.031 84.6376 167.084 85.0386C167.137 85.4397 167.505 85.7219 167.906 85.669L179.427 84.1488ZM10.0315 90.5811C9.62732 90.5637 9.2856 90.8772 9.26823 91.2814C9.25085 91.6855 9.56439 92.0272 9.96853 92.0446L21.5324 92.5418C21.9365 92.5592 22.2783 92.2457 22.2956 91.8415C22.313 91.4374 21.9995 91.0957 21.5953 91.0783L10.0315 90.5811ZM180.031 92.0446C180.436 92.0272 180.749 91.6855 180.732 91.2814C180.714 90.8772 180.373 90.5637 179.969 90.5811L168.405 91.0783C168.001 91.0957 167.687 91.4374 167.704 91.8415C167.722 92.2457 168.063 92.5592 168.468 92.5418L180.031 92.0446ZM21.6508 99.4389C22.0549 99.4206 22.3677 99.0782 22.3495 98.6741C22.3312 98.27 21.9888 97.9572 21.5847 97.9755L9.97834 98.5001C9.57423 98.5184 9.26145 98.8608 9.27971 99.2649C9.29798 99.669 9.64038 99.9818 10.0445 99.9635L21.6508 99.4389ZM168.415 97.9755C168.011 97.9572 167.669 98.27 167.651 98.6741C167.632 99.0782 167.945 99.4206 168.349 99.4389L179.956 99.9635C180.36 99.9818 180.702 99.669 180.72 99.2649C180.739 98.8608 180.426 98.5184 180.022 98.5001L168.415 97.9755ZM22.4429 106.297C22.8439 106.244 23.1257 105.876 23.0724 105.475C23.019 105.074 22.6507 104.792 22.2497 104.845L10.6008 106.395C10.1998 106.448 9.91799 106.817 9.97134 107.218C10.0247 107.619 10.393 107.9 10.794 107.847L22.4429 106.297ZM167.75 104.845C167.349 104.792 166.981 105.074 166.928 105.475C166.874 105.876 167.156 106.244 167.557 106.297L179.206 107.847C179.607 107.9 179.975 107.619 180.029 107.218C180.082 106.817 179.8 106.448 179.399 106.395L167.75 104.845ZM23.9056 113.055C24.3006 112.967 24.5502 112.577 24.4631 112.182C24.376 111.787 23.9852 111.537 23.5901 111.624L11.8985 114.202C11.5035 114.289 11.2538 114.68 11.3409 115.075C11.428 115.47 11.8189 115.72 12.2139 115.632L23.9056 113.055ZM166.41 111.624C166.015 111.537 165.624 111.787 165.537 112.182C165.45 112.577 165.699 112.967 166.094 113.055L177.786 115.632C178.181 115.72 178.572 115.47 178.659 115.075C178.746 114.68 178.497 114.289 178.102 114.202L166.41 111.624ZM26.0268 119.647C26.4133 119.527 26.6302 119.118 26.5111 118.731C26.392 118.344 25.982 118.127 25.5954 118.247L13.8607 121.862C13.4741 121.981 13.2572 122.391 13.3763 122.778C13.4954 123.164 13.9054 123.381 14.292 123.262L26.0268 119.647ZM164.405 118.247C164.018 118.127 163.608 118.344 163.489 118.731C163.37 119.118 163.587 119.527 163.973 119.647L175.708 123.262C176.095 123.381 176.505 123.164 176.624 122.778C176.743 122.391 176.526 121.981 176.139 121.862L164.405 118.247ZM28.7893 126.017C29.1655 125.868 29.3496 125.443 29.2007 125.067C29.0518 124.691 28.6262 124.506 28.25 124.655L16.4717 129.319C16.0956 129.468 15.9114 129.894 16.0604 130.27C16.2093 130.646 16.6349 130.83 17.011 130.681L28.7893 126.017ZM161.75 124.655C161.374 124.506 160.948 124.691 160.799 125.067C160.65 125.443 160.835 125.868 161.211 126.017L172.989 130.681C173.365 130.83 173.791 130.646 173.94 130.27C174.089 129.894 173.904 129.468 173.528 129.319L161.75 124.655Z" fill="#1C1A23"/>
</svg>
