<svg width="224" height="104" viewBox="0 0 224 104" fill="none" xmlns="http://www.w3.org/2000/svg">
<path d="M2 100.979C1.43585 100.979 0.978516 101.436 0.978516 102C0.978516 102.564 1.43585 103.021 2 103.021V100.979ZM2 0.978516C1.43585 0.978516 0.978516 1.43584 0.978516 1.99999C0.978516 2.56414 1.43585 3.02148 2 3.02148V0.978516ZM222 1.99999H223.021C223.021 1.43584 222.564 0.978516 222 0.978516V1.99999ZM99.5897 103.021C100.154 103.021 100.611 102.564 100.611 102C100.611 101.436 100.154 100.979 99.5897 100.979V103.021ZM220.979 16.24C220.979 16.8041 221.436 17.2614 222 17.2614C222.564 17.2614 223.021 16.8041 223.021 16.24H220.979ZM2 3.02148H222V0.978516H2V3.02148ZM2 103.021H99.5897V100.979H2V103.021ZM220.979 1.99999V16.24H223.021V1.99999H220.979Z" fill="url(#paint0_linear_941_1523)"/>
<defs>
<linearGradient id="paint0_linear_941_1523" x1="112" y1="102" x2="245" y2="-4" gradientUnits="userSpaceOnUse">
<stop stop-color="#14BDFE"/>
<stop offset="1" stop-color="#495AFF"/>
</linearGradient>
</defs>
</svg>
