<svg width="36" height="36" viewBox="0 0 36 36" fill="none" xmlns="http://www.w3.org/2000/svg">
<path fill-rule="evenodd" clip-rule="evenodd" d="M18 36C27.9411 36 36 27.9411 36 18C36 8.05887 27.9411 0 18 0C8.05887 0 0 8.05887 0 18C0 27.9411 8.05887 36 18 36ZM21.4319 9.00123C23.147 9.29482 24.7873 9.80741 26.317 10.5032C26.3303 10.5088 26.3416 10.5183 26.3482 10.5315C29.0585 14.4831 30.3971 18.9407 29.8967 24.0724C29.8948 24.0941 29.8834 24.1139 29.8654 24.1271C27.8126 25.6215 25.8241 26.5287 23.8631 27.13C23.8319 27.1395 23.7978 27.1282 23.7789 27.1017C23.3258 26.4768 22.9143 25.8178 22.5538 25.1259C22.533 25.0853 22.552 25.0362 22.5945 25.0202C23.2482 24.7757 23.8697 24.483 24.4676 24.1366C24.5149 24.1092 24.5177 24.0422 24.4742 24.0101C24.3475 23.9166 24.2216 23.8184 24.1015 23.7203C24.0788 23.7023 24.0485 23.6985 24.023 23.7108C20.1415 25.4884 15.8893 25.4884 11.9615 23.7108C11.936 23.6995 11.9057 23.7033 11.884 23.7212C11.7638 23.8194 11.638 23.9166 11.5122 24.0101C11.4687 24.0422 11.4724 24.1092 11.5197 24.1366C12.1176 24.4764 12.7391 24.7757 13.3919 25.0211C13.4344 25.0372 13.4543 25.0853 13.4335 25.1259C13.0806 25.8188 12.6691 26.4777 12.2075 27.1027C12.1876 27.1282 12.1545 27.1395 12.1233 27.13C10.1717 26.5287 8.18321 25.6215 6.1304 24.1271C6.11337 24.1139 6.10107 24.0932 6.09918 24.0715C5.68105 19.6327 6.53339 15.1382 9.64479 10.5305C9.65233 10.5183 9.66368 10.5088 9.67694 10.5032C11.2076 9.80647 12.8479 9.29388 14.562 9.00123C14.5933 8.99651 14.6245 9.01067 14.6406 9.03805C14.8525 9.40998 15.0946 9.88672 15.2583 10.2766C17.0652 10.0028 18.9004 10.0028 20.7451 10.2766C20.9087 9.8952 21.1424 9.40998 21.3534 9.03805C21.3695 9.00973 21.4007 8.99557 21.4319 9.00123ZM11.8631 18.9709C11.8631 20.2926 12.8375 21.3687 14.02 21.3687C15.2214 21.3687 16.1769 20.2926 16.1769 18.9709C16.1958 17.6588 15.2309 16.5732 14.02 16.5732C12.8186 16.5732 11.8631 17.6493 11.8631 18.9709ZM19.8379 18.9709C19.8379 20.2926 20.8123 21.3687 21.9947 21.3687C23.2056 21.3687 24.1516 20.2926 24.1516 18.9709C24.1705 17.6588 23.2056 16.5732 21.9947 16.5732C20.7933 16.5732 19.8379 17.6493 19.8379 18.9709Z" fill="white"/>
</svg>
