<svg width="36" height="36" viewBox="0 0 36 36" fill="none" xmlns="http://www.w3.org/2000/svg">
<path fill-rule="evenodd" clip-rule="evenodd" d="M18 36C27.9411 36 36 27.9411 36 18C36 8.05887 27.9411 0 18 0C8.05887 0 0 8.05887 0 18C0 27.9411 8.05887 36 18 36ZM27.582 13.212C27.352 12.3414 26.6744 11.6555 25.8139 11.4228C24.2542 11 17.9999 11 17.9999 11C17.9999 11 11.7458 11 10.1861 11.4228C9.3256 11.6555 8.64798 12.3414 8.41799 13.212C8 14.7904 8 18.0833 8 18.0833C8 18.0833 8 21.3762 8.41799 22.9545C8.64798 23.8251 9.3256 24.5111 10.1861 24.7437C11.7458 25.1667 17.9999 25.1667 17.9999 25.1667C17.9999 25.1667 24.2542 25.1667 25.8139 24.7437C26.6744 24.5111 27.352 23.8251 27.582 22.9545C28 21.3762 28 18.0833 28 18.0833C28 18.0833 28 14.7904 27.582 13.212ZM16 21.119L21.1959 18.0834L16 15.0475V21.119Z" fill="white"/>
</svg>
