<svg width="853" height="802" viewBox="0 0 853 802" fill="none" xmlns="http://www.w3.org/2000/svg">
<g opacity="0.1">
<path d="M396.91 -51.207C400.48 -46.2052 404.084 -40.7225 407.723 -34.759C411.57 -28.0483 415.586 -21.1336 419.771 -14.0147C424.427 -6.88896 429.377 0.0292512 434.621 6.73992C440.557 12.6619 446.877 18.0443 453.581 22.887C461.115 26.5329 469.078 29.5977 477.469 32.0813C486.712 33.631 496.37 34.8901 506.443 35.8587C517.277 36.7165 528.45 37.7646 539.962 39.003C552.02 41.0785 564.289 43.7454 576.77 47.0039C589.499 51.6391 602.267 56.9523 615.073 62.9435C627.767 70.09 640.314 77.6205 652.711 85.5349C664.638 93.7053 676.236 101.724 687.506 109.59C697.973 116.605 707.97 122.983 717.497 128.725C725.985 132.938 733.914 136.366 741.281 139.009C753.105 146.308 750.535 156.786 733.571 170.442C722.294 178.647 712.733 186.852 704.888 195.057C701.505 203.255 700.564 211.457 702.066 219.662C708.271 227.867 716.421 236.068 726.515 244.266C739.196 252.471 752.351 260.676 765.979 268.881C778.778 277.079 790.342 285.281 800.671 293.486C807.174 301.691 811.346 309.893 813.186 318.091C810.128 326.296 804.822 334.497 797.267 342.695C786.184 350.9 774.057 359.105 760.884 367.31C747.325 375.508 734.457 383.71 722.281 391.915C713.052 400.12 705.898 408.321 700.82 416.519C700.544 424.724 702.688 432.929 707.254 441.134C716.068 449.333 726.438 457.534 738.365 465.739C751.849 473.937 765.243 482.139 778.546 490.344C789.941 498.549 799.644 506.75 807.655 514.948C811.245 523.153 812.39 531.355 811.09 539.553C800.789 547.211 789.979 556.219 778.661 566.576C766.498 578.779 754.001 591.353 741.167 604.297C727.871 616.729 714.442 628.314 700.883 639.051C687.281 647.138 673.756 653.603 660.307 658.446C647.225 659.913 634.406 659.875 621.849 658.332C609.991 654.568 598.541 650.258 587.5 645.402C577.365 640.753 567.721 636.854 558.568 633.706C550.411 633.132 542.75 634.218 535.582 636.965C529.37 643.281 523.596 651.258 518.263 660.895C513.703 673.119 509.476 686.081 505.581 699.779C502.192 713.608 498.985 726.812 495.962 739.389C485.529 754.81 475.899 760.016 467.071 755.007C462.422 749.092 457.438 743.658 452.118 738.704C446.106 736.041 439.734 735.041 433.002 735.705C424.002 732.038 414.735 730.26 405.202 730.371C395.239 733.602 385.115 737.839 374.827 743.083C364.332 748.964 353.799 754.436 343.228 759.5C332.692 762.434 322.225 763.803 311.827 763.61C301.671 759.742 291.677 754.035 281.846 746.487C272.41 735.771 263.198 723.951 254.212 711.028C245.688 697.15 237.411 683.493 229.379 670.058C221.817 658.353 214.477 648.034 207.358 639.103C200.647 633.575 194.113 629.815 187.755 627.822C181.674 629.012 175.697 631.378 169.823 634.921C164.074 639.68 158.353 644.398 152.659 649.075C141.064 651.753 129.248 649.978 117.21 643.752C110.818 635.049 104.297 625.114 97.6491 613.948C90.7378 601.336 83.6985 588.613 76.5312 575.78C69.1218 563.929 61.6086 553.109 53.9917 543.32C54.1162 535.08 54.0055 526.841 53.6596 518.601C52.8917 510.369 51.9577 502.132 50.8577 493.893C49.5709 485.653 48.2772 477.414 46.9766 469.174C45.8282 460.934 44.8285 452.698 43.9776 444.466C43.5417 436.226 43.3342 427.986 43.3549 419.747C43.8461 411.507 44.5379 403.271 45.4304 395.038C46.6065 386.799 47.8483 378.559 49.1559 370.32C50.4219 362.08 51.5911 353.84 52.6634 345.601C53.3898 337.361 53.9017 329.125 54.1992 320.892C54.0194 312.653 53.6146 304.413 52.9851 296.174C51.9889 287.934 50.875 279.695 49.6436 271.455C48.3291 263.222 47.0596 254.986 45.8351 246.747C44.8596 238.507 44.0744 230.267 43.4795 222.028C43.3342 213.788 43.4241 205.552 43.7493 197.319C44.5103 189.08 45.4339 180.84 46.52 172.601C47.7999 164.361 49.0901 156.121 50.3908 147.882C58.6234 146.789 66.908 146.17 75.2444 146.024C83.6362 146.225 92.028 146.277 100.42 146.18C108.742 145.204 117.003 143.568 125.201 141.271C133.212 137.411 141.106 132.766 148.882 127.335C156.36 120.534 163.676 113.256 170.83 105.501C177.631 97.3028 184.251 89.1739 190.692 81.1142C196.78 73.7186 202.706 66.873 208.468 60.5774C219.081 52.7114 229.448 46.6476 239.569 42.386C249.732 40.4281 260.186 37.7854 270.93 34.4577C276.872 31.0955 283.047 27.1175 289.453 22.5238C296.385 16.8025 303.604 10.6418 311.111 4.04182C319.219 -3.07011 327.635 -10.2305 336.359 -17.4392C345.677 -24.309 355.276 -30.8364 365.156 -37.0212C380.929 -44.3684 391.514 -49.097 396.91 -51.207Z" stroke="#05EDFD" stroke-width="2" stroke-linecap="round" stroke-dasharray="5 5"/>
<path opacity="0.97" d="M414.757 -38.6787C418.292 -33.5469 421.947 -27.9351 425.72 -21.8433C429.849 -14.9844 434.221 -7.89331 438.837 -0.570038C444.055 6.85817 449.628 14.1379 455.554 21.2693C462.262 27.7414 469.388 33.7401 476.933 39.2656C485.331 43.7 494.142 47.5844 503.367 50.9188C513.373 53.3096 523.72 55.3743 534.41 57.1129C545.665 58.6001 557.125 60.1918 568.788 61.8881C580.705 64.2264 592.655 67.0698 604.639 70.4185C616.521 75.0222 628.266 80.2925 639.873 86.2293C651.047 93.3908 661.938 101.032 672.545 109.152C682.471 117.793 692.007 126.441 701.155 135.096C709.452 143.234 717.295 150.868 724.685 157.999C731.158 163.761 737.16 168.737 742.69 172.927C749.334 180.81 744.093 190.368 726.968 201.603C716.944 208.906 708.732 216.338 702.332 223.897C700.252 231.761 700.428 239.78 702.862 247.955C709.442 256.429 717.662 265.019 727.521 273.725C739.394 282.572 751.524 291.435 763.909 300.311C775.216 309.119 785.272 317.838 794.074 326.469C799.233 334.844 802.222 343.061 803.041 351.122C799.353 358.873 793.601 366.478 785.786 373.937C774.72 381.167 762.668 388.324 749.63 395.408C736.142 402.467 723.206 409.566 710.823 416.703C700.986 424.02 692.988 431.463 686.83 439.032C685.025 446.915 685.471 454.957 688.166 463.157C694.975 471.648 703.388 480.248 713.405 488.958C725.355 497.811 737.508 506.678 749.865 515.56C761.069 524.36 770.976 533.069 779.586 541.686C784.504 550.036 787.234 558.236 787.776 566.285C778.317 575.611 768.277 585.757 757.656 596.722C746.066 608.34 734.093 619.73 721.738 630.892C708.857 640.553 695.832 649.022 682.662 656.298C669.422 660.628 656.254 663.396 643.158 664.602C630.356 662.922 617.772 660.114 605.407 656.177C593.569 650.945 582.026 645.63 570.776 640.232C560.161 635.849 549.873 632.509 539.909 630.211C530.596 630.789 521.62 633.024 512.981 636.916C505.012 644.108 497.386 652.721 490.103 662.756C483.517 674.817 477.281 687.333 471.393 700.303C466.188 712.947 461.314 724.82 456.773 735.922C445.217 747.251 435.8 749.743 428.521 743.397C421.172 733.828 412.807 727.347 403.427 723.953C393.916 719.655 384.127 717.102 374.058 716.295C363.569 718.399 352.962 721.483 342.238 725.547C331.473 730.378 320.79 734.941 310.188 739.235C299.924 741.792 289.907 743 280.139 742.859C270.968 739.438 262.137 734.314 253.644 727.487C245.82 717.559 238.323 706.451 231.151 694.162C224.551 680.561 218.186 666.91 212.057 653.211C206.287 640.618 200.628 629.109 195.079 618.682C189.652 611.17 184.24 605.299 178.844 601.069C167.856 602.583 156.741 606.724 145.5 613.491C133.933 618.293 122.316 619.634 110.647 617.514C104.757 611.245 98.832 603.556 92.8719 594.445C86.8043 583.122 80.6568 571.162 74.4293 558.565C67.9931 545.78 61.4349 533.448 54.7546 521.568C55.1899 513.526 55.3836 505.467 55.3358 497.391C54.8676 489.278 54.2541 481.159 53.4955 473.032C52.6058 464.897 51.7402 456.763 50.8988 448.631C50.2714 440.514 49.8268 432.41 49.565 424.318C49.7657 416.26 50.2182 408.219 50.9227 400.196C52.124 392.208 53.5289 384.234 55.1373 376.275C57.0356 368.336 58.9961 360.401 61.0186 352.471C62.9928 344.537 64.8532 336.596 66.5997 328.646C67.9873 320.671 69.1406 312.676 70.0594 304.661C70.4671 296.617 70.6332 288.556 70.5579 280.478C70.0684 272.371 69.4375 264.253 68.6651 256.126C67.7753 247.991 66.9132 239.857 66.0787 231.725C65.4719 223.61 65.048 215.507 64.807 207.417C65.0353 199.361 65.5189 191.322 66.2578 183.301C67.4798 175.315 68.9089 167.343 70.5449 159.385C72.4502 151.447 74.4175 143.513 76.4469 135.583C84.4329 136.125 92.4726 136.841 100.566 137.731C108.761 138.357 117.005 138.585 125.298 138.414C133.658 136.999 142.035 134.84 150.431 131.936C158.789 127.49 167.103 122.358 175.371 116.54C183.464 109.662 191.431 102.498 199.274 95.0474C206.787 87.5321 214.111 80.2497 221.246 73.2001C227.949 67.0426 234.43 61.49 240.688 56.5425C251.779 51.1173 262.377 47.2179 272.483 44.8442C281.913 43.6921 291.479 41.6479 301.18 38.7117C306.471 35.4853 311.962 31.6766 317.653 27.2855C323.818 21.8807 330.246 16.0955 336.937 9.93009C344.196 3.37477 351.742 -3.17072 359.575 -9.70636C367.983 -15.8339 376.662 -21.592 385.615 -26.9807C400.069 -33.0911 409.783 -36.9905 414.757 -38.6787Z" stroke="#05EDFD" stroke-width="2" stroke-linecap="round"/>
<path opacity="0.94" d="M433.117 -25.4342C437.008 -20.1033 441.065 -14.2879 445.287 -7.98788C449.946 -0.878238 454.875 6.49673 460.073 14.137C465.908 21.9723 472.102 29.7187 478.654 37.3761C485.979 44.5072 493.704 51.2304 501.83 57.5457C510.745 62.8759 520.035 67.6826 529.699 71.9661C540.008 75.2997 550.581 78.2726 561.419 80.8846C572.614 83.0932 583.896 85.3036 595.266 87.5158C606.627 90.1321 617.876 93.1414 629.014 96.5437C639.763 101.009 650.232 106.077 660.419 111.748C669.912 118.621 679.007 126.01 687.704 133.915C695.551 142.539 702.955 151.306 709.917 160.216C716.004 168.932 721.665 177.305 726.899 185.335C734.711 196.972 741.514 206.356 747.309 213.487C744.938 217.546 735.296 224.198 718.384 233.441C709.774 240.103 702.983 247.026 698.01 254.21C697.126 261.973 698.271 270.021 701.443 278.352C708.19 287.197 716.283 296.232 725.722 305.459C736.641 314.888 747.625 324.33 758.674 333.785C768.469 343.062 777.018 352.159 784.321 361.075C788.177 369.511 790.033 377.662 789.889 385.531C785.63 392.809 779.493 399.824 771.478 406.577C760.491 412.909 748.583 419.106 735.755 425.17C722.404 431.166 709.496 437.226 697.029 443.347C686.728 449.769 678.033 456.422 670.943 463.306C667.751 470.742 666.622 478.467 667.554 486.481C672.397 495.056 678.849 503.86 686.911 512.891C697.165 522.233 707.868 531.635 719.021 541.097C729.679 550.497 739.422 559.766 748.252 568.906C754.137 577.622 758.144 586.075 760.274 594.266C751.456 604.377 742.082 614.728 732.155 625.319C721.34 635.413 710.196 644.797 698.724 653.47C686.809 659.936 674.784 665.037 662.649 668.774C650.472 669.599 638.342 669.05 626.261 667.128C614.365 662.962 602.588 658.078 590.931 652.478C579.532 646.433 568.257 640.695 557.106 635.264C546.209 631.449 535.432 628.849 524.777 627.465C514.381 629.031 504.145 632.16 494.068 636.853C484.382 644.459 474.943 653.225 465.752 663.151C457.164 674.546 448.945 686.144 441.096 697.944C434.085 709.059 427.527 719.317 421.422 728.716C407.848 735.896 397.675 735.744 390.903 728.258C385.548 719.058 379.29 712.777 372.13 709.415C362.58 704.47 352.754 701.131 342.651 699.399C332.183 700.395 321.63 702.355 310.993 705.278C300.449 709.08 290.066 712.751 279.845 716.291C270.171 718.483 260.866 719.551 251.93 719.493C243.856 716.567 236.234 712.095 229.065 706.076C222.804 697.111 216.947 686.942 211.494 675.57C206.712 662.622 202.176 649.395 197.885 635.888C193.869 622.909 189.894 610.702 185.96 599.265C181.923 590.182 177.767 582.532 173.491 576.315C163.694 573.809 153.375 574.492 142.534 578.363C136.658 581.912 130.724 585.123 124.734 587.999C118.734 589.265 112.767 589.359 106.834 588.281C101.03 584.419 95.2923 579.127 89.621 572.405C84.0594 563.085 78.5245 552.763 73.0164 541.438C67.4727 528.935 61.8638 516.324 56.1898 503.607C56.8718 495.738 57.318 487.832 57.5284 479.889C57.3474 471.898 57.0504 463.887 56.6374 455.856C56.1618 447.823 55.7449 439.795 55.3868 431.771C55.3085 423.795 55.4396 415.844 55.7801 407.92C56.6197 400.073 57.7303 392.262 59.1119 384.485C60.9927 376.786 63.0828 369.113 65.3824 361.466C67.9618 353.866 70.5965 346.271 73.2864 338.679C75.9138 331.086 78.4184 323.472 80.8001 315.837C82.8041 308.155 84.5655 300.436 86.0841 292.679C87.0676 284.852 87.7912 276.986 88.255 269.079C88.2794 261.117 88.1395 253.132 87.8351 245.123C87.3742 237.085 86.9197 229.051 86.4715 221.022C86.2161 213.014 86.1348 205.033 86.2278 197.081C86.7806 189.186 87.5967 181.333 88.676 173.52C90.2837 165.776 92.1273 158.068 94.2067 150.397C101.783 139.732 112.039 133.51 124.973 131.731C133.006 132.24 141.156 132.169 149.424 131.517C157.924 129.473 166.511 126.69 175.185 123.168C183.973 118.306 192.763 112.903 201.557 106.96C210.256 100.36 218.842 93.6635 227.316 86.8709C235.455 80.3733 243.382 74.2369 251.097 68.4618C258.315 63.7272 265.261 59.6074 271.934 56.1023C283.466 53.0761 294.352 51.23 304.592 50.5642C313.7 49.9964 322.825 48.3514 331.966 45.6292C336.846 42.4499 341.888 38.7275 347.09 34.4618C352.675 29.2722 358.473 23.7599 364.484 17.925C370.954 11.8128 377.655 5.75061 384.586 -0.261406C391.987 -5.79453 399.62 -10.9419 407.485 -15.7036C420.189 -20.8346 428.733 -24.0782 433.117 -25.4342Z" stroke="#05EDFD" stroke-width="2" stroke-linecap="round" stroke-dasharray="8 8"/>
<path opacity="0.91" d="M453.096 -10.9654C457.567 -5.316 462.214 0.827694 467.039 7.4657C472.279 14.9358 477.768 22.6997 483.505 30.7574C489.82 39.0877 496.455 47.3803 503.41 55.6352C511.047 63.4776 519.031 70.9699 527.363 78.1122C536.363 84.3505 545.667 90.0917 555.276 95.3356C565.39 99.6123 575.682 103.488 586.151 106.964C596.817 109.887 607.477 112.703 618.132 115.412C628.569 118.279 638.796 121.402 648.812 124.781C658.23 128.972 667.266 133.668 675.922 138.871C683.693 145.164 690.993 151.972 697.822 159.294C703.668 167.439 709.038 175.835 713.934 184.484C717.937 193.238 721.543 201.815 724.752 210.216C729.04 223.644 732.683 235.052 735.68 244.44C732.407 249.838 723.126 256.724 707.838 265.1C700.689 271.385 695.308 278.05 691.697 285.094C691.833 292.942 693.748 301.171 697.442 309.781C704.146 319.037 711.913 328.52 720.741 338.231C730.584 348.159 740.332 358.071 749.984 367.966C758.251 377.556 765.304 386.886 771.142 395.956C773.761 404.336 774.546 412.323 773.499 419.917C768.73 426.713 762.264 433.145 754.1 439.213C743.251 444.705 731.542 450.013 718.974 455.137C705.852 460.143 693.064 465.219 680.612 470.368C669.972 475.906 660.719 481.74 652.852 487.872C648.422 494.741 645.863 502.01 645.173 509.681C648.117 518.13 652.639 526.918 658.742 536.045C667.183 545.68 676.268 555.449 685.996 565.353C695.792 575.271 705.026 585.069 713.699 594.747C720.153 603.949 725.071 612.822 728.454 621.365C720.254 631.232 711.623 640.801 702.56 650.073C692.848 657.946 682.915 664.774 672.761 670.557C662.333 673.784 651.845 675.643 641.296 676.133C630.712 674.02 620.132 670.811 609.558 666.506C598.989 660.689 588.399 654.541 577.788 648.063C567.095 641.865 556.328 636.264 545.486 631.258C534.465 628.244 523.359 626.5 512.169 626.025C500.851 628.389 489.522 632.141 478.182 637.28C466.981 644.841 455.939 653.292 445.057 662.634C434.717 672.912 424.75 683.179 415.158 693.434C406.517 702.718 398.425 711.108 390.881 718.604C374.755 721.451 363.109 718.544 355.945 709.883C351.556 701.081 346.416 695.055 340.526 691.804C331.436 686.282 322.091 682.248 312.491 679.702C302.546 679.721 292.548 680.68 282.497 682.579C272.582 685.463 262.876 688.342 253.38 691.217C244.534 693.106 236.124 694.084 228.15 694.15C221.181 691.772 214.74 688.021 208.827 682.897C203.968 675.034 199.569 665.983 195.63 655.742C192.457 643.741 189.543 631.279 186.886 618.356C184.489 605.446 182.089 593.01 179.687 581.047C177.037 570.835 174.163 561.799 171.065 553.939C162.747 547.458 153.507 544.402 143.345 544.77C137.394 547.449 131.302 550.187 125.071 552.983C118.748 554.982 112.46 556.181 106.204 556.58C100.146 554.772 94.2312 551.685 88.4594 547.321C83.0073 540.343 77.6997 532.179 72.5367 522.83C67.6 511.632 62.7132 499.872 57.8761 487.55C58.7654 479.838 59.4288 472.073 59.8663 464.257C59.9845 456.379 60.018 448.483 59.9671 440.568C59.9243 432.649 59.9755 424.753 60.1207 416.881C60.6123 409.076 61.3366 401.325 62.2936 393.627C63.7781 386.042 65.5374 378.512 67.5713 371.038C70.1112 363.679 72.8547 356.36 75.8018 349.082C79.0113 341.867 82.2716 334.662 85.5826 327.469C88.8071 320.25 91.9091 313.008 94.8886 305.744C97.4705 298.387 99.8013 290.98 101.881 283.523C103.42 275.949 104.692 268.315 105.698 260.621C106.229 252.831 106.581 245 106.755 237.127C106.724 229.217 106.68 221.304 106.622 213.389C106.714 205.498 106.962 197.644 107.364 189.827C108.206 182.105 109.312 174.435 110.683 166.819C112.594 159.325 114.765 151.887 117.197 144.505C125.281 134.486 135.722 128.638 148.521 126.959C156.488 126.927 164.651 126.243 173.01 124.907C181.734 122.2 190.61 118.853 199.637 114.866C208.851 109.837 218.097 104.467 227.373 98.7578C236.569 92.7908 245.651 86.9158 254.617 81.1328C263.211 75.9282 271.567 71.1749 279.685 66.8728C287.247 63.6825 294.506 61.075 301.464 59.0501C313.391 58.3312 324.602 58.4139 335.096 59.2981C344.287 59.2023 353.436 57.8596 362.546 55.2701C367.3 52.1361 372.17 48.4819 377.154 44.3076C382.409 39.2999 387.815 34.0201 393.37 28.4682C399.231 22.713 405.245 17.04 411.41 11.4491C417.884 6.36991 424.509 1.68431 431.288 -2.60772C442.111 -7.05158 449.38 -9.83747 453.096 -10.9654Z" stroke="#05EDFD" stroke-width="2" stroke-linecap="round" stroke-dasharray="10 9"/>
<path opacity="0.87" d="M475.216 5.46289C480.295 11.5557 485.52 18.1408 490.891 25.2182C496.589 33.1319 502.478 41.3532 508.56 49.8821C515.081 58.7327 521.849 67.5789 528.862 76.4206C536.403 84.9324 544.217 93.1377 552.303 101.036C560.904 108.098 569.735 114.678 578.795 120.777C588.215 125.908 597.746 130.591 607.388 134.828C617.094 138.37 626.73 141.705 636.297 144.832C645.527 147.855 654.493 150.992 663.196 154.244C671.18 158.037 678.732 162.217 685.852 166.783C692.001 172.263 697.634 178.224 702.749 184.666C706.826 191.96 710.407 199.582 713.495 207.533C715.696 215.832 717.519 224.119 718.964 232.395C719.819 240.269 720.469 247.756 720.914 254.856C721.98 268.401 723.358 277.017 725.05 280.704C714.073 285.314 704.25 290.258 695.579 295.535C689.866 301.667 685.809 308.283 683.41 315.381C684.363 323.442 686.84 331.944 690.843 340.887C697.291 350.537 704.543 360.424 712.598 370.546C721.266 380.839 729.711 391.067 737.934 401.231C744.688 410.969 750.278 420.375 754.705 429.448C756.149 437.651 755.935 445.374 754.063 452.618C748.848 458.895 742.117 464.736 733.869 470.143C723.198 474.841 711.736 479.311 699.484 483.552C686.651 487.632 674.065 491.78 661.726 495.996C650.875 500.643 641.204 505.63 632.713 510.959C627.21 517.16 623.374 523.839 621.202 530.996C622.374 539.12 625.051 547.68 629.233 556.675C635.819 566.372 643.177 576.289 651.307 586.426C659.982 596.721 668.393 606.943 676.541 617.092C683.169 626.794 688.603 636.152 692.845 645.164C685.43 653.822 677.761 661.772 669.839 669.016C661.586 674.27 653.24 678.323 644.803 681.176C636.26 681.477 627.692 680.551 619.097 678.396C610.426 674.138 601.683 669.109 592.867 663.311C583.813 656.717 574.58 650.132 565.168 643.556C555.295 637.805 545.148 632.835 534.728 628.648C523.731 626.583 512.456 625.748 500.905 626.145C488.897 629.066 476.739 633.155 464.431 638.409C452.053 645.545 439.772 653.296 427.586 661.661C415.88 670.461 404.556 679.072 393.615 687.494C383.688 694.749 374.365 701.098 365.646 706.541C352.833 709.309 341.883 708.698 332.796 704.708C327.863 694.351 323.264 684.368 319 674.759C316.444 672.392 313.554 671.217 310.33 671.235C302.175 665.318 293.778 660.772 285.14 657.596C276.158 656.828 267.116 656.978 258.013 658.046C249.055 660.186 240.301 662.426 231.753 664.764C223.877 666.446 216.448 667.409 209.464 667.65C203.531 665.854 198.159 662.864 193.349 658.678C189.643 651.996 186.441 644.17 183.742 635.201C181.861 624.373 180.263 612.942 178.948 600.909C177.92 588.455 176.875 576.194 175.814 564.126C174.447 553.216 172.802 543.205 170.879 534.093C164.258 523.896 156.377 517.068 147.237 513.611C141.369 514.902 135.257 516.562 128.901 518.591C122.279 520.571 115.635 522.139 108.971 523.294C102.474 522.948 96.1474 521.59 89.9916 519.219C84.2767 514.526 78.8132 508.654 73.6012 501.601C68.8609 492.394 64.3159 482.325 59.9661 471.395C61.0287 463.838 61.8951 456.224 62.5655 448.554C62.9853 440.803 63.361 433.044 63.6924 425.276C64.1103 417.532 64.6587 409.823 65.3377 402.147C66.4069 394.592 67.7252 387.109 69.2928 379.698C71.4054 372.445 73.7947 365.268 76.4607 358.168C79.6166 351.216 82.962 344.319 86.4967 337.478C90.2859 330.702 94.114 323.941 97.981 317.196C101.755 310.423 105.396 303.612 108.904 296.762C112.022 289.792 114.887 282.753 117.498 275.644C119.564 268.377 121.358 261.028 122.881 253.597C123.91 246.03 124.75 238.409 125.401 230.733C125.805 222.985 126.174 215.224 126.508 207.449C126.946 199.711 127.513 192.011 128.21 184.348C129.312 176.802 130.665 169.326 132.268 161.918C134.42 154.676 136.842 147.512 139.532 140.426C142.715 133.482 146.088 126.59 149.651 119.749C156.689 121.187 163.969 122.112 171.491 122.523C179.529 121.723 187.825 120.295 196.378 118.239C205.388 114.997 214.57 111.279 223.921 107.085C233.491 102.234 243.085 97.2492 252.704 92.1311C262.207 87.1381 271.575 82.3903 280.806 77.8877C289.628 74.181 298.188 70.9785 306.487 68.2803C314.191 66.6701 321.587 65.5868 328.676 65.0304C340.888 66.4598 352.416 68.3217 363.261 70.6161C372.897 70.9623 382.488 69.9375 392.032 67.5417C396.941 64.4893 401.925 60.9511 406.985 56.927C412.199 52.148 417.491 47.125 422.86 41.858C428.372 36.4452 433.946 31.1328 439.58 25.9208C445.329 21.2101 451.132 16.8824 456.99 12.938C466.061 8.94324 472.136 6.45155 475.216 5.46289Z" stroke="#05EDFD" stroke-width="2" stroke-linecap="round" stroke-dasharray="9 5"/>
<path opacity="0.84" d="M499.291 24.5332C504.839 31.1402 510.463 38.2211 516.164 45.7761C522.044 54.1484 528.035 62.8197 534.137 71.7897C540.494 81.0892 547.009 90.4022 553.681 99.7288C560.698 108.777 567.898 117.546 575.282 126.036C583.021 133.742 590.92 140.981 598.98 147.751C607.274 153.524 615.633 158.827 624.058 163.661C632.462 167.669 640.771 171.372 648.985 174.773C656.827 177.844 664.388 180.894 671.671 183.922C678.227 187.222 684.349 190.779 690.039 194.593C694.743 199.121 698.934 204.065 702.611 209.425C705.247 215.611 707.396 222.164 709.056 229.082C709.837 236.547 710.259 244.146 710.323 251.879C709.856 259.571 709.229 267.068 708.442 274.37C706.773 291.335 706.419 303.075 707.38 309.589C697.759 313.831 689.344 318.512 682.135 323.632C677.762 329.801 674.895 336.524 673.535 343.8C675.084 352.144 677.896 360.952 681.971 370.224C687.981 380.207 694.567 390.401 701.727 400.806C709.153 411.309 716.258 421.694 723.041 431.96C728.33 441.678 732.517 450.988 735.601 459.889C735.968 467.799 734.845 475.162 732.231 481.977C726.637 487.698 719.702 492.926 711.425 497.662C700.98 501.601 689.813 505.275 677.926 508.685C665.454 511.88 653.148 515.136 641.008 518.452C630.069 522.21 620.12 526.331 611.162 530.817C604.768 536.244 599.836 542.208 596.365 548.709C595.904 556.307 596.85 564.426 599.204 573.067C603.935 582.58 609.521 592.406 615.96 602.546C623.301 613.018 630.633 623.486 637.956 633.951C644.382 644.087 649.941 653.904 654.633 663.402C648.275 670.118 641.86 675.887 635.386 680.71C628.899 683.302 622.425 684.716 615.963 684.952C609.509 682.921 603.026 679.902 596.516 675.897C589.813 670.407 582.941 664.477 575.897 658.11C568.34 651.576 560.441 645.31 552.2 639.313C543.144 634.513 533.638 630.565 523.683 627.469C512.817 626.434 501.524 626.498 489.806 627.663C477.386 630.936 464.723 635.115 451.816 640.198C438.704 646.6 425.645 653.353 412.637 660.456C400.077 667.561 387.9 674.329 376.106 680.757C365.344 685.877 355.211 690.111 345.704 693.46C337.567 694.746 330.134 694.967 323.405 694.125C314.244 686.419 306.432 677.249 299.968 666.613C294.927 657.966 289.378 651.864 283.322 648.306C276.475 642.224 269.374 637.409 262.018 633.859C254.294 632.556 246.481 632.137 238.578 632.602C230.75 634.171 223.092 635.928 215.605 637.873C203.166 639.053 192.198 637.822 182.702 634.18C179.863 628.686 177.542 622.111 175.74 614.455C174.79 604.922 174.151 594.69 173.825 583.759C173.838 572.045 173.856 560.286 173.881 548.48C173.604 537.272 173.044 526.678 172.199 516.698C170.542 508.425 168.407 501.166 165.792 494.922C157.065 489.505 147.027 486.504 135.679 485.918C128.934 487.185 122.076 488.392 115.103 489.538C108.164 489.908 101.364 489.6 94.7033 488.613C88.5012 485.834 82.6007 482.023 77.0017 477.181C72.0507 470.233 67.4247 462.31 63.1237 453.412C64.3407 446.025 65.4031 438.577 66.3108 431.068C67.0472 423.504 67.7837 415.941 68.5201 408.377C69.419 400.873 70.4736 393.426 71.6842 386.036C73.3298 378.806 75.232 371.67 77.3906 364.628C80.1013 357.79 83.0782 351.049 86.3214 344.405C90.0387 337.936 93.9313 331.532 97.9992 325.191C102.294 318.934 106.619 312.688 110.973 306.453C115.216 300.177 119.329 293.853 123.313 287.482C126.902 280.959 130.247 274.349 133.348 267.653C135.903 260.757 138.185 253.761 140.194 246.665C141.703 239.385 143.014 232.032 144.128 224.606C144.961 217.078 145.74 209.53 146.464 201.961C147.226 194.407 148.099 186.893 149.082 179.42C150.41 172.073 151.971 164.812 153.766 157.637C156.093 150.657 158.694 143.778 161.567 136.999C164.959 130.41 168.572 123.903 172.407 117.477C179.412 118.148 186.724 118.265 194.343 117.828C202.577 116.239 211.094 114.119 219.894 111.47C229.147 107.97 238.568 104.181 248.157 100.105C257.907 95.7922 267.651 91.5364 277.389 87.3373C286.94 83.5857 296.328 80.1979 305.553 77.174C314.319 75.0796 322.816 73.4947 331.046 72.4193C338.678 72.348 346.022 72.72 353.078 73.5352C359.586 75.0189 365.856 76.699 371.888 78.5755C382.84 81.8679 393.538 84.3232 403.984 85.9413C414.398 82.8527 424.922 78.2572 435.558 72.1548C441.007 67.6926 446.465 63.0161 451.931 58.1254C457.377 53.1093 462.794 48.1931 468.182 43.3766C473.483 39.0368 478.739 35.0492 483.951 31.4137C491.631 27.7412 496.744 25.4477 499.291 24.5332Z" stroke="#05EDFD" stroke-width="2" stroke-linecap="round" stroke-dasharray="5 5"/>
<path opacity="0.81" d="M524.532 46.6966C530.257 53.8052 535.974 61.3538 541.683 69.3425C547.388 78.0807 553.107 87.0939 558.838 96.3822C564.638 105.974 570.497 115.578 576.415 125.193C582.499 134.556 588.684 143.654 594.97 152.486C601.466 160.578 608.066 168.213 614.769 175.389C621.614 181.575 628.5 187.264 635.428 192.456C642.312 196.733 649.106 200.636 655.81 204.164C662.18 207.171 668.3 210.043 674.169 212.779C683.352 218.81 691.211 225.566 697.747 233.046C699.579 244.041 700.183 255.997 699.558 268.913C698.191 276.058 696.679 283.202 695.023 290.346C691.974 303.106 689.492 314.737 687.579 325.239C684.107 332.204 677.667 339.951 668.259 348.481C665.078 354.818 663.224 361.752 662.699 369.282C664.613 377.917 667.548 387.007 671.503 396.551C676.923 406.753 682.714 417.123 688.878 427.66C695.035 438.194 700.805 448.553 706.186 458.739C710.082 468.264 712.95 477.324 714.792 485.918C714.178 493.409 712.24 500.305 708.976 506.605C703.094 511.728 696.025 516.318 687.77 520.375C677.603 523.572 666.784 526.481 655.314 529.1C643.273 531.456 631.327 533.853 619.475 536.294C608.582 539.165 598.5 542.401 589.229 546.001C582.135 550.58 576.295 555.726 571.71 561.439C569.797 568.346 569.174 575.833 569.841 583.9C572.781 592.988 576.616 602.478 581.347 612.372C587.206 622.779 593.267 633.273 599.532 643.856C605.412 654.265 610.73 664.422 615.486 674.326C605.804 680.024 596.407 682.62 587.298 682.114C582.904 678.524 578.436 674.248 573.893 669.286C568.995 663.459 563.808 657.499 558.333 651.405C552.072 645.641 545.32 640.32 538.077 635.441C529.734 631.912 520.809 629.224 511.301 627.378C500.657 627.366 489.494 628.265 477.811 630.076C465.294 633.507 452.483 637.567 439.377 642.258C426.009 647.734 412.685 653.316 399.403 659.005C386.543 664.329 374.064 669.196 361.965 673.603C350.896 676.63 340.445 678.805 330.612 680.128C322.13 679.593 314.332 678.136 307.217 675.757C301.395 671.768 296.137 667.156 291.443 661.922C287.621 655.979 284.096 649.984 280.867 643.937C274.73 634.876 268.119 628.238 261.033 624.022C255.702 618.046 250.091 613.222 244.202 609.552C237.865 607.955 231.39 607.192 224.775 607.26C218.117 608.44 211.563 609.859 205.113 611.519C194.318 612.993 184.838 612.517 176.674 610.092C174.381 605.709 172.598 600.327 171.325 593.945C170.93 585.712 170.875 576.73 171.16 566.998C171.848 556.218 172.586 545.192 173.375 533.919C173.961 522.759 174.287 511.942 174.352 501.467C173.65 492.178 172.462 483.673 170.79 475.951C163.63 466.771 154.918 460.065 144.654 455.831C138.087 455.83 131.289 456.052 124.263 456.497C117.062 456.826 109.913 456.825 102.818 456.496C96.0862 455.003 89.6384 452.734 83.4745 449.691C78.0266 444.869 72.9756 439.121 68.3215 432.448C69.6908 425.266 70.9512 418.032 72.1025 410.745C73.1689 403.427 74.2778 396.124 75.4291 388.837C76.8048 381.658 78.3648 374.558 80.1093 367.537C82.3053 360.727 84.76 354.033 87.4734 347.456C90.726 341.113 94.2328 334.888 97.9937 328.781C102.199 322.866 106.564 317.027 111.089 311.263C115.805 305.578 120.542 299.906 125.3 294.247C129.945 288.538 134.458 282.765 138.84 276.93C142.828 270.925 146.584 264.812 150.108 258.591C153.093 252.135 155.813 245.56 158.267 238.866C160.226 231.942 161.979 224.929 163.525 217.826C164.777 210.585 165.946 203.309 167.031 196C168.126 188.687 169.292 181.41 170.528 174.168C172.062 167.06 173.802 160.041 175.748 153.111C178.184 146.409 180.888 139.827 183.86 133.366C187.359 127.133 191.099 121.013 195.081 115.006C202.247 114.738 209.754 113.958 217.6 112.668C226.067 110.451 234.798 107.867 243.792 104.916C253.188 101.494 262.697 97.9812 272.318 94.3789C282.003 90.9195 291.631 87.6808 301.202 84.6627C310.51 82.3305 319.619 80.4324 328.529 78.9682C336.966 78.4742 345.132 78.4621 353.029 78.9317C360.387 80.2814 367.491 81.976 374.341 84.0155C380.751 86.5097 386.983 89.0826 393.035 91.7342C404.466 95.9843 415.802 99.2242 427.041 101.454C432.728 100.953 438.459 99.9296 444.235 98.3843C450.092 95.8664 455.972 92.9265 461.874 89.5645C467.76 85.5653 473.603 81.3727 479.405 76.9868C485.056 72.4957 490.598 68.088 496.03 63.7638C510.484 54.6729 519.985 48.9839 524.532 46.6966Z" stroke="#05EDFD" stroke-width="2" stroke-linecap="round" stroke-dasharray="8 7"/>
<path opacity="0.78" d="M549.606 71.9673C555.145 79.4643 560.582 87.3468 565.919 95.6149C571.079 104.534 576.155 113.69 581.146 123.084C586.025 132.732 590.875 142.375 595.695 152.015C600.522 161.407 605.382 170.55 610.273 179.443C615.269 187.614 620.323 195.349 625.434 202.648C630.645 208.972 635.89 214.792 641.171 220.108C651.475 227.651 661.413 234.216 670.984 239.803C680.879 249.089 687.314 258.273 690.29 267.355C689.619 272.538 688.623 278.05 687.301 283.889C685.488 290.249 683.529 296.771 681.425 303.455C679.243 310.238 677.144 316.947 675.128 323.584C672.846 335.189 671.693 345.76 671.669 355.296C664.931 359.436 659.311 364.177 654.81 369.518C652.643 376.113 651.604 383.313 651.692 391.118C653.774 399.994 656.645 409.294 660.305 419.017C665.007 429.3 669.922 439.693 675.048 450.196C679.939 460.581 684.401 470.735 688.433 480.658C691.038 489.815 692.699 498.465 693.415 506.608C691.937 513.572 689.295 519.912 685.489 525.626C679.397 530.113 672.274 534.047 664.122 537.428C654.288 539.906 643.871 542.071 632.872 543.923C621.319 545.478 609.808 547.056 598.34 548.656C587.61 550.653 577.538 553.003 568.124 555.706C560.508 559.375 553.965 563.62 548.494 568.441C545.334 574.502 543.332 581.185 542.487 588.49C543.758 596.931 545.919 605.849 548.97 615.245C553.3 625.329 557.978 635.599 563.004 646.055C556.956 656.032 549.229 655.205 539.824 643.574C534.52 639.093 528.619 635.143 522.123 631.725C514.328 629.644 505.876 628.318 496.768 627.746C486.418 628.683 475.519 630.306 464.071 632.616C451.76 636.034 439.161 639.822 426.272 643.981C413.133 648.43 400.046 652.782 387.012 657.036C374.422 660.625 362.201 663.67 350.351 666.173C339.507 667.268 329.249 667.559 319.576 667.045C311.168 664.863 303.392 661.897 296.249 658.148C290.287 653.078 284.823 647.533 279.857 641.514C275.661 635.012 271.711 628.541 268.008 622.1C260.693 612.339 252.864 604.852 244.519 599.641C236.047 591.378 226.773 585.849 216.699 583.055C205.746 585.379 195.244 587.659 185.193 589.895C178.717 587.07 173.658 581.75 170.016 573.937C169.815 566.942 169.971 559.17 170.487 550.62C171.498 540.853 172.621 530.698 173.853 520.154C175.008 509.318 175.976 498.585 176.76 487.957C176.888 478.022 176.577 468.629 175.825 459.776C174.034 452.32 171.672 445.641 168.739 439.74C159.094 433.163 148.124 428.353 135.828 425.308C128.701 424.936 121.506 424.539 114.241 424.117C107.131 423.174 100.233 421.762 93.546 419.884C85.6289 410.937 81.4389 400.065 80.9759 387.269C82.387 380.268 83.8711 373.307 85.4285 366.385C87.2783 359.62 89.3202 352.958 91.5541 346.399C94.2634 340.096 97.2256 333.928 100.441 327.896C104.168 322.139 108.133 316.51 112.336 311.009C116.934 305.72 121.679 300.509 126.571 295.378C131.621 290.331 136.683 285.291 141.757 280.257C146.709 275.158 151.53 269.988 156.221 264.749C160.539 259.309 164.632 253.749 168.499 248.067C171.861 242.114 174.963 236.021 177.807 229.79C180.168 223.3 182.32 216.697 184.261 209.981C185.892 203.098 187.425 196.163 188.86 189.176C190.247 182.162 191.679 175.173 193.157 168.209C194.867 161.368 196.753 154.623 198.817 147.973C201.313 141.555 204.062 135.273 207.063 129.126C210.577 123.255 214.338 117.516 218.346 111.909C225.801 110.762 233.575 109.219 241.667 107.282C250.308 104.745 259.158 102.025 268.215 99.1223C277.52 96.1248 286.872 93.223 296.27 90.417C305.588 88.0543 314.793 86.0319 323.886 84.3499C332.634 83.4873 341.163 83.0888 349.475 83.1545C357.311 84.1503 364.906 85.574 372.259 87.4255C379.155 89.9818 385.853 92.7893 392.354 95.8479C398.559 99.1641 404.661 102.468 410.66 105.76C416.562 108.748 422.466 111.471 428.371 113.927C434.348 115.621 440.391 116.871 446.499 117.677C452.759 117.513 459.085 116.861 465.475 115.723C471.97 113.689 478.476 111.274 484.996 108.477C491.455 105.106 497.837 101.563 504.141 97.8502C510.186 94.0365 516.066 90.2876 521.782 86.6036C536.024 78.813 545.299 73.9342 549.606 71.9673Z" stroke="#05EDFD" stroke-width="2" stroke-linecap="round" stroke-dasharray="11 7"/>
<path opacity="0.75" d="M572.952 99.8772C577.925 107.55 582.724 115.546 587.347 123.865C591.615 132.72 595.724 141.762 599.675 150.99C603.356 160.399 606.941 169.793 610.429 179.17C613.797 188.284 617.149 197.159 620.485 205.793C623.84 213.762 627.234 221.313 630.667 228.446C637.847 239.402 645.092 248.951 652.404 257.094C663.022 264.354 670.954 270.393 676.2 275.21C676.477 281.537 675.758 288.922 674.045 297.363C672.228 302.819 670.25 308.557 668.11 314.578C665.834 321.02 663.599 327.574 661.403 334.238C659.504 340.927 657.858 347.525 656.465 354.034C653.18 365.173 648.559 376.049 642.602 386.664C641.243 393.546 640.809 401.011 641.298 409.06C643.35 418.096 645.988 427.505 649.212 437.289C653.118 447.495 657.103 457.75 661.167 468.056C664.845 478.118 668.073 487.896 670.85 497.389C672.276 506.029 672.851 514.137 672.577 521.712C670.37 528.058 667.148 533.764 662.911 538.829C656.709 542.653 649.614 545.913 641.628 548.611C632.19 550.392 622.234 551.85 611.757 552.983C600.758 553.779 589.764 554.578 578.777 555.381C568.327 556.523 558.402 557.996 548.999 559.8C541.059 562.527 534.015 565.819 527.865 569.676C523.683 574.784 520.515 580.528 518.36 586.907C518.137 594.506 518.761 602.64 520.234 611.31C523.04 620.821 526.291 630.614 529.986 640.687C524.248 640.328 515.55 636.015 503.892 627.746C496.466 627.132 488.373 627.128 479.612 627.733C469.627 629.463 459.121 631.654 448.095 634.306C436.278 637.588 424.218 641.003 411.915 644.551C399.453 647.973 387.066 651.136 374.752 654.039C362.925 656.055 351.464 657.479 340.367 658.311C330.229 657.743 320.633 656.426 311.58 654.359C303.668 650.821 296.315 646.612 289.521 641.733C283.735 635.773 278.367 629.451 273.416 622.766C269.064 615.78 264.886 608.875 260.881 602.052C256.942 595.85 252.903 590.183 248.764 585.05C240.457 577.759 232.886 570.668 226.053 563.777C217.79 562.299 209.019 562.259 199.741 563.659C186.506 563.615 177.01 560.578 171.254 554.546C170.922 548.618 170.968 541.93 171.392 534.482C172.399 525.733 173.584 516.496 174.947 506.769C176.403 496.455 177.763 486.052 179.028 475.56C179.83 465.323 180.274 455.405 180.362 445.806C179.531 437.182 178.179 429.165 176.304 421.755C173.306 415.682 169.752 410.296 165.641 405.598C160.518 402.166 154.961 399.272 148.972 396.914C142.33 395.331 135.495 393.969 128.466 392.829C121.332 391.728 114.279 390.458 107.309 389.019C98.6852 381.995 94.1589 372.706 93.7298 361.153C95.4715 354.545 97.3244 348.008 99.2884 341.541C101.572 335.267 104.059 329.126 106.748 323.117C109.905 317.403 113.306 311.843 116.948 306.436C121.075 301.325 125.413 296.353 129.962 291.518C134.863 286.905 139.894 282.371 145.056 277.914C150.343 273.545 155.633 269.177 160.925 264.812C166.087 260.355 171.124 255.824 176.036 251.219C180.598 246.391 184.947 241.426 189.085 236.324C192.74 230.924 196.152 225.371 199.321 219.664C202.032 213.661 204.533 207.528 206.824 201.268C208.788 194.801 210.649 188.264 212.406 181.658C214.06 174.996 215.735 168.346 217.43 161.709C219.292 155.169 221.293 148.721 223.432 142.365C225.952 136.249 228.696 130.27 231.664 124.428C235.114 118.899 238.804 113.522 242.733 108.296C250.475 106.531 258.473 104.528 266.728 102.287C275.362 99.7939 284.115 97.302 292.986 94.8109C301.93 92.5542 310.831 90.5326 319.691 88.7463C328.329 87.6219 336.809 86.8968 345.131 86.571C353.039 87.1211 360.729 88.1191 368.203 89.5648C375.227 91.8394 382.052 94.4673 388.679 97.4484C394.966 100.968 401.133 104.645 407.18 108.479C413.085 112.395 418.977 116.23 424.855 119.982C430.795 123.339 436.815 126.4 442.916 129.164C449.227 131.168 455.657 132.744 462.205 133.892C468.993 134.144 475.879 133.96 482.866 133.339C489.972 131.918 497.1 130.168 504.248 128.086C511.312 125.502 518.28 122.771 525.153 119.894C531.709 116.923 538.054 113.999 544.19 111.123C558.989 105.126 568.576 101.377 572.952 99.8772Z" stroke="#05EDFD" stroke-width="2" stroke-linecap="round" stroke-dasharray="3 11"/>
<path opacity="0.72" d="M592.968 129.436C600.7 145.099 607.496 161.568 613.356 178.844C617.739 196.553 621.735 213.743 625.345 230.412C628.889 244.647 632.652 257.193 636.635 268.051C645.599 278.799 653.722 287.221 661.004 293.317C661.833 297.505 661.547 303.025 660.146 309.876C656.92 319.713 653.278 330.811 649.221 343.171C645.767 356.918 643.382 370.664 642.066 384.411C635.474 395.02 632.138 408.017 632.057 423.4C636.604 442.183 641.923 461.533 648.014 481.451C652.178 499.961 653.893 516.668 653.16 531.572C645.814 541.619 635.157 549.233 621.187 554.414C602.296 555.989 582.436 556.848 561.609 556.991C542.309 558.257 525.314 561.216 510.626 565.869C502.438 575.298 497.602 587.192 496.117 601.553C499.828 619.722 504.704 638.747 510.745 658.627C509.195 648.175 505.238 637.066 498.875 625.302C488.447 623.745 475.397 624.111 459.722 626.401C439.723 631.565 418.489 637.122 396.021 643.075C373.388 647.265 351.773 649.445 331.177 649.612C314.085 644.482 298.961 636.798 285.804 626.558C275.871 612.84 266.766 598.761 258.489 584.32C249.915 572.245 240.338 562.66 229.755 555.564C226.599 547.975 221.883 543.159 215.607 541.116C207.356 542.462 199.004 544.01 190.552 545.759C183.714 544.865 178.335 541.519 174.414 535.72C173.781 524.147 174.447 510.018 176.412 493.332C179.422 473.541 181.962 453.552 184.035 433.365C183.32 415.431 180.625 399.55 175.95 385.72C167.153 376.545 156.739 369.278 144.71 363.918C131.181 360.401 117.937 356.578 104.977 352.449C108.775 339.916 112.882 327.606 117.298 315.518C123.068 304.426 129.715 293.981 137.237 284.185C146.47 275.635 156.306 267.534 166.745 259.879C177.583 252.509 188.166 244.956 198.494 237.22C207.542 228.535 215.721 219.212 223.031 209.25C228.602 198.02 233.534 186.316 237.827 174.138C241.608 161.593 245.598 149.197 249.796 136.949C255.199 125.586 261.455 114.855 268.565 104.755C284.636 100.594 301.042 96.5886 317.784 92.74C334.065 90.7931 349.688 90.3547 364.654 91.4249C377.961 95.7924 390.552 101.522 402.426 108.613C413.543 117.131 424.714 125.552 435.94 133.875C448.067 140.457 460.852 145.642 474.293 149.43C488.972 150.109 503.964 149.46 519.27 147.484C534.274 143.886 548.608 140.132 562.272 136.22C578.256 132.433 588.488 130.172 592.968 129.436Z" stroke="#05EDFD" stroke-width="2" stroke-linecap="round" stroke-dasharray="3 4"/>
<path opacity="0.68" d="M608.373 159.305C613.888 174.07 618.306 189.416 621.628 205.342C623.25 221.485 624.405 237.136 625.093 252.295C625.689 265.317 626.582 276.852 627.77 286.9C632.875 296.879 638.273 304.385 643.965 309.417C645.418 312.43 646.029 316.611 645.799 321.96C643.889 330.313 641.419 340.164 638.39 351.513C635.29 365.19 632.816 379.471 630.969 394.357C626.13 405.667 623.865 419.168 624.174 434.859C627.778 453.339 631.704 472.096 635.953 491.132C638.059 508.34 637.948 523.665 635.62 537.107C627.607 545.732 616.804 551.983 603.211 555.861C585.436 556.198 566.775 555.778 547.228 554.6C528.71 554.306 511.995 555.537 497.083 558.296C487.488 565.577 480.793 575.317 476.999 587.514C478.098 603.867 480.614 621.427 484.546 640.194C485.183 630.326 482.408 621.884 476.22 614.87C465.602 616.11 452.653 618.764 437.372 622.834C418.604 628.381 399.025 633.665 378.634 638.687C358.692 641.085 339.863 641.353 322.15 639.491C307.717 632.664 294.964 623.597 283.891 612.289C275.307 598.103 267.181 583.671 259.514 568.994C250.983 556.413 241.258 545.96 230.34 537.634C222.605 530.005 211.488 526.301 196.987 526.523C189.74 525.47 183.719 522.381 178.922 517.256C177.25 507.051 176.997 494.42 178.163 479.365C181.037 460.823 183.914 441.588 186.793 421.662C187.879 402.682 187.362 385.13 185.241 369.008C179.256 356.839 171.488 346.631 161.936 338.384C149.982 333.009 137.712 328.172 125.125 323.874C129.382 312.223 134.042 300.915 139.105 289.949C145.56 280.155 152.835 271.063 160.931 262.671C170.53 255.556 180.645 248.875 191.277 242.628C202.194 236.632 212.86 230.419 223.275 223.988C232.505 216.56 240.941 208.457 248.583 199.681C254.621 189.534 260.03 178.856 264.808 167.648C268.985 155.921 273.249 144.271 277.601 132.701C282.885 121.923 288.903 111.763 295.653 102.22C311.224 98.6961 326.678 95.8222 342.016 93.5983C356.216 93.8381 369.609 95.594 382.195 98.8661C393.218 105.039 403.734 112.262 413.745 120.535C423.588 129.646 433.809 138.483 444.408 147.046C456.449 153.858 469.357 159.435 483.13 163.779C498.385 165.522 514.029 166.209 530.063 165.837C545.845 164.235 560.975 162.533 575.455 160.733C592.57 159.709 603.542 159.233 608.373 159.305Z" stroke="#05EDFD" stroke-width="2" stroke-linecap="round" stroke-dasharray="10 9"/>
<path opacity="0.65" d="M618.365 187.968C621.561 201.343 623.601 215.116 624.487 229.289C623.602 243.54 622.241 257.363 620.403 270.759C618.526 282.384 617.024 292.779 615.897 301.945C621.371 315.226 626.421 325.923 631.046 334.037C630.807 341.236 629.921 349.983 628.386 360.279C626.168 373.4 624.103 387.556 622.192 402.748C618.641 414.729 617.038 428.616 617.384 444.409C619.901 462.326 622.41 480.231 624.912 498.123C625.189 513.849 623.505 527.656 619.859 539.545C611.416 546.732 600.649 551.651 587.558 554.3C570.969 553.53 553.585 551.975 535.404 549.637C517.856 547.928 501.681 547.561 486.878 548.537C476.343 553.678 468.234 561.196 462.551 571.093C462.73 591.687 459.305 602.436 452.275 603.341C441.148 606.741 428.131 611.041 413.223 616.24C395.878 621.764 378.194 626.571 360.173 630.659C343.227 631.649 327.491 630.536 312.965 627.321C301.485 619.586 291.413 609.913 282.748 598.302C275.891 584.288 269.168 570.077 262.58 555.669C254.627 542.983 245.316 532.032 234.647 522.816C228.553 514.968 218.562 510.267 204.676 508.713C196.908 507.077 190.143 503.778 184.379 498.818C181.522 489.559 180.158 478.112 180.286 464.476C182.679 447.317 185.524 429.167 188.82 410.026C191.386 390.801 192.827 372.434 193.142 354.926C190.209 340.453 185.511 327.764 179.05 316.857C169.617 309.207 159.332 302.65 148.195 297.186C152.926 286.533 158.121 276.334 163.781 266.589C170.797 258.171 178.554 250.477 187.053 243.51C196.853 237.815 207.073 232.531 217.713 227.658C228.552 222.978 239.145 218.06 249.494 212.901C258.774 206.698 267.342 199.798 275.199 192.202C281.591 183.174 287.382 173.558 292.572 163.354C297.095 152.487 301.608 141.616 306.111 130.739C311.281 120.516 317.048 110.876 323.41 101.819C337.778 99.5562 351.623 98.2486 364.946 97.8958C376.663 100.144 387.532 103.764 397.553 108.756C406.283 116.086 414.755 124.155 422.969 132.963C431.607 142.118 440.894 150.902 450.83 159.315C462.647 166.121 475.462 171.902 489.276 176.656C504.737 179.391 520.629 181.343 536.952 182.513C553.11 182.873 568.661 183.219 583.606 183.553C601.621 185.516 613.208 186.988 618.365 187.968Z" stroke="#05EDFD" stroke-width="2" stroke-linecap="round" stroke-dasharray="7 9"/>
<path opacity="0.62" d="M622.767 214.01C623.796 225.651 623.691 237.568 622.452 249.76C619.51 261.994 616.122 273.902 612.288 285.484C608.499 295.722 605.156 305.013 602.259 313.358C605.321 327.154 609.866 338.166 615.895 346.394C617.411 352.884 618.275 360.813 618.488 370.181C617.572 382.466 616.385 396.009 614.927 410.811C612.228 423.338 610.915 437.432 610.989 453.094C612.335 470.188 613.436 487.006 614.291 503.547C613.001 517.673 610.009 529.881 605.316 540.173C596.645 545.974 586.068 549.634 573.584 551.151C558.216 549.42 542.145 546.897 525.372 543.582C508.938 540.651 493.522 538.86 479.123 538.211C468.036 541.301 458.933 546.626 451.814 554.186C448.879 571.751 447.029 582.312 446.264 585.869C441.9 586.163 435.638 587.703 427.48 590.487C415.736 595.233 402.642 600.429 388.197 606.074C372.451 611.21 356.829 615.357 341.332 618.513C327.471 618.469 314.895 616.465 303.605 612.501C295.113 604.572 287.784 595 281.619 583.784C276.676 570.557 271.607 557.142 266.412 543.539C259.469 531.237 251.059 520.28 241.182 510.666C235.907 501.953 226.463 495.651 212.851 491.76C204.609 489.178 197.166 485.291 190.521 480.098C186.509 471.402 184.006 460.829 183.011 448.382C184.685 432.648 187.193 415.804 190.534 397.851C194.155 379.12 197.186 360.772 199.626 342.804C199.658 326.919 198.134 312.489 195.053 299.516C188.856 289.66 181.427 281.152 172.767 273.993C177.97 264.442 183.665 255.44 189.852 246.986C197.302 239.965 205.406 233.682 214.164 228.135C224.012 223.805 234.192 219.855 244.705 216.285C255.328 212.838 265.722 209.129 275.887 205.156C285.1 200.121 293.688 194.383 301.652 187.942C308.308 180.016 314.402 171.464 319.936 162.286C324.763 152.311 329.512 142.243 334.183 132.082C339.267 122.397 344.808 113.227 350.806 104.571C363.295 103.946 374.967 104.374 385.822 105.857C394.859 109.731 403.13 114.734 410.636 120.864C417.257 128.697 423.883 136.978 430.515 145.708C438.101 154.44 446.547 162.771 455.853 170.699C467.303 177.26 479.821 183.034 493.408 188.021C508.683 191.565 524.403 194.604 540.566 197.137C556.622 199.257 572.132 201.478 587.098 203.798C600.167 206.774 612.057 210.179 622.767 214.01Z" stroke="#05EDFD" stroke-width="2" stroke-linecap="round" stroke-dasharray="6 3"/>
<path opacity="0.59" d="M622 236.332C621.213 246.111 619.369 256.105 616.468 266.314C612.011 276.61 607.166 286.713 601.931 296.622C596.809 305.633 592.167 313.986 588.006 321.682C585.764 331.942 586.186 340.621 589.271 347.718C592.896 350.978 596.567 354.792 600.284 359.16C603.381 365.41 605.907 372.88 607.861 381.571C608.493 392.946 608.554 405.603 608.042 419.543C605.751 432.416 604.381 446.487 603.933 461.757C604.076 477.794 603.832 493.329 603.203 508.363C600.583 520.809 596.528 531.39 591.04 540.106C582.294 544.599 572.022 547.102 560.223 547.615C546.084 545.084 531.339 541.767 515.989 537.663C500.766 533.723 486.259 530.72 472.468 528.654C461.192 529.847 451.486 533.08 443.349 538.353C436.962 552.971 431.385 562.628 426.619 567.324C420.154 569.234 412.103 572.162 402.466 576.11C390.235 581.337 377.231 586.665 363.454 592.095C349.439 596.512 335.96 599.85 323.016 602.108C312.15 601.336 302.596 598.844 294.354 594.631C288.669 587.081 283.923 578.177 280.116 567.917C277.074 555.995 273.714 543.877 270.037 531.563C264.388 520.145 257.225 509.708 248.547 500.254C248.685 493.829 246.948 488.405 243.337 483.982C236.754 480.859 229.31 477.87 221.004 475.015C212.476 471.258 204.559 466.525 197.253 460.816C192.279 452.387 188.765 442.439 186.709 430.972C187.525 416.659 189.464 401.255 192.523 384.763C196.737 367.138 200.872 349.542 204.93 331.976C207.561 315.63 208.995 300.353 209.23 286.146C206.601 274.57 202.584 264.332 197.179 255.433C202.843 247.069 208.991 239.334 215.621 232.227C223.396 226.596 231.717 221.688 240.586 217.502C250.346 214.464 260.361 211.757 270.631 209.382C280.944 207.062 291.043 204.465 300.93 201.591C309.99 197.643 318.51 192.992 326.49 187.639C333.322 180.795 339.651 173.296 345.476 165.141C350.596 156.071 355.579 146.822 360.425 137.395C365.482 128.243 370.864 119.512 376.57 111.204C386.645 112.296 395.766 114.362 403.934 117.401C410.371 122.4 416.21 128.221 421.451 134.864C426.312 142.602 431.434 150.555 436.816 158.721C443.58 166.663 451.33 174.226 460.067 181.409C471.065 187.526 483.119 193.087 496.23 198.093C510.963 202.201 526.113 206.057 541.681 209.662C557.166 213.226 572.165 216.999 586.677 220.979C599.502 225.681 611.277 230.799 622 236.332Z" stroke="#05EDFD" stroke-width="2" stroke-linecap="round"/>
<path opacity="0.56" d="M616.977 254.359C614.837 262.375 611.752 270.595 607.722 279.017C602.309 287.642 596.563 296.21 590.484 304.72C584.558 312.773 579.108 320.442 574.136 327.73C570.419 338.99 569.649 349.162 571.825 358.243C575.643 362.527 579.762 367.196 584.183 372.251C588.452 378.692 592.316 386.082 595.776 394.421C597.961 404.982 599.43 416.691 600.181 429.547C597.924 442.496 596.217 456.276 595.06 470.886C594.014 485.664 592.515 499.763 590.561 513.183C586.844 523.929 581.947 532.897 575.872 540.085C567.206 543.364 557.332 544.827 546.252 544.477C533.317 541.314 519.87 537.378 505.91 532.67C491.935 527.938 478.446 523.947 465.444 520.695C454.282 520.208 444.316 521.526 435.546 524.648C429.362 531.685 424.369 540.513 420.568 551.133C417.399 549.531 412.918 549.057 407.125 549.709C398.606 552.408 388.916 555.858 378.056 560.06C365.665 564.968 353.046 569.754 340.201 574.416C328.034 577.848 316.717 580.252 306.25 581.628C298.139 580.372 291.321 577.691 285.794 573.585C282.539 566.795 280.041 558.936 278.298 550.007C276.956 539.741 275.177 529.28 272.961 518.623C268.687 508.517 262.922 499.079 255.666 490.309C255.739 483.306 254.046 477.012 250.586 471.429C244.271 466.784 237.069 462.261 228.982 457.86C220.452 452.865 212.364 447.186 204.72 440.824C199.065 432.479 194.757 422.98 191.797 412.326C191.737 399.386 192.968 385.49 195.492 370.638C199.822 354.555 204.524 338.288 209.599 321.837C214.232 305.935 218.112 290.719 221.239 276.189C222.085 263.652 221.611 252.255 219.819 241.999C225.915 234.904 232.455 228.487 239.44 222.745C247.413 218.483 255.831 214.899 264.696 211.996C274.263 210.138 284.011 208.561 293.943 207.266C303.868 205.95 313.6 204.348 323.138 202.459C331.978 199.505 340.36 195.867 348.285 191.545C355.241 185.748 361.747 179.278 367.803 172.136C373.196 163.981 378.418 155.573 383.469 146.914C388.558 138.313 393.858 130.024 399.37 122.047C406.756 124.639 413.224 128.012 418.775 132.168C422.914 137.725 426.701 143.801 430.135 150.398C433.697 157.565 437.743 164.777 442.27 172.035C448.457 178.94 455.691 185.529 463.972 191.801C474.455 197.311 485.924 202.483 498.381 207.316C512.278 211.717 526.535 216.072 541.15 220.379C555.653 224.968 569.717 229.86 583.344 235.055C595.477 241.065 606.688 247.5 616.977 254.359Z" stroke="#05EDFD" stroke-width="2" stroke-linecap="round" stroke-dasharray="4 4"/>
<path opacity="0.53" d="M608.971 268.165C605.964 274.707 602.135 281.476 597.484 288.471C591.621 295.81 585.466 303.223 579.019 310.71C572.714 318.125 566.842 325.386 561.404 332.492C556.432 345.018 554.431 356.929 555.401 368.224C558.967 373.726 563.035 379.476 567.605 385.475C572.487 392.418 577.173 400.033 581.663 408.319C585.156 418.274 587.945 429.132 590.029 440.893C587.509 453.622 585.262 466.832 583.287 480.524C581.115 493.867 578.486 506.403 575.401 518.132C570.813 527.206 565.28 534.609 558.802 540.341C550.321 542.532 540.911 543.083 530.573 541.992C518.787 538.343 506.585 533.959 493.968 528.841C481.236 523.533 468.822 518.781 456.726 514.583C445.911 512.65 435.975 512.271 426.918 513.444C419.857 518.147 413.77 524.571 408.658 532.717C402.877 531.815 395.926 531.892 387.805 532.95C377.634 535.597 366.763 538.743 355.193 542.387C343.105 546.325 331.248 550.025 319.623 553.486C309.376 555.762 300.179 557.158 292.03 557.675C284.065 551.268 278.89 541.939 276.505 529.688C276.53 521.232 276.061 512.599 275.098 503.788C272.109 495.273 267.713 487.18 261.911 479.51C261.907 471.762 260.293 464.504 257.068 457.736C251.202 451.667 244.47 445.719 236.873 439.891C228.676 433.75 220.77 427.178 213.152 420.177C207.159 411.859 202.347 402.73 198.718 392.789C197.846 381.16 198.315 368.777 200.126 355.638C204.16 341.37 208.902 326.823 214.353 311.999C220.246 297.266 225.847 282.917 231.157 268.952C234.979 256.305 237.741 244.517 239.442 233.587C245.896 227.813 252.744 222.734 259.986 218.351C268.034 215.395 276.436 213.062 285.19 211.352C294.468 210.554 303.87 209.984 313.398 209.641C322.877 209.214 332.19 208.492 341.336 207.475C349.899 205.428 358.089 202.722 365.906 199.356C372.912 194.557 379.537 189.084 385.781 182.937C391.421 175.724 396.877 168.185 402.149 160.322C417.789 154.542 429.381 156.802 436.927 167.103C439.712 173.389 443.145 179.606 447.228 185.753C453.1 191.524 459.999 197.052 467.925 202.337C477.878 207.158 488.689 211.816 500.357 216.311C513.23 220.729 526.363 225.257 539.758 229.895C552.978 235.039 565.785 240.563 578.179 246.467C589.246 253.257 599.51 260.49 608.971 268.165Z" stroke="#05EDFD" stroke-width="2" stroke-linecap="round" stroke-dasharray="7 3"/>
<path opacity="0.49" d="M599.279 278.434C595.847 283.923 591.7 289.672 586.838 295.681C580.912 302.174 574.718 308.848 568.259 315.702C561.879 322.771 555.854 329.87 550.184 337C545.788 344.051 542.241 351.02 539.544 357.906C538.774 364.625 538.969 371.302 540.13 377.937C543 384.639 546.512 391.499 550.666 398.516C555.518 406.114 560.398 414.138 565.304 422.591C569.636 432.152 573.411 442.347 576.629 453.174C573.635 465.343 570.723 477.691 567.893 490.219C564.712 501.995 561.107 512.888 557.078 522.899C551.832 530.339 545.856 536.254 539.15 540.644C530.936 541.851 522.03 541.606 512.432 539.909C501.74 535.928 490.719 531.25 479.369 525.874C467.861 520.182 456.543 514.88 445.413 509.966C435.134 506.854 425.474 505.033 416.433 504.504C408.843 507.038 402.014 511.16 395.944 516.871C387.83 516.084 378.833 516.059 368.954 516.794C357.837 518.648 346.476 520.81 334.871 523.28C323.596 525.799 312.893 528.065 302.763 530.077C286.531 525.325 277.406 517.622 275.389 506.966C276.386 500.276 276.87 493.448 276.84 486.482C274.913 479.652 271.706 473.065 267.22 466.718C267.253 458.243 265.862 450.109 263.046 442.316C257.854 435.065 251.84 427.948 245.005 420.966C237.478 413.915 230.101 406.647 222.873 399.162C216.883 390.912 211.885 382.154 207.878 372.89C206.314 362.509 206.042 351.593 207.063 340.141C210.459 327.803 214.779 315.186 220.024 302.29C226.389 289.251 232.877 276.376 239.489 263.663C245.481 251.707 250.777 240.318 255.379 229.499C262.11 225.082 269.164 221.35 276.541 218.305C284.549 216.567 292.819 215.388 301.35 214.765C310.256 214.914 319.239 215.233 328.3 215.723C337.301 216.072 346.157 216.122 354.866 215.875C363.112 214.637 371.058 212.78 378.706 210.302C385.708 206.454 392.395 201.951 398.767 196.794C404.618 190.529 410.284 183.884 415.766 176.859C428.431 172.383 437.219 174.979 442.131 184.647C444.641 189.903 447.894 195.036 451.889 200.045C457.673 204.708 464.403 209.208 472.077 213.545C481.499 217.64 491.62 221.709 502.442 225.75C514.16 229.955 526.04 234.369 538.082 238.994C549.836 244.27 561.187 249.955 572.136 256.051C586.065 267.019 595.112 274.48 599.279 278.434Z" stroke="#05EDFD" stroke-width="2" stroke-linecap="round" stroke-dasharray="3 1"/>
<path opacity="0.46" d="M589.059 286.396C585.523 291.285 581.362 296.467 576.578 301.942C570.848 307.982 564.855 314.281 558.6 320.839C552.327 327.806 546.306 334.922 540.537 342.189C535.78 349.645 531.732 357.15 528.395 364.703C526.729 372.292 525.949 379.904 526.055 387.539C527.853 395.262 530.354 403.08 533.557 410.994C537.751 419.217 542.179 427.683 546.839 436.393C551.387 445.726 555.607 455.433 559.497 465.515C555.92 476.812 552.318 488.036 548.692 499.188C544.652 509.307 540.255 518.513 535.499 526.809C529.798 532.696 523.559 537.212 516.781 540.355C508.906 540.704 500.535 539.788 491.666 537.606C482.011 533.4 472.1 528.554 461.935 523.068C451.605 517.164 441.374 511.511 431.241 506.109C421.645 502.073 412.454 499.07 403.669 497.101C395.898 497.714 388.674 499.721 381.997 503.122C372.263 501.86 362.003 501.139 351.215 500.959C340.003 501.518 328.928 502.253 317.99 503.166C308.017 504.041 298.833 504.718 290.437 505.197C279.881 498.981 274.957 491.341 275.665 482.278C276.936 471.865 275.714 461.53 272 451.275C272.251 442.258 271.271 433.494 269.059 424.983C264.747 416.932 259.679 409.04 253.856 401.308C247.271 393.696 240.719 386.026 234.2 378.299C228.531 370.239 223.639 361.925 219.525 353.358C217.456 344.166 216.535 334.647 216.764 324.798C219.298 314.365 222.85 303.713 227.42 292.845C233.528 281.766 240.083 270.728 247.085 259.729C254.25 249.09 261.125 238.773 267.71 228.778C274.589 225.721 281.718 223.302 289.097 221.52C296.933 220.919 304.958 220.793 313.174 221.142C321.629 222.119 330.13 223.204 338.677 224.397C347.147 225.413 355.504 226.13 363.748 226.551C371.63 226.05 379.281 224.968 386.699 223.305C393.626 220.37 400.301 216.805 406.726 212.611C412.725 207.313 418.558 201.601 424.224 195.474C435.113 191.802 442.4 194.225 446.086 202.745C448.758 206.995 452.193 211.106 456.39 215.077C462.246 218.768 468.916 222.363 476.399 225.862C485.295 229.289 494.718 232.769 504.667 236.303C515.213 240.146 525.802 244.239 536.433 248.582C546.68 253.612 556.52 259.047 565.955 264.886C577.819 275.42 585.521 282.59 589.059 286.396Z" stroke="#05EDFD" stroke-width="2" stroke-linecap="round"/>
<path opacity="0.43" d="M579.099 293.513C575.644 298.221 571.642 303.23 567.093 308.542C561.676 314.459 555.993 320.663 550.045 327.152C543.962 334.14 538.027 341.344 532.239 348.762C527.167 356.521 522.64 364.399 518.657 372.397C516.042 380.568 514.19 388.805 513.101 397.106C513.553 405.512 514.707 413.974 516.564 422.491C519.574 431.168 522.971 439.949 526.755 448.833C530.866 457.993 534.896 467.325 538.846 476.832C534.685 486.966 530.444 496.843 526.121 506.463C521.418 514.867 516.437 522.384 511.177 529.013C505.227 533.437 498.899 536.657 492.193 538.671C484.732 538.276 476.931 536.795 468.79 534.228C460.098 529.905 451.224 525 442.168 519.515C432.957 513.557 423.791 507.733 414.671 502.043C405.855 497.324 397.291 493.407 388.977 490.292C381.314 489.25 374.021 489.39 367.098 490.711C356.7 488.532 346.143 486.711 335.425 485.248C324.969 484.269 314.931 483.402 305.313 482.646C291.478 480.696 280.493 478.194 272.358 475.139C275.379 464.187 278.576 454.021 281.951 444.641C281.272 440.714 279.623 436.863 277.004 433.087C277.641 423.875 277.233 414.872 275.782 406.076C272.504 397.7 268.542 389.498 263.895 381.471C258.45 373.695 252.927 365.975 247.329 358.312C242.247 350.632 237.718 342.88 233.744 335.056C231.362 326.993 229.939 318.783 229.472 310.425C231.049 301.76 233.616 292.97 237.173 284.054C242.448 274.977 248.373 265.889 254.946 256.789C262.274 247.83 269.682 239.023 277.171 230.369C284.042 228.629 291.093 227.463 298.325 226.872C305.866 227.292 313.533 228.101 321.325 229.299C329.264 230.965 337.22 232.699 345.194 234.499C353.104 236.073 360.92 237.361 368.644 238.362C376.109 238.517 383.407 238.14 390.539 237.232C397.299 235.157 403.877 232.494 410.275 229.242C416.333 224.929 422.256 220.176 428.046 214.984C438.353 211.877 445.391 213.942 449.159 221.178C452.29 224.576 456.138 227.843 460.703 230.98C466.713 233.918 473.375 236.807 480.689 239.648C489.061 242.513 497.79 245.472 506.874 248.527C516.254 251.924 525.585 255.568 534.867 259.46C543.644 263.988 552.02 268.885 559.992 274.152C569.829 283.633 576.198 290.087 579.099 293.513Z" stroke="#05EDFD" stroke-width="2" stroke-linecap="round" stroke-dasharray="9 7"/>
<path opacity="0.4" d="M569.706 301.303C566.401 306.127 562.613 311.237 558.342 316.632C553.268 322.602 547.914 328.844 542.28 335.36C536.399 342.389 530.568 349.645 524.787 357.127C519.443 364.981 514.483 372.986 509.907 381.141C506.368 389.527 503.435 397.996 501.108 406.549C500.102 415.214 499.746 423.921 500.04 432.668C501.506 441.472 503.448 450.301 505.864 459.155C508.935 468.068 512.146 477.018 515.498 486.006C510.842 494.75 506.094 503.11 501.255 511.086C496.108 517.791 490.764 523.658 485.225 528.686C479.215 531.764 472.963 533.808 466.469 534.818C459.491 533.788 452.291 531.844 444.871 528.985C437.102 524.63 429.21 519.757 421.195 514.366C413.057 508.485 404.93 502.641 396.816 496.832C388.859 491.683 381.04 487.116 373.359 483.132C366.052 480.751 358.975 479.322 352.128 478.844C342.12 475.54 332.258 472.476 322.541 469.651C313.571 467.153 305.179 464.753 297.365 462.45C285.267 449.275 280.485 438.725 283.017 430.799C284.945 424.666 284.966 418.649 283.08 412.747C284.22 403.78 284.483 394.996 283.869 386.396C281.689 378.181 278.895 370.149 275.486 362.298C271.264 354.761 266.887 347.353 262.355 340.075C258.029 332.968 254.051 325.91 250.423 318.901C247.922 311.907 246.161 304.899 245.139 297.874C245.787 290.787 247.311 283.659 249.711 276.49C253.775 269.267 258.567 262.038 264.087 254.803C270.72 247.616 277.7 240.493 285.024 233.434C291.717 232.931 298.527 232.92 305.453 233.4C312.575 234.702 319.769 236.31 327.036 238.224C334.381 240.467 341.732 242.735 349.089 245.026C356.376 247.056 363.604 248.819 370.771 250.316C377.757 251.045 384.63 251.3 391.39 251.08C397.9 249.81 404.283 248.006 410.54 245.666C416.558 242.323 422.472 238.546 428.284 234.335C439.005 231.844 446.78 233.666 451.608 239.8C455.341 242.582 459.7 245.259 464.684 247.829C470.824 250.267 477.452 252.681 484.569 255.071C492.4 257.534 500.427 260.088 508.651 262.735C516.941 265.693 525.093 268.865 533.108 272.251C540.555 276.149 547.598 280.349 554.235 284.852C562.229 292.907 567.386 298.391 569.706 301.303Z" stroke="#05EDFD" stroke-width="2" stroke-linecap="round" stroke-dasharray="11 2"/>
<path opacity="0.37" d="M560.739 310.991C553.535 321.633 544.866 333.241 534.734 345.815C523.303 360.132 512.275 375.128 501.65 390.806C493.831 407.389 488.059 424.186 484.335 441.197C484.883 458.27 487.049 475.245 490.833 492.123C480.698 505.623 470.161 516.672 459.22 525.271C447.195 527.268 434.627 525.962 421.516 521.351C407.597 511.825 393.518 501.33 379.281 489.865C365.289 479.938 351.681 472.306 338.458 466.97C321.784 458.556 307.084 450.698 294.357 443.395C287.16 436.76 282.759 430.311 281.155 424.048C286.76 412.589 290.04 401.726 290.995 391.459C292.864 375.23 292.132 359.684 288.799 344.822C282.346 331.278 275.809 318.257 269.191 305.757C265.364 293.949 264.011 282.326 265.132 270.889C271.931 259.655 281.153 248.52 292.801 237.484C305.604 239.495 318.617 242.762 331.84 247.284C345.201 252.646 358.474 257.476 371.66 261.773C384.404 263.38 396.851 263.182 409.001 261.178C420.557 255.556 431.892 248.592 443.007 240.287C444.636 246.876 448.179 252.944 453.633 258.491C463.272 263.217 474.59 267.754 487.588 272.103C502.21 276.69 516.584 281.731 530.71 287.227C542.465 294.206 552.474 302.127 560.739 310.991Z" stroke="#05EDFD" stroke-width="2" stroke-linecap="round" stroke-dasharray="10 10"/>
<path opacity="0.34" d="M551.7 323.284C544.741 334.247 536.439 345.932 526.792 358.34C515.634 372.041 504.516 386.263 493.44 401.006C484.069 416.452 476.2 432.061 469.833 447.832C467.056 463.591 465.963 479.183 466.554 494.608C456.228 504.862 445.693 512.857 434.949 518.592C423.691 518.795 412.186 516.326 400.432 511.184C388.306 502.019 376.094 491.935 363.797 480.931C351.574 470.663 339.496 461.977 327.56 454.871C315.038 444.819 304.573 435.292 296.165 426.289C292.443 418.22 290.806 410.573 291.254 403.347C297.072 391.538 300.382 380.712 301.185 370.869C304.223 356.726 305.063 343.165 303.706 330.187C299.395 318.394 294.648 307.141 289.465 296.429C285.698 286.606 283.592 277.123 283.147 267.979C287.145 259.327 293.389 250.837 301.878 242.511C313.586 246.191 325.375 250.784 337.246 256.291C349.157 262.231 361.022 267.637 372.841 272.509C384.436 275.046 395.891 276.033 407.205 275.47C418.216 271.704 429.108 266.626 439.882 260.235C443.237 266.294 448.38 271.932 455.312 277.146C465.52 281.736 476.843 286.171 489.281 290.451C502.387 294.821 515.003 299.442 527.127 304.313C540.194 313.509 548.386 319.832 551.7 323.284Z" stroke="#05EDFD" stroke-width="2" stroke-linecap="round" stroke-dasharray="8 1"/>
<path opacity="0.3" d="M541.872 338.249C535.055 349.16 527.044 360.53 517.839 372.359C507.067 384.977 496.088 397.911 484.9 411.161C474.546 424.835 465.18 438.599 456.802 452.451C451.17 466.249 447.032 479.886 444.389 493.362C434.347 500.518 424.258 505.699 414.122 508.906C403.888 507.651 393.607 504.291 383.279 498.824C372.887 490.148 362.474 480.638 352.038 470.295C341.606 460.125 331.196 450.944 320.808 442.753C312.839 431.926 306.685 421.613 302.344 411.814C301.554 403.036 302.146 394.76 304.12 386.987C309.858 374.522 313.045 363.117 313.681 352.772C317.549 341.199 319.6 330.068 319.835 319.378C317.363 309.621 314.251 300.31 310.498 291.445C307.103 283.41 304.66 275.731 303.169 268.408C304.743 261.675 308.128 255.161 313.324 248.867C323.682 253.807 334.053 259.352 344.437 265.503C354.824 271.764 365.196 277.517 375.554 282.761C385.874 286.021 396.166 287.994 406.43 288.68C416.633 286.621 426.809 283.351 436.958 278.871C442.036 284.779 448.571 290.378 456.563 295.668C466.828 300.479 477.709 305.138 489.206 309.644C500.686 314.041 511.548 318.492 521.793 322.999C532.511 330.491 539.204 335.575 541.872 338.249Z" stroke="#05EDFD" stroke-width="2" stroke-linecap="round" stroke-dasharray="4 5"/>
<path opacity="0.27" d="M530.562 355.259C523.87 365.596 516.164 376.142 507.444 386.9C497.252 397.995 486.712 409.209 475.824 420.54C465.157 432.007 455.041 443.487 445.474 454.98C437.763 466.354 431.214 477.608 425.827 488.741C416.495 493.09 407.242 495.812 398.067 496.906C389.06 494.531 380.127 490.557 371.267 484.982C362.535 476.921 353.837 468.137 345.175 458.631C336.515 448.931 327.832 439.778 319.126 431.17C315.424 420.477 313.103 410.246 312.162 400.476C313.579 391.651 315.781 383.286 318.767 375.382C322.274 368.321 325.465 361.628 328.34 355.305C329.51 349.592 329.411 344.112 328.044 338.865C332.336 330.02 335.166 321.468 336.535 313.208C335.541 305.541 333.829 298.183 331.4 291.132C332.606 276.638 340.144 271.416 354.016 275.467C362.832 281.794 371.671 287.651 380.532 293.039C389.472 296.809 398.465 299.543 407.512 301.241C416.661 300.686 425.861 299.073 435.112 296.404C441.462 302.439 448.828 308.263 457.207 313.876C466.922 319.09 476.871 324.132 487.052 329.001C496.784 333.579 505.87 338.053 514.31 342.422C522.99 348.833 528.408 353.112 530.562 355.259Z" stroke="#05EDFD" stroke-width="2" stroke-linecap="round" stroke-dasharray="9 2"/>
<path opacity="0.24" d="M517.308 373.062C510.836 382.288 503.554 391.529 495.462 400.785C486.098 410.022 476.344 419.222 466.201 428.387C455.881 437.454 445.795 446.458 435.943 455.4C427.149 464.175 419.124 472.844 411.867 481.405C403.606 483.374 395.496 484.079 387.537 483.52C379.89 480.393 372.38 476.094 365.006 470.623C357.854 463.291 350.773 455.368 343.762 446.854C336.797 437.955 329.804 429.287 322.784 420.848C322.525 411.042 323.159 401.608 324.685 392.544C327.526 384.209 330.694 376.219 334.19 368.575C337.614 361.542 340.62 354.766 343.209 348.247C344.291 342.147 344.37 336.203 343.444 330.414C348.841 318.336 351.442 306.69 351.246 295.477C350.763 284.572 355.643 281.684 365.886 286.814C373.153 292.948 380.465 298.676 387.822 303.998C395.331 308.043 402.936 311.287 410.636 313.731C418.546 314.41 426.56 314.219 434.678 313.16C441.524 319.438 448.949 325.556 456.955 331.513C465.54 337.107 474.1 342.507 482.634 347.712C490.507 352.504 497.792 357.089 504.488 361.469C511.333 367.343 515.606 371.208 517.308 373.062Z" stroke="#05EDFD" stroke-width="2" stroke-linecap="round" stroke-dasharray="3 8"/>
<path opacity="0.21" d="M502.031 390.046C495.985 397.714 489.333 405.274 482.075 412.725C473.807 419.934 465.175 427.016 456.181 433.973C446.832 440.679 437.506 447.269 428.202 453.744C419.342 459.994 410.9 466.144 402.874 472.194C395.943 472.305 389.184 471.497 382.598 469.772C376.363 466.24 370.282 461.893 364.353 456.729C358.683 450.249 353.102 443.306 347.609 435.902C342.193 428.061 336.773 420.255 331.35 412.483C333.389 404.076 335.891 395.912 338.858 387.992C342.348 380.538 345.881 373.287 349.456 366.237C352.64 359.535 355.4 352.97 357.736 346.542C360.656 335.26 364.198 325.087 368.362 316.023C374.871 306.012 384.337 306.067 396.763 316.186C402.842 320.272 409.034 323.764 415.341 326.661C421.896 328.254 428.579 329.184 435.388 329.451C441.862 335.853 448.567 342.116 455.502 348.24C462.498 354.01 469.33 359.571 475.997 364.926C489.868 377.836 498.546 386.209 502.031 390.046Z" stroke="#05EDFD" stroke-width="2" stroke-linecap="round" stroke-dasharray="3 1"/>
<path opacity="0.18" d="M485.105 404.448C473.554 415.848 460.554 426.598 446.105 436.699C430.132 445.586 414.286 453.981 398.567 461.883C387.939 458.289 377.925 452.374 368.523 444.138C360.057 432.399 351.8 419.864 343.75 406.533C350.319 393.195 356.989 380.267 363.762 367.749C368.661 355.714 371.76 343.757 373.06 331.876C382.731 321.195 393.774 320.526 406.189 329.87C415.811 336.819 425.905 341.989 436.472 345.381C447.172 357.52 457.46 368.997 467.336 379.815C477.028 392.595 482.951 400.806 485.105 404.448Z" stroke="#05EDFD" stroke-width="2" stroke-linecap="round" stroke-dasharray="8 9"/>
<path opacity="0.15" d="M467.372 414.703C457.991 422.452 447.671 429.603 436.412 436.153C423.865 441.576 411.093 446.534 398.096 451.027C390.311 446.49 382.996 440.57 376.151 433.269C370.049 423.816 364.159 413.745 358.481 403.055C364.809 392.732 370.832 382.465 376.551 372.255C380.662 361.955 383.575 351.527 385.288 340.969C395.013 334.99 404.76 336.284 414.529 344.849C421.574 351.269 429 356.568 436.805 360.746C444.1 371.602 450.85 381.906 457.054 391.657C462.725 403.543 466.164 411.225 467.372 414.703Z" stroke="#05EDFD" stroke-width="2" stroke-linecap="round" stroke-dasharray="10 9"/>
<path opacity="0.11" d="M449.919 419.664C443.006 424.251 435.561 428.407 427.585 432.131C418.758 435.044 409.648 437.605 400.255 439.813C395.08 435.302 390.2 430.075 385.616 424.132C381.523 417.044 377.602 409.552 373.852 401.655C378.769 394.135 383.333 386.507 387.545 378.772C393.61 365.841 399.414 355.932 404.957 349.045C408.587 348.365 413.676 352.193 420.222 360.529C424.958 365.936 429.947 370.736 435.189 374.929C439.121 383.639 442.612 391.963 445.661 399.901C448.076 410.013 449.495 416.6 449.919 419.664Z" stroke="#05EDFD" stroke-width="2" stroke-linecap="round" stroke-dasharray="4 2"/>
<path opacity="0.08" d="M433.989 418.802C424.748 422.747 414.674 425.833 403.767 428.062C398.139 420.192 392.997 411.35 388.341 401.537C393.929 391.379 398.508 380.715 402.08 369.546C411.325 370.796 420.834 376.631 430.606 387.052C432.784 403.351 433.912 413.934 433.989 418.802Z" stroke="#05EDFD" stroke-width="2" stroke-linecap="round" stroke-dasharray="8 1"/>
</g>
</svg>
