<svg width="126" height="142" viewBox="0 0 126 142" fill="none" xmlns="http://www.w3.org/2000/svg">
<path d="M36.3372 120.808C35.9737 120.808 35.6882 120.522 35.6882 120.159V83.2126C35.6882 82.8491 35.9737 82.5635 36.3372 82.5635C36.7007 82.5635 36.9862 82.8491 36.9862 83.2126V120.159C36.9862 120.522 36.7007 120.808 36.3372 120.808Z" fill="#396CAA"/>
<path d="M39.5433 80.8887H33.1309V94.7402H39.5433V80.8887Z" fill="#5793CE"/>
<path d="M38.6088 96.0513C37.3497 96.7783 35.3247 96.7783 34.0656 96.0513C32.8064 95.3244 32.8064 94.156 34.0656 93.429C35.3247 92.702 37.3497 92.702 38.6088 93.429C39.8679 94.156 39.8679 95.3244 38.6088 96.0513Z" fill="#5793CE"/>
<path d="M41.5428 61.585H31.1453V83.3035H41.5428V61.585Z" fill="#5793CE"/>
<path d="M33.1309 83.1748V87.8612C35.0131 88.718 37.6612 88.718 39.5434 87.8612V83.1748C37.6612 82.318 35.0131 82.318 33.1309 83.1748Z" fill="#396CAA"/>
<path d="M40.0238 85.4328C37.9988 86.6012 34.7018 86.6012 32.6638 85.4328C30.6388 84.2645 30.6388 82.3562 32.6638 81.1878C34.6888 80.0194 37.9859 80.0194 40.0238 81.1878C42.0488 82.3562 42.0488 84.2645 40.0238 85.4328Z" fill="#5793CE"/>
<path d="M72.3712 141.085C72.0077 141.085 71.7222 140.8 71.7222 140.436V103.49C71.7222 103.126 72.0077 102.841 72.3712 102.841C72.7347 102.841 73.0202 103.126 73.0202 103.49V140.436C73.0202 140.8 72.7347 141.085 72.3712 141.085Z" fill="#396CAA"/>
<path d="M75.5773 101.166H69.1648V115.018H75.5773V101.166Z" fill="#5793CE"/>
<path d="M74.643 116.329C73.3838 117.056 71.3589 117.056 70.0997 116.329C68.8406 115.602 68.8406 114.433 70.0997 113.706C71.3589 112.979 73.3838 112.979 74.643 113.706C75.9021 114.433 75.9021 115.602 74.643 116.329Z" fill="#5793CE"/>
<path d="M77.5637 81.8633H67.1661V103.582H77.5637V81.8633Z" fill="#5793CE"/>
<path d="M69.1649 103.451V108.138C71.0471 108.994 73.6952 108.994 75.5774 108.138V103.451C73.6952 102.594 71.0471 102.594 69.1649 103.451Z" fill="#396CAA"/>
<path d="M76.0448 105.711C74.0198 106.88 70.7228 106.88 68.6848 105.711C66.6598 104.543 66.6598 102.634 68.6848 101.466C70.7098 100.298 74.0069 100.298 76.0448 101.466C78.0698 102.634 78.0698 104.543 76.0448 105.711Z" fill="#5793CE"/>
<path d="M107.393 117.913L121.335 109.696L108.055 93.1182L104.563 98.8172L107.393 117.913Z" fill="#42A2E8"/>
<path d="M6.13135 26.9377L28.3932 14.1377C28.3932 14.1377 27.5625 26.9118 27.5625 26.9377C27.5625 26.9637 14.7765 30.8972 14.7765 30.8972L6.14433 26.9377H6.13135Z" fill="#25CBBF"/>
<path d="M111.262 76.2284C109.574 75.2548 107.952 74.6836 106.446 74.4499C104.2 62.6625 95.9965 50.1351 86.209 44.488C83.2624 42.7874 80.4716 41.8787 77.9273 41.684C76.5903 27.391 66.6471 11.1379 54.5881 4.17964C48.2795 0.544748 42.568 0.103361 38.3492 2.33622L38.1416 2.44008C38.0377 2.50499 37.9209 2.55692 37.817 2.62182L24.6936 10.3719L29.0551 13.8121C25.1349 15.5257 22.6686 19.9135 22.6686 26.4044C22.6686 38.3736 31.0671 52.9262 41.4386 58.9108L111.262 108.774C119.05 113.265 125.359 109.631 125.359 100.634C125.359 91.6378 119.05 80.7201 111.262 76.2284Z" fill="#42A2E8"/>
<path d="M23.3176 21.1344L53.4328 3.5311C47.5915 0.480386 42.3083 0.233732 38.3362 2.3238L38.1285 2.42764C38.0247 2.49255 37.9079 2.54448 37.804 2.60939L24.6805 10.3595L29.0421 13.7997C26.3031 14.994 24.2781 17.4995 23.3046 21.1214L23.3176 21.1344Z" fill="#42A2E8"/>
<path d="M78.9399 72.9061L100.916 60.0022C97.1518 53.4853 91.9596 47.7863 86.2091 44.463C85.4433 44.0216 84.7034 43.6451 83.9635 43.3076L56.0161 59.6517L78.9529 72.8931L78.9399 72.9061Z" fill="#42A2E8"/>
<path d="M30.8855 11.7998L40.6729 17.4599L58.6122 6.89271C57.3012 5.88014 55.9512 4.95843 54.5882 4.16655C52.4205 2.90732 50.3176 2.05052 48.3186 1.53125L30.8855 11.7998Z" fill="#63FEF7"/>
<path d="M98.5017 56.2109L80.9648 66.5444L87.0658 73.3469L102.993 63.9481C101.734 61.2479 100.215 58.6385 98.5147 56.2109H98.5017Z" fill="#63FEF7"/>
<path d="M97.4892 84.3425C95.7888 83.3688 94.1791 82.7976 92.6734 82.5639C90.4277 70.7765 82.2239 58.2491 72.4365 52.602C69.4899 50.9014 66.6991 49.9927 64.1548 49.798C62.8178 35.505 52.8746 19.2519 40.8156 12.2936C27.8349 4.80316 17.3205 10.8786 17.3205 25.8596C17.3205 26.3659 17.3335 26.8851 17.3595 27.3914C7.87059 22.9906 0.458618 27.9496 0.458618 39.1919C0.458618 51.161 8.85712 65.7136 19.2287 71.6982L97.5022 116.901C105.291 121.392 111.599 117.758 111.599 108.761C111.599 99.7648 105.291 88.8471 97.5022 84.3554L97.4892 84.3425Z" fill="#025CF1"/>
<path d="M17.3468 27.3785C17.3209 26.8593 17.3079 26.353 17.3079 25.8467V25.7818C12.0637 23.7436 7.5594 24.6264 4.72961 27.8978C7.80604 25.3664 12.2714 25.0288 17.3468 27.3785Z" fill="url(#paint0_linear_2_3553)"/>
<path d="M98.632 83.2268C96.9445 82.2532 95.3219 81.682 93.8161 81.4483C91.5705 69.6609 83.3667 57.1335 73.5793 51.4864C70.6326 49.7858 67.8418 48.8771 65.2976 48.6824C63.9606 34.3894 54.0174 18.1363 41.9583 11.178C33.8713 6.50459 26.7449 7.11473 22.5132 11.8531C26.8228 8.16625 33.417 8.02346 40.816 12.2945C52.888 19.2657 62.8183 35.5059 64.1553 49.7988C66.6995 49.9935 69.4903 50.9022 72.437 52.6029C82.2244 58.2499 90.4282 70.7773 92.6738 82.5648C94.1796 82.7984 95.7892 83.3696 97.4897 84.3433C105.278 88.835 111.587 99.7656 111.587 108.749C111.587 111.994 110.756 114.526 109.341 116.252C111.457 114.63 112.729 111.683 112.729 107.633C112.729 98.6492 106.42 87.7185 98.632 83.2268Z" fill="url(#paint1_linear_2_3553)"/>
<path d="M15.6979 30.949L21.5781 33.6751L21.2796 27.1972C21.2536 26.7429 21.2406 26.2885 21.2406 25.8471C21.2406 20.0573 22.993 15.8641 26.1603 14.0337C29.3276 12.2033 33.8319 12.7875 38.8425 15.6824C49.6164 21.9007 59.0144 37.0374 60.2346 50.149L60.5462 53.4464L63.8562 53.706C65.8942 53.8618 68.1139 54.6277 70.4764 55.9908C79.0306 60.9369 86.7412 72.4127 88.8181 83.2915L89.3373 86.0176L92.0762 86.446C93.1666 86.6148 94.3349 87.0562 95.5291 87.7572C102.097 91.5478 107.653 101.167 107.653 108.762C107.653 111.605 106.861 113.682 105.498 114.474C104.122 115.266 101.929 114.902 99.4622 113.487L21.1887 68.2845C12.0893 63.0269 4.39172 49.7076 4.39172 39.1794C4.39172 35.0512 5.61191 31.9096 7.72776 30.5595C8.59746 30.0013 9.66188 29.7287 10.8431 29.7287C12.297 29.7287 13.9455 30.1441 15.6979 30.9619V30.949Z" fill="#025CF1"/>
<path d="M54.7572 80.0199L56.8211 78.9814L54.7962 77.4365L54.7572 80.0199Z" fill="#5793CE"/>
<path d="M48.5652 52.1219L50.5642 51.1094L50.6032 52.1609L48.5652 52.1219Z" fill="#5793CE"/>
<path d="M60.6504 73.4905L62.7403 72.439L58.7163 68.6094L60.6504 73.4905Z" fill="#5793CE"/>
<path d="M56.2238 78.9173L46.4494 73.1534C45.9561 72.8548 45.5537 72.1278 45.5537 71.5047L45.5797 60.1846L57.1584 67L57.1325 78.3201C57.1325 78.9303 56.7301 79.2029 56.2368 78.9043L56.2238 78.9173Z" fill="#5793CE"/>
<path d="M50.5386 51.1226L39.9853 57.9121C39.531 58.1977 39.8944 59.2752 40.5824 59.6776L51.3693 66.0257L62.1563 72.3738C62.8313 72.7762 63.2077 72.1271 62.7534 71.3093L52.265 52.1222C51.8107 51.2914 51.0059 50.8111 50.5386 51.1096V51.1226Z" fill="#5793CE"/>
<path d="M54.1213 79.968L44.3468 74.2041C43.8536 73.9056 43.4512 73.1786 43.4512 72.5555L43.4771 61.2354L55.0559 68.0508L55.0299 79.3709C55.0299 79.981 54.6275 80.2536 54.1343 79.9551L54.1213 79.968Z" fill="url(#paint2_linear_2_3553)"/>
<path d="M48.4486 52.1744L37.8953 58.9638C37.441 59.2494 37.8045 60.3269 38.4924 60.7294L49.2794 67.0775L60.0663 73.4255C60.7413 73.828 61.1178 73.1789 60.6634 72.361L50.1751 53.174C49.7207 52.3431 48.9159 51.8628 48.4486 52.1614V52.1744Z" fill="url(#paint3_linear_2_3553)"/>
<path d="M35.3506 92.3393C35.3506 92.9754 34.9092 93.235 34.351 92.9105C33.7929 92.5859 33.3515 91.82 33.3515 91.1839C33.3515 90.5478 33.7929 90.2882 34.351 90.6127C34.8962 90.9372 35.3506 91.7032 35.3506 92.3393Z" fill="#D4ECFF"/>
<path d="M71.4628 112.914C71.4628 113.551 71.0215 113.81 70.4633 113.486C69.9052 113.161 69.4638 112.395 69.4638 111.759C69.4638 111.123 69.9052 110.863 70.4633 111.188C71.0215 111.512 71.4628 112.278 71.4628 112.914Z" fill="#D4ECFF"/>
<defs>
<linearGradient id="paint0_linear_2_3553" x1="4.23883" y1="24.6914" x2="27.6888" y2="26.4726" gradientUnits="userSpaceOnUse">
<stop stop-color="#025CF1"/>
<stop offset="0.384573" stop-color="#05F0FD"/>
<stop offset="1" stop-color="#7D48E4"/>
</linearGradient>
<linearGradient id="paint1_linear_2_3553" x1="19.004" y1="7.96975" x2="187.6" y2="10.6812" gradientUnits="userSpaceOnUse">
<stop stop-color="#025CF1"/>
<stop offset="0.384573" stop-color="#05F0FD"/>
<stop offset="1" stop-color="#7D48E4"/>
</linearGradient>
<linearGradient id="paint2_linear_2_3553" x1="42.9998" y1="61.2354" x2="64.6893" y2="61.4932" gradientUnits="userSpaceOnUse">
<stop stop-color="#025CF1"/>
<stop offset="0.384573" stop-color="#05F0FD"/>
<stop offset="1" stop-color="#7D48E4"/>
</linearGradient>
<linearGradient id="paint3_linear_2_3553" x1="36.7926" y1="52.0723" x2="80.0826" y2="52.9738" gradientUnits="userSpaceOnUse">
<stop stop-color="#025CF1"/>
<stop offset="0.384573" stop-color="#05F0FD"/>
<stop offset="1" stop-color="#7D48E4"/>
</linearGradient>
</defs>
</svg>
