<svg width="69" height="89" viewBox="0 0 69 89" fill="none" xmlns="http://www.w3.org/2000/svg">
<path d="M2.72218 54.0748L60.9836 87.7149C62.2012 88.4194 63.6884 88.4368 64.9234 87.7758L65.3061 87.5671L64.906 87.7149C63.958 88.0802 62.9318 87.3757 62.9318 86.3582L62.9318 46.3605C62.9318 44.8559 62.1316 43.4644 60.8271 42.7077L2.32211 8.92845C1.28716 8.32835 0 9.0763 0 10.2678L0 49.3523C0 51.3004 1.04364 53.1007 2.73087 54.0748H2.72218Z" fill="url(#paint3_linear_2_3928)"/>
<path d="M37.0812 49.156L37.0812 58.8236L33.2612 53.6368L29.4412 54.4126L25.6213 49.2258L21.8013 50.0017L21.8013 40.3341C21.8013 38.0083 22.6062 36.2424 24.039 35.425C25.4717 34.6075 27.415 34.8055 29.4413 35.9754C31.4675 37.1453 33.4108 39.1911 34.8435 41.663C36.2763 44.1348 37.0812 46.8302 37.0812 49.156Z" fill="white"/>
<path d="M28.5616 54.6521L25.6205 55.2499L22.679 51.2558L25.6205 50.6583L28.5616 54.6521Z" fill="white"/>
<path d="M32.383 59.9021L29.4419 60.5006L26.5003 56.5058L29.4419 55.9083L32.383 59.9021Z" fill="white"/>
<path d="M36.2023 59.0636L33.2607 59.6611L30.3192 55.6669L33.2607 55.0694L36.2023 59.0636Z" fill="white"/>
<path style="mix-blend-mode:color-dodge" d="M64.9065 87.7139C63.9585 88.0792 62.9323 87.3747 62.9323 86.3571L62.9323 46.3595C62.9323 44.8549 62.1321 43.4633 60.8276 42.7067L2.32259 8.92741C1.64422 8.53604 0.852789 8.73608 0.391846 9.2492C0.809304 9.06656 1.31373 9.06656 1.76598 9.32747L60.271 43.1068C61.5755 43.8634 62.3756 45.2549 62.3756 46.7595L62.3756 86.7572C62.3756 87.5138 62.941 88.0965 63.628 88.1922C64.0716 88.1226 64.5151 87.9835 64.9239 87.7661L65.3065 87.5573L64.9065 87.7052V87.7139Z" fill="url(#paint4_radial_2_3928)"/>
<defs>
<linearGradient id="paint3_linear_2_3928" x1="52.7167" y1="36.8959" x2="11.5478" y2="103.258" gradientUnits="userSpaceOnUse">
<stop stop-color="#1170FF"/>
<stop offset="1" stop-color="#5E9BDB"/>
</linearGradient>
<radialGradient id="paint4_radial_2_3928" cx="0" cy="0" r="1" gradientUnits="userSpaceOnUse" gradientTransform="translate(23.9956 48.6729) scale(36.284 36.284)">
<stop stop-color="white"/>
<stop offset="1"/>
</radialGradient>
</defs>
</svg>