<svg width="122" height="158" viewBox="0 0 122 158" fill="none" xmlns="http://www.w3.org/2000/svg">
<path d="M65.4352 22.8798V30.6262L13.4679 0.630181C11.6279 -0.436686 9.3396 0.893034 9.3396 3.01131L9.3396 98.6273L108.496 156.254C110.816 157.599 113.707 157.568 115.98 156.145L118.098 154.831C120.046 153.625 121.237 151.491 121.237 149.188L121.237 54.6539C121.237 51.979 119.814 49.5051 117.495 48.1599L69.579 20.4986C67.739 19.4318 65.4506 20.7615 65.4506 22.8798H65.4352Z" fill="url(#paint0_linear_62_785)"/>
<g style="mix-blend-mode:color-dodge">
<path style="mix-blend-mode:color-dodge" d="M12.3406 1.55716L64.3078 31.5531V29.9451L13.4693 0.598522C12.1396 -0.159109 10.5934 0.320213 9.82031 1.44893C10.5779 1.09331 11.5056 1.07784 12.3251 1.55716H12.3406Z" fill="url(#paint1_radial_62_785)"/>
<path style="mix-blend-mode:color-dodge" d="M117.497 48.1592L69.5811 20.4979C68.2514 19.7403 66.7052 20.2196 65.9321 21.3483C66.6898 20.9927 67.6175 20.9772 68.4369 21.4566L116.353 49.1178C118.672 50.463 120.095 52.9369 120.095 55.6118L120.095 150.146C120.095 151.862 119.43 153.485 118.286 154.707C120.126 153.485 121.239 151.429 121.239 149.202L121.239 54.6686C121.239 51.9937 119.817 49.5198 117.497 48.1746V48.1592Z" fill="url(#paint2_radial_62_785)"/>
</g>
<path d="M4.23438 90.0912L116.132 154.691L116.132 69.7744L4.23438 5.1748L4.23438 90.0912Z" fill="white" fill-opacity="0.66"/>
<path d="M5.10128 96.3692L108.68 156.176C110.845 157.428 113.489 157.459 115.684 156.284L116.365 155.913L115.653 156.176C113.968 156.825 112.144 155.573 112.144 153.764L112.144 82.6545C112.144 79.9796 110.721 77.5057 108.402 76.1606L4.39003 16.1067C2.55007 15.0399 0.261719 16.3696 0.261719 18.4879L0.261719 87.9734C0.261719 91.4369 2.11714 94.6375 5.11674 96.3692H5.10128Z" fill="url(#paint3_linear_62_785)"/>
<path d="M66.1862 87.6225L66.1862 104.81L59.3949 95.5884L52.6036 96.9678L45.8123 87.7465L39.021 89.1259L39.021 71.9387C39.021 67.8037 40.452 64.6642 42.9992 63.211C45.5465 61.7578 49.0012 62.1098 52.6036 64.1896C56.2059 66.2694 59.6607 69.9066 62.2079 74.3011C64.7551 78.6957 66.1862 83.4875 66.1862 87.6225Z" fill="white"/>
<path d="M51.0403 97.3931L45.8117 98.456L40.582 91.355L45.8117 90.2928L51.0403 97.3931Z" fill="white"/>
<path d="M57.8333 106.727L52.6046 107.791L47.375 100.689L52.6046 99.6267L57.8333 106.727Z" fill="white"/>
<path d="M64.6238 105.235L59.3942 106.298L54.1646 99.1968L59.3942 98.1346L64.6238 105.235Z" fill="white"/>
<path style="mix-blend-mode:color-dodge" d="M115.654 156.175C113.969 156.824 112.144 155.572 112.144 153.763L112.144 82.6538C112.144 79.9789 110.722 77.505 108.403 76.1598L4.39078 16.106C3.18476 15.4102 1.77773 15.7658 0.958252 16.6781C1.70042 16.3534 2.59721 16.3534 3.40123 16.8172L107.413 76.8711C109.732 78.2162 111.155 80.6901 111.155 83.365L111.155 154.474C111.155 155.819 112.16 156.855 113.381 157.025C114.17 156.902 114.958 156.654 115.685 156.268L116.365 155.897L115.654 156.159V156.175Z" fill="url(#paint4_radial_62_785)"/>
<defs>
<linearGradient id="paint0_linear_62_785" x1="45.9187" y1="227.504" x2="121.237" y2="0.253906" gradientUnits="userSpaceOnUse">
<stop stop-color="#8457E9"/>
<stop offset="0.697639" stop-color="#A0BCFD"/>
<stop offset="1" stop-color="#6FE3BC"/>
</linearGradient>
<radialGradient id="paint1_radial_62_785" cx="0" cy="0" r="1" gradientUnits="userSpaceOnUse" gradientTransform="translate(37.0641 15.9057) scale(22.2187 22.2187)">
<stop stop-color="white"/>
<stop offset="1"/>
</radialGradient>
<radialGradient id="paint2_radial_62_785" cx="0" cy="0" r="1" gradientUnits="userSpaceOnUse" gradientTransform="translate(82.2135 64.2859) scale(40.0462 40.0462)">
<stop stop-color="white"/>
<stop offset="1"/>
</radialGradient>
<linearGradient id="paint3_linear_62_785" x1="93.9831" y1="65.8281" x2="20.7917" y2="183.808" gradientUnits="userSpaceOnUse">
<stop stop-color="#6FE3BC"/>
<stop offset="1" stop-color="#5E9BDB"/>
</linearGradient>
<radialGradient id="paint4_radial_62_785" cx="0" cy="0" r="1" gradientUnits="userSpaceOnUse" gradientTransform="translate(42.9217 86.7666) scale(64.5068 64.5068)">
<stop stop-color="white"/>
<stop offset="1"/>
</radialGradient>
</defs>
</svg>
