<svg width="50" height="64" viewBox="0 0 50 64" fill="none" xmlns="http://www.w3.org/2000/svg">
<path d="M23.1794 9.57378L23.1794 12.68L44.0179 0.65186C44.7557 0.224054 45.6733 0.757262 45.6733 1.60667L45.6733 39.948L5.91216 63.0558C4.98215 63.5952 3.82273 63.5828 2.91132 63.0124L2.0619 62.4854C1.28069 62.0018 0.80328 61.1461 0.80328 60.2223L0.80328 22.315C0.80328 21.2424 1.37369 20.2503 2.3037 19.7109L21.5178 8.61897C22.2556 8.19117 23.1732 8.72437 23.1732 9.57378H23.1794Z" fill="url(#paint0_linear_62_768)"/>
<g style="mix-blend-mode:color-dodge">
<path style="mix-blend-mode:color-dodge" d="M44.4701 1.02379L23.6316 13.052V12.4072L44.0175 0.639383C44.5507 0.335578 45.1707 0.527783 45.4807 0.980389C45.1769 0.837787 44.8049 0.831587 44.4763 1.02379H44.4701Z" fill="url(#paint1_radial_62_768)"/>
<path style="mix-blend-mode:color-dodge" d="M2.30292 19.7108L21.517 8.61887C22.0502 8.31507 22.6702 8.50728 22.9802 8.95988C22.6764 8.81728 22.3044 8.81107 21.9758 9.00328L2.76173 20.0952C1.83171 20.6346 1.26131 21.6267 1.26131 22.6993L1.26131 60.6066C1.26131 61.2948 1.52791 61.9458 1.98672 62.4357C1.24891 61.9458 0.802498 61.1212 0.802498 60.2284L0.802498 22.3211C0.802498 21.2485 1.37291 20.2564 2.30292 19.717V19.7108Z" fill="url(#paint2_radial_62_768)"/>
</g>
<path d="M47.7205 36.5255L2.85041 62.4295L2.85041 28.3786L47.7205 2.47461L47.7205 36.5255Z" fill="white" fill-opacity="0.66"/>
<path d="M47.3728 39.0426L5.83845 63.0245C4.97044 63.5267 3.91022 63.5391 3.02981 63.0679L2.75701 62.9191L3.04221 63.0245C3.71802 63.2849 4.44963 62.7827 4.44963 62.0573L4.44963 33.5431C4.44963 32.4705 5.02003 31.4785 5.95005 30.9391L47.6581 6.85791C48.3959 6.43011 49.3135 6.96332 49.3135 7.81273L49.3135 35.6759C49.3135 37.0648 48.5695 38.3482 47.3666 39.0426H47.3728Z" fill="url(#paint3_linear_62_768)"/>
<path d="M22.8782 35.5351L22.8782 42.4271L25.6015 38.7294L28.3247 39.2825L31.048 35.5849L33.7712 36.138L33.7712 29.246C33.7712 27.5879 33.1974 26.329 32.176 25.7463C31.1546 25.1636 29.7692 25.3047 28.3247 26.1387C26.8802 26.9727 25.4949 28.4312 24.4735 30.1934C23.452 31.9555 22.8782 33.877 22.8782 35.5351Z" fill="white"/>
<path d="M28.9516 39.4534L31.0482 39.8796L33.1453 37.0322L31.0482 36.6062L28.9516 39.4534Z" fill="white"/>
<path d="M26.2274 43.1956L28.3241 43.6222L30.4211 40.7744L28.3241 40.3484L26.2274 43.1956Z" fill="white"/>
<path d="M23.5054 42.5982L25.6024 43.0242L27.6995 40.1767L25.6024 39.7508L23.5054 42.5982Z" fill="white"/>
<path style="mix-blend-mode:color-dodge" d="M3.04191 63.0242C3.71772 63.2846 4.44933 62.7824 4.44933 62.057L4.44933 33.5428C4.44933 32.4702 5.01974 31.4782 5.94975 30.9388L47.6578 6.8576C48.1414 6.5786 48.7056 6.7212 49.0342 7.08701C48.7366 6.9568 48.377 6.9568 48.0546 7.1428L6.34656 31.224C5.41654 31.7634 4.84613 32.7554 4.84613 33.828L4.84613 62.3422C4.84613 62.8816 4.44313 63.297 3.95332 63.3652C3.63712 63.3156 3.32092 63.2164 3.02951 63.0614L2.75671 62.9126L3.04191 63.018V63.0242Z" fill="url(#paint4_radial_62_768)"/>
<defs>
<linearGradient id="paint0_linear_62_768" x1="31.0054" y1="91.6268" x2="0.80313" y2="0.500978" gradientUnits="userSpaceOnUse">
<stop stop-color="#8457E9"/>
<stop offset="0.697639" stop-color="#A0BCFD"/>
<stop offset="1" stop-color="#6FE3BC"/>
</linearGradient>
<radialGradient id="paint1_radial_62_768" cx="0" cy="0" r="1" gradientUnits="userSpaceOnUse" gradientTransform="translate(34.5562 6.77747) rotate(-180) scale(8.90953)">
<stop stop-color="white"/>
<stop offset="1"/>
</radialGradient>
<radialGradient id="paint2_radial_62_768" cx="0" cy="0" r="1" gradientUnits="userSpaceOnUse" gradientTransform="translate(16.4515 26.1775) rotate(-180) scale(16.0582 16.0582)">
<stop stop-color="white"/>
<stop offset="1"/>
</radialGradient>
<linearGradient id="paint3_linear_62_768" x1="11.7319" y1="26.7958" x2="41.0811" y2="74.105" gradientUnits="userSpaceOnUse">
<stop stop-color="#6FE3BC"/>
<stop offset="1" stop-color="#5E9BDB"/>
</linearGradient>
<radialGradient id="paint4_radial_62_768" cx="0" cy="0" r="1" gradientUnits="userSpaceOnUse" gradientTransform="translate(32.2071 35.192) rotate(-180) scale(25.8668 25.8668)">
<stop stop-color="white"/>
<stop offset="1"/>
</radialGradient>
</defs>
</svg>
