<svg width="127" height="78" viewBox="0 0 127 78" fill="none" xmlns="http://www.w3.org/2000/svg">
<path d="M108.508 42.8484C108.508 39.2599 106.326 35.1035 103.642 33.5545L58.8672 7.69961C57.6669 7.00257 56.5698 6.95094 55.7179 7.42854L2.25705 38.4983L53.9626 77.4679L106.636 46.8886C106.804 46.8112 106.959 46.7337 107.101 46.6175C107.978 45.9463 108.521 44.6426 108.521 42.8484H108.508Z" fill="#42A2E8"/>
<path d="M53.9492 77.4549L106.623 46.8756C106.791 46.7981 106.945 46.7207 107.087 46.6045C107.965 45.9333 108.507 44.6296 108.507 42.8353C108.507 41.0411 108.004 39.2856 107.191 37.6592L47.1472 72.3303L53.9362 77.4549H53.9492Z" fill="#025CF1"/>
<path d="M50.5806 77.3125L5.80611 51.4576C3.12145 49.9086 0.94014 45.7393 0.94014 42.1637C0.94014 38.5753 3.12145 36.936 5.80611 38.4849L50.5806 64.3399C53.2653 65.8888 55.4465 70.0582 55.4465 73.6337C55.4465 77.2221 53.2653 78.8615 50.5806 77.3125Z" fill="#025CF1"/>
<path d="M51.1228 64.0948L6.34831 38.2399C5.10924 37.5299 3.98634 37.4912 3.13448 38.0075C3.9089 37.7752 4.82528 37.9043 5.81912 38.4851L50.5936 64.3401C53.2783 65.889 55.4596 70.0583 55.4596 73.6339C55.4596 75.5701 54.8142 76.9384 53.8075 77.545C55.124 77.1449 55.9888 75.6605 55.9888 73.3886C55.9888 69.8002 53.8075 65.6438 51.1228 64.0948Z" fill="url(#paint0_linear_2_3373)"/>
<path d="M43.8694 68.6003L38.4871 65.4894C37.945 65.1796 37.5191 64.3535 37.5191 63.6306C37.5191 62.9207 37.9579 62.5851 38.4871 62.8949L43.8694 66.0057C44.4115 66.3155 44.8374 67.1416 44.8374 67.8645C44.8374 68.5744 44.3986 68.9101 43.8694 68.6003Z" fill="url(#paint1_linear_2_3373)"/>
<defs>
<linearGradient id="paint0_linear_2_3373" x1="1.07855" y1="37.6582" x2="99.8138" y2="40.1837" gradientUnits="userSpaceOnUse">
<stop stop-color="#025CF1"/>
<stop offset="0.384573" stop-color="#05F0FD"/>
<stop offset="1" stop-color="#7D48E4"/>
</linearGradient>
<linearGradient id="paint1_linear_2_3373" x1="37.2344" y1="62.7793" x2="50.9067" y2="63.1046" gradientUnits="userSpaceOnUse">
<stop stop-color="#025CF1"/>
<stop offset="0.384573" stop-color="#05F0FD"/>
<stop offset="1" stop-color="#7D48E4"/>
</linearGradient>
</defs>
</svg>