<svg width="24" height="14" viewBox="0 0 24 14" fill="none" xmlns="http://www.w3.org/2000/svg">
<path d="M6.74908 4.28942C8.15594 3.4633 8.14305 2.13376 6.72328 1.33346C5.3035 0.533158 3.00605 0.558975 1.59918 1.38509C0.192317 2.21121 0.205249 3.54075 1.62502 4.34105C3.0448 5.14135 5.34221 5.11554 6.74908 4.28942Z" fill="#5793CE"/>
<path d="M14.5707 8.69079C15.9775 7.86467 15.9646 6.53513 14.5448 5.73483C13.125 4.93452 10.8276 4.96034 9.42072 5.78646C8.01385 6.61258 8.02678 7.94211 9.44656 8.74242C10.8663 9.54272 13.1638 9.51691 14.5707 8.69079Z" fill="url(#paint0_linear_2_3381)"/>
<path d="M22.3797 13.0931C23.7866 12.267 23.7737 10.9375 22.3539 10.1372C20.9341 9.33687 18.6367 9.36269 17.2298 10.1888C15.823 11.0149 15.8358 12.3445 17.2556 13.1448C18.6754 13.9451 20.9729 13.9192 22.3797 13.0931Z" fill="url(#paint1_linear_2_3381)"/>
<defs>
<linearGradient id="paint0_linear_2_3381" x1="8.09181" y1="5.15039" x2="21.6181" y2="5.60327" gradientUnits="userSpaceOnUse">
<stop stop-color="#025CF1"/>
<stop offset="0.384573" stop-color="#05F0FD"/>
<stop offset="1" stop-color="#7D48E4"/>
</linearGradient>
<linearGradient id="paint1_linear_2_3381" x1="15.9009" y1="9.55274" x2="29.4272" y2="10.0056" gradientUnits="userSpaceOnUse">
<stop stop-color="#025CF1"/>
<stop offset="0.384573" stop-color="#05F0FD"/>
<stop offset="1" stop-color="#7D48E4"/>
</linearGradient>
</defs>
</svg>