<svg width="103" height="138" viewBox="0 0 103 138" fill="none" xmlns="http://www.w3.org/2000/svg">
<g clip-path="url(#clip0_2_3906)">
<path d="M67.186 75.7452C67.186 75.6889 67.186 75.6326 67.186 75.5669C67.186 75.5106 67.186 75.4543 67.1767 75.3887C67.1767 75.3324 67.1673 75.2667 67.158 75.2104C67.158 75.1541 67.1394 75.0885 67.1301 75.0322C67.1301 74.9665 67.1115 74.9102 67.1021 74.8539C67.0928 74.7882 67.0742 74.732 67.0649 74.6663C67.0556 74.6006 67.0369 74.5443 67.0183 74.4786C66.9997 74.413 66.9904 74.3473 66.9717 74.291C66.9624 74.2441 66.9438 74.1878 66.9252 74.1409V74.1034C66.8972 74.0377 66.8786 73.9814 66.86 73.9157C66.8413 73.8501 66.8227 73.7938 66.7948 73.7281C66.7761 73.6718 66.7482 73.6062 66.7296 73.5499C66.7109 73.4936 66.683 73.4373 66.655 73.3716C66.6364 73.3247 66.6178 73.2872 66.5992 73.2403V73.2027C66.5619 73.1465 66.534 73.0902 66.506 73.0245C66.4781 72.9588 66.4501 72.8931 66.4129 72.8369C66.3756 72.7618 66.3384 72.6961 66.3011 72.6211C66.2638 72.546 66.2173 72.471 66.1707 72.3959L66.1521 72.3584C66.1521 72.3584 66.1334 72.3303 66.1241 72.3115C66.0403 72.1708 65.9472 72.0207 65.8633 71.8893C65.7888 71.7767 65.7143 71.6735 65.6398 71.561C65.5839 71.4859 65.5373 71.4202 65.4814 71.3546C65.4349 71.2983 65.3883 71.242 65.3417 71.1857C65.2951 71.1294 65.2486 71.0731 65.202 71.0262C65.1554 70.9699 65.1089 70.923 65.0623 70.8667L65.0343 70.8386H65.025C64.9878 70.7917 64.9505 70.7541 64.9133 70.7166C64.8667 70.6697 64.8108 70.6134 64.7642 70.5665C64.7083 70.5196 64.6618 70.4633 64.6059 70.4164C64.55 70.3695 64.5034 70.3226 64.4475 70.2757C64.4196 70.2569 64.3916 70.2288 64.3637 70.21L64.3451 70.1912C64.3451 70.1912 64.3078 70.1537 64.2799 70.1443C64.224 70.1068 64.1774 70.0599 64.1215 70.0224C64.0656 69.9848 64.0191 69.9473 63.9632 69.9098C63.9166 69.8723 63.8607 69.8441 63.8142 69.8066C63.7676 69.7784 63.7117 69.7409 63.6651 69.7128L63.6279 69.694L27.3203 48.5666C27.3203 48.5666 27.2458 48.5197 27.2085 48.5009C27.162 48.4727 27.1061 48.4446 27.0595 48.4258C27.0129 48.3977 26.9664 48.3789 26.9105 48.3602C26.8546 48.3414 26.8173 48.3133 26.7708 48.2945C26.7242 48.2757 26.6776 48.257 26.6217 48.2382H26.5845C26.5845 48.2382 26.51 48.2007 26.482 48.1913C26.4355 48.1725 26.3796 48.1632 26.333 48.1538C26.2864 48.1444 26.2305 48.1256 26.184 48.1162C26.1281 48.1069 26.0815 48.0975 26.0256 48.0881C25.9884 48.0881 25.9511 48.0881 25.9232 48.0787H25.8673C25.8114 48.0693 25.7555 48.0693 25.6996 48.0693C25.6344 48.0693 25.5785 48.0693 25.5133 48.0693C25.4388 48.0693 25.3736 48.0881 25.3084 48.0975H25.2991C25.2153 48.1162 25.1407 48.135 25.0569 48.1632C24.9545 48.2007 24.8613 48.2476 24.7682 48.2945L14.9694 54.0267C15.1278 53.9329 15.3047 53.8672 15.5003 53.8297C15.6866 53.7921 15.8915 53.7828 16.1058 53.8015H16.1244C16.3386 53.8203 16.5529 53.8672 16.7857 53.9516H16.795C17.0279 54.0361 17.2701 54.1486 17.5216 54.2894L53.8291 75.398C54.0713 75.5388 54.3135 75.7076 54.537 75.8953L54.5556 75.914C54.7792 76.1017 55.0027 76.3081 55.2076 76.5332H55.217C55.6361 77.0023 56.018 77.5183 56.3347 78.0718L56.3533 78.1093C56.5117 78.3814 56.6514 78.6629 56.7725 78.9443C56.9029 79.2445 57.0053 79.5447 57.0985 79.8356C57.1916 80.1452 57.2568 80.4454 57.3034 80.7362C57.35 81.0364 57.3779 81.3272 57.3779 81.6181L57.2941 110.119C57.2941 110.401 57.2661 110.654 57.2196 110.898V110.917C57.1637 111.151 57.0985 111.367 57.0146 111.555C56.9401 111.724 56.847 111.855 56.7445 111.986C56.7073 112.024 56.6793 112.071 56.6421 112.108C56.521 112.24 56.3999 112.352 56.2509 112.437L66.0496 106.705C66.1986 106.62 66.3197 106.508 66.4408 106.376C66.4781 106.339 66.506 106.292 66.5433 106.254C66.5898 106.198 66.6364 106.151 66.6737 106.095C66.7202 106.02 66.7668 105.935 66.8041 105.851V105.832C66.832 105.776 66.86 105.71 66.8879 105.654C66.9065 105.588 66.9345 105.532 66.9531 105.466C66.9717 105.41 66.9904 105.344 66.9997 105.279C66.9997 105.25 67.009 105.222 67.0183 105.204V105.185C67.0183 105.185 67.0369 105.138 67.0369 105.11C67.0462 105.053 67.0556 104.997 67.0649 104.941C67.0649 104.885 67.0742 104.828 67.0835 104.763C67.0835 104.706 67.0835 104.65 67.0928 104.594C67.0928 104.537 67.0928 104.481 67.0928 104.415L67.1767 75.9047C67.1767 75.8484 67.1767 75.7921 67.1767 75.7452H67.186Z" fill="url(#paint7_linear_2_3906)"/>
<path d="M53.8198 75.4163C55.7944 76.5702 57.3965 79.3472 57.3872 81.6363L57.3034 110.138C57.3034 112.427 55.692 113.346 53.7173 112.202L17.4098 91.093C15.4258 89.9391 13.833 87.1527 13.833 84.8636L13.9169 56.3622C13.9169 54.0731 15.5282 53.1537 17.5122 54.3076L53.8198 75.4163Z" fill="url(#paint8_linear_2_3906)"/>
<path d="M34.9302 71.7954C37.5848 73.3434 39.7364 77.0867 39.7271 80.1545C39.7271 81.862 39.0472 82.9784 37.9946 83.3912L37.9667 92.1255C37.9667 94.0956 36.5695 94.8931 34.865 93.8986C33.1605 92.9041 31.7819 90.5024 31.7819 88.5229L31.8099 79.7886C30.7667 78.1656 30.096 76.2611 30.1053 74.5537C30.1053 71.4859 32.2756 70.2475 34.9302 71.7861V71.7954Z" fill="url(#paint9_radial_2_3906)"/>
<path d="M32.6574 39.1746C32.6574 39.1746 32.676 39.0901 32.6853 39.0526C32.7505 38.7618 32.8157 38.471 32.8996 38.2083C32.9182 38.1614 32.9368 38.1051 32.9461 38.0582C33.03 37.8049 33.1231 37.5516 33.2349 37.3264C33.2442 37.3076 33.2535 37.2795 33.2628 37.2513C33.3839 36.9887 33.5236 36.7354 33.6727 36.5102C33.6913 36.4727 33.7192 36.4445 33.7379 36.4164C33.8589 36.2287 33.9893 36.0599 34.1291 35.9004C34.1756 35.8441 34.2315 35.7878 34.2874 35.7315C34.4085 35.6002 34.5389 35.4782 34.6693 35.3563C34.7252 35.3093 34.7811 35.2624 34.837 35.2155C35.0232 35.0654 35.2188 34.9247 35.4238 34.8027L31.2137 37.2701C31.0087 37.3921 30.8131 37.5328 30.6268 37.6829C30.571 37.7298 30.5151 37.7767 30.4592 37.8236C30.3288 37.9362 30.1984 38.0675 30.0773 38.1989C30.0214 38.2552 29.9748 38.3115 29.9189 38.3678C29.7792 38.5272 29.6488 38.7055 29.5277 38.8837C29.5091 38.9119 29.4812 38.9494 29.4625 38.9776L29.4439 38.9963C29.3042 39.2121 29.1738 39.4466 29.062 39.7V39.7187C29.062 39.7187 29.0341 39.7656 29.0248 39.7938C28.9503 39.9533 28.8851 40.1127 28.8199 40.2816C28.7919 40.366 28.764 40.4505 28.736 40.5349C28.7174 40.5818 28.6988 40.6381 28.6894 40.685C28.6708 40.7319 28.6615 40.7788 28.6429 40.8257C28.5963 40.9946 28.5497 41.1729 28.5125 41.3511C28.5032 41.4168 28.4845 41.4731 28.4752 41.5388C28.4752 41.5763 28.4566 41.6232 28.4473 41.6607C28.438 41.7264 28.4193 41.7827 28.41 41.8483C28.3821 42.0078 28.3541 42.1673 28.3355 42.3362C28.3262 42.43 28.3169 42.5238 28.3076 42.6083C28.3076 42.6364 28.3076 42.6739 28.2982 42.7021C28.2982 42.7396 28.2982 42.7771 28.2889 42.824C28.2796 42.9835 28.2703 43.143 28.261 43.3025C28.261 43.462 28.2517 43.6309 28.2517 43.7997V43.8279L28.2144 55.8739C28.2144 56.0897 28.1958 56.2867 28.1585 56.4649V56.4837C28.1213 56.662 28.0654 56.8214 28.0002 56.9715C27.9443 57.1029 27.8698 57.2061 27.7953 57.2999C27.7673 57.328 27.7487 57.3656 27.7208 57.3937C27.6276 57.4875 27.5345 57.5814 27.4227 57.6376L31.6328 55.1703C31.7446 55.1046 31.8377 55.0202 31.9309 54.9263C31.9588 54.8982 31.9774 54.8607 32.0054 54.8325C32.0333 54.795 32.0706 54.7575 32.1078 54.7106C32.1451 54.6543 32.1823 54.5886 32.2103 54.5229V54.5042C32.2103 54.5042 32.2569 54.4104 32.2755 54.3634C32.2941 54.3165 32.3128 54.2696 32.3221 54.2227C32.3314 54.1758 32.35 54.1289 32.3593 54.082C32.3593 54.0632 32.3593 54.0445 32.3686 54.0257V54.0069C32.3686 54.0069 32.378 53.9694 32.3873 53.9507C32.3873 53.9037 32.4059 53.8662 32.4059 53.8193C32.4059 53.7724 32.4152 53.7349 32.4152 53.688C32.4152 53.6411 32.4152 53.6035 32.4152 53.5566C32.4152 53.5097 32.4152 53.4722 32.4152 53.4253L32.4525 41.3699C32.4525 40.9852 32.4711 40.61 32.5084 40.2535C32.5084 40.2253 32.5084 40.1878 32.5177 40.1596C32.5549 39.8313 32.6015 39.5123 32.6574 39.2027V39.1746Z" fill="url(#paint10_linear_2_3906)"/>
<path d="M58.2348 55.6304C58.2348 55.3771 58.2161 55.1238 58.1975 54.8705C58.1975 54.7579 58.1789 54.636 58.1696 54.514C58.1696 54.4671 58.1696 54.4108 58.1603 54.3639C58.1603 54.2795 58.1509 54.1857 58.1416 54.1012C58.1137 53.8479 58.0857 53.5852 58.0578 53.3319C58.0205 53.0692 57.9833 52.8066 57.946 52.5439V52.4782C57.8995 52.2343 57.8529 51.9904 57.8063 51.7464C57.7597 51.4744 57.7038 51.2023 57.6386 50.9302C57.62 50.827 57.5921 50.7332 57.5734 50.63C57.5641 50.5737 57.5455 50.5174 57.5362 50.4611C57.5082 50.3486 57.4803 50.2266 57.4524 50.114C57.3872 49.8326 57.3126 49.5605 57.2381 49.2791C57.1822 49.0727 57.117 48.8663 57.0612 48.6599C57.0518 48.6223 57.0425 48.5848 57.0332 48.5473C57.0239 48.5098 57.0146 48.4816 57.0053 48.4441C56.9214 48.172 56.8376 47.9 56.7445 47.6279C56.6513 47.3558 56.5582 47.0931 56.465 46.8211C56.4464 46.7648 56.4278 46.7179 56.4091 46.6616C56.3905 46.6241 56.3812 46.5771 56.3626 46.5396C56.3067 46.3801 56.2415 46.2113 56.1763 46.0518C56.0738 45.7985 55.9714 45.5452 55.8689 45.2825C55.7944 45.0948 55.7106 44.9072 55.6267 44.7196C55.6174 44.6914 55.5988 44.6539 55.5895 44.6258C55.5709 44.5882 55.5615 44.5601 55.5429 44.5226C55.4311 44.2693 55.3194 44.016 55.1983 43.7627C55.0679 43.4812 54.9375 43.2091 54.7978 42.9277C54.7791 42.8808 54.7512 42.8433 54.7326 42.7963C54.7046 42.7401 54.6767 42.6838 54.6487 42.6369C54.5369 42.4211 54.4252 42.1959 54.3134 41.9801C54.1644 41.7081 54.0153 41.436 53.857 41.1639C53.7825 41.0232 53.708 40.8919 53.6241 40.7511C53.5962 40.6949 53.5683 40.6386 53.531 40.5917C53.3913 40.3571 53.2422 40.132 53.1025 39.9068C52.8976 39.5691 52.6927 39.2219 52.4692 38.8936C52.4319 38.8373 52.404 38.781 52.3667 38.7341C52.05 38.265 51.7333 37.8053 51.398 37.3456C51.398 37.3362 51.3794 37.3175 51.3701 37.3081C51.1465 36.9891 50.9136 36.6889 50.6715 36.3793C50.4852 36.1354 50.2989 35.9008 50.1033 35.6757L50.0847 35.6475V35.6288C49.8704 35.3848 49.6748 35.1503 49.4699 34.9158C49.2743 34.6906 49.0694 34.4561 48.8645 34.2403C48.8365 34.2028 48.7993 34.1746 48.7713 34.1371C48.7341 34.0996 48.7061 34.062 48.6689 34.0245C48.5198 33.865 48.3801 33.7149 48.2311 33.5648C48.0169 33.3397 47.7933 33.1239 47.5698 32.9081C47.5046 32.8424 47.4394 32.7861 47.3742 32.7205C47.3183 32.6736 47.2717 32.6266 47.2158 32.5797C47.1041 32.4765 46.9923 32.3733 46.8805 32.2701C46.6476 32.0637 46.4241 31.8574 46.1912 31.6603C46.0888 31.5759 45.9863 31.4915 45.8932 31.4164C45.8373 31.3695 45.7907 31.332 45.7348 31.2851C45.6603 31.2194 45.5765 31.1537 45.502 31.0881C45.2784 30.9098 45.0456 30.7316 44.822 30.5627C44.6544 30.4407 44.496 30.3281 44.3284 30.2062C44.3004 30.1874 44.2632 30.1593 44.2352 30.1405C44.2073 30.1217 44.1793 30.0936 44.1421 30.0748C43.9185 29.9247 43.7043 29.7746 43.4808 29.6339C43.2665 29.4932 43.043 29.3618 42.8194 29.2305C42.7729 29.2023 42.717 29.1742 42.6704 29.1367C42.5027 29.0429 42.3444 28.949 42.1767 28.8552C42.1115 28.8177 42.0463 28.7896 41.9904 28.752C41.9066 28.7051 41.8228 28.6676 41.739 28.6207C41.6738 28.5832 41.6086 28.555 41.5434 28.5175C41.4409 28.4612 41.3291 28.4143 41.2267 28.3674C41.1522 28.3299 41.0776 28.2923 41.0031 28.2642C40.9752 28.2548 40.9472 28.236 40.91 28.2173C40.7051 28.1235 40.4908 28.0296 40.2859 27.9546H40.2487C40.0531 27.8608 39.8481 27.7857 39.6525 27.72C39.6246 27.7107 39.5966 27.7013 39.5687 27.6919C39.4942 27.6638 39.4197 27.645 39.3358 27.6169C39.2334 27.5793 39.1309 27.5418 39.0285 27.5137C38.9726 27.4949 38.926 27.4855 38.8701 27.4667C38.777 27.4386 38.6838 27.4105 38.5907 27.3917C38.5255 27.3729 38.451 27.3542 38.3858 27.3354C38.3113 27.3166 38.2367 27.2979 38.1622 27.2885C38.0691 27.2697 37.9759 27.2416 37.8828 27.2228C37.8362 27.2134 37.7897 27.2041 37.7431 27.1947C37.6593 27.1759 37.5661 27.1665 37.4823 27.1478C37.3798 27.129 37.268 27.1102 37.1656 27.0915C37.1283 27.0915 37.0911 27.0821 37.0538 27.0727C36.9607 27.0633 36.8768 27.054 36.793 27.0446C36.6812 27.0352 36.5695 27.0164 36.4577 27.007C36.4297 27.007 36.3925 27.007 36.3645 26.9977C36.29 26.9977 36.2155 26.9977 36.141 26.9977C36.0106 26.9977 35.8709 26.9883 35.7405 26.9883C35.7032 26.9883 35.666 26.9883 35.6287 26.9883C35.5728 26.9883 35.5169 26.9883 35.4611 26.9883C35.2934 26.9883 35.1257 26.9977 34.9674 27.0164C34.9208 27.0164 34.8649 27.0164 34.8184 27.0164C34.7811 27.0164 34.7438 27.0258 34.7066 27.0352C34.4644 27.0633 34.2222 27.0915 33.9801 27.1384C33.9614 27.1384 33.9335 27.1384 33.9149 27.1478H33.9055C33.5609 27.2228 33.2349 27.3166 32.9089 27.4292C32.881 27.4386 32.853 27.448 32.8158 27.4574C32.7878 27.4574 32.7692 27.4761 32.7506 27.4855C32.6108 27.5418 32.4711 27.5981 32.3314 27.6544C32.2662 27.6825 32.201 27.7107 32.1358 27.7388C31.9402 27.8326 31.7446 27.9358 31.549 28.0484L27.3389 30.5158C27.5252 30.4032 27.7208 30.3 27.9257 30.2062C27.9909 30.178 28.0561 30.1499 28.1213 30.1217C28.261 30.0655 28.3914 29.9998 28.5311 29.9529C28.587 29.9341 28.6336 29.9154 28.6895 29.8966C29.0155 29.784 29.3415 29.6902 29.6861 29.6245C29.7141 29.6245 29.742 29.6245 29.7699 29.6151C30.0121 29.5682 30.2543 29.5307 30.4965 29.5119C30.5803 29.5119 30.6641 29.4932 30.748 29.4932C30.9063 29.4838 31.074 29.4744 31.2416 29.4744C31.3348 29.4744 31.4279 29.4744 31.5211 29.4744C31.6515 29.4744 31.7819 29.4744 31.9216 29.4838C32.0333 29.4838 32.1358 29.4838 32.2476 29.5026C32.3594 29.5026 32.4711 29.5213 32.5829 29.5401C32.704 29.5495 32.8344 29.5682 32.9555 29.587C33.0579 29.6058 33.1697 29.6245 33.2722 29.6433C33.4026 29.662 33.5423 29.6902 33.6727 29.7183C33.7658 29.7371 33.859 29.7559 33.9521 29.784C34.0918 29.8215 34.2409 29.8497 34.3806 29.8872C34.4737 29.9154 34.5669 29.9341 34.66 29.9623C34.8184 30.0092 34.9767 30.0561 35.135 30.1124C35.2096 30.1405 35.2841 30.1593 35.3586 30.1874C35.5821 30.2625 35.815 30.3469 36.0385 30.4407H36.0665C36.2993 30.5439 36.5415 30.6471 36.7837 30.7597C36.8582 30.7972 36.9327 30.8348 37.0072 30.8629C37.1749 30.9473 37.3519 31.0318 37.5195 31.1162C37.6034 31.1631 37.6872 31.2006 37.771 31.2475C37.9946 31.3695 38.2274 31.4915 38.451 31.6228C38.9819 31.9324 39.4942 32.2608 40.0158 32.6266C40.0437 32.6454 40.081 32.6736 40.1089 32.6923C40.584 33.0301 41.059 33.3866 41.5247 33.7618C41.5806 33.8087 41.6272 33.8463 41.6831 33.8932C42.1302 34.2684 42.5773 34.6531 43.015 35.0659C43.0616 35.1128 43.1175 35.1597 43.1641 35.2066C43.6018 35.6288 44.0396 36.0603 44.4681 36.5106C44.5053 36.5482 44.5333 36.5857 44.5705 36.6232C45.0176 37.1111 45.4647 37.6083 45.8932 38.1337L45.9118 38.1618C46.3496 38.6872 46.7687 39.2407 47.1786 39.7942C47.1879 39.813 47.1972 39.8224 47.2065 39.8411C47.5698 40.3477 47.9237 40.8637 48.2684 41.3797C48.4826 41.7081 48.6875 42.0552 48.9017 42.3929C49.0787 42.6744 49.2557 42.9558 49.4233 43.2467C49.4979 43.378 49.5724 43.5187 49.6562 43.6595C49.9263 44.1473 50.1964 44.6351 50.4479 45.123C50.4759 45.1793 50.5038 45.2262 50.5318 45.2825C50.8298 45.8829 51.1186 46.4927 51.3887 47.1119C51.398 47.14 51.4166 47.1682 51.4259 47.2057C51.6867 47.8061 51.9289 48.4159 52.1525 49.0258C52.1711 49.0633 52.1804 49.1102 52.199 49.1477C52.4226 49.7669 52.6368 50.3955 52.8231 51.024C52.8324 51.0616 52.8417 51.0991 52.851 51.1272C53.028 51.7277 53.1864 52.3375 53.3354 52.9379C53.3447 52.9942 53.3633 53.0505 53.3727 53.1068C53.5124 53.726 53.6335 54.3451 53.7359 54.9549V54.9925C53.8384 55.6117 53.9129 56.2309 53.9688 56.8407C53.9688 56.8876 53.9688 56.9439 53.9781 56.9908C54.0247 57.6006 54.0526 58.2104 54.0526 58.8108L54.0153 70.8568C54.0153 71.0726 53.9967 71.2696 53.9595 71.4479V71.4666C53.9222 71.6449 53.8663 71.8044 53.8011 71.9545C53.7452 72.0858 53.6707 72.189 53.5962 72.2828C53.5683 72.311 53.5496 72.3485 53.5217 72.3767C53.4285 72.4705 53.3354 72.5643 53.2236 72.6206L57.4337 70.1532C57.5455 70.0875 57.6386 70.0031 57.7318 69.9093C57.7597 69.8811 57.7784 69.8436 57.8063 69.8155C57.8342 69.7779 57.8715 69.7404 57.9088 69.6935C57.946 69.6372 57.9833 69.5715 58.0112 69.5059V69.4871C58.0112 69.4871 58.0578 69.3933 58.0764 69.3464C58.0951 69.2995 58.1137 69.2526 58.123 69.2057C58.1323 69.1587 58.1509 69.1118 58.1603 69.0649C58.1603 69.0462 58.1603 69.0274 58.1696 69.0086V68.9899C58.1696 68.9899 58.1789 68.9524 58.1882 68.9336C58.1882 68.8867 58.2068 68.8492 58.2068 68.8022C58.2068 68.7553 58.2161 68.7178 58.2161 68.6709C58.2161 68.624 58.2161 68.5865 58.2161 68.5396C58.2161 68.4927 58.2161 68.4551 58.2161 68.4082L58.2534 56.3528C58.2534 56.1183 58.2534 55.8837 58.2441 55.6492L58.2348 55.6304Z" fill="url(#paint11_linear_2_3906)"/>
<path d="M38.4508 31.6319C47.0667 36.6417 54.0525 48.8285 54.0245 58.8106L53.9873 70.8566C53.9873 72.6016 52.7578 73.3052 51.2488 72.4327C49.7306 71.5508 48.5197 69.4306 48.5197 67.6856L48.557 55.6396C48.5756 49.1569 44.0302 41.2294 38.4322 37.9739C32.8249 34.7185 28.2516 37.336 28.2329 43.8281L28.1957 55.8741C28.1957 57.6191 26.9662 58.3227 25.4573 57.4502C23.939 56.5683 22.7281 54.4481 22.7281 52.7031L22.7654 40.6571C22.7933 30.675 29.8257 26.6503 38.4415 31.6601L38.4508 31.6319Z" fill="url(#paint12_linear_2_3906)"/>
</g>
<defs>
<linearGradient id="paint7_linear_2_3906" x1="14.9694" y1="80.2671" x2="67.186" y2="80.2671" gradientUnits="userSpaceOnUse">
<stop stop-color="#01B3F9"/>
<stop offset="1" stop-color="#015BEA"/>
</linearGradient>
<linearGradient id="paint8_linear_2_3906" x1="35.6194" y1="60.4244" x2="35.6194" y2="107.089" gradientUnits="userSpaceOnUse">
<stop stop-color="#01B3F9"/>
<stop offset="1" stop-color="#015BEA"/>
</linearGradient>
<radialGradient id="paint9_radial_2_3906" cx="0" cy="0" r="1" gradientUnits="userSpaceOnUse" gradientTransform="translate(25.3457 101.001) scale(41.5609 41.8609)">
<stop stop-color="#419DFF"/>
<stop offset="0.53" stop-color="#1D4CD4"/>
<stop offset="1" stop-color="#08137A"/>
</radialGradient>
<linearGradient id="paint10_linear_2_3906" x1="27.4134" y1="46.2014" x2="35.4238" y2="46.2014" gradientUnits="userSpaceOnUse">
<stop stop-color="#01B3F9"/>
<stop offset="1" stop-color="#015BEA"/>
</linearGradient>
<linearGradient id="paint11_linear_2_3906" x1="27.3389" y1="49.8138" x2="58.2441" y2="49.8138" gradientUnits="userSpaceOnUse">
<stop stop-color="#01B3F9"/>
<stop offset="1" stop-color="#015BEA"/>
</linearGradient>
<linearGradient id="paint12_linear_2_3906" x1="38.3856" y1="28.9207" x2="38.3856" y2="77.6395" gradientUnits="userSpaceOnUse">
<stop stop-color="#DFFEFF"/>
<stop offset="1" stop-color="#01B0F9"/>
</linearGradient>
<clipPath id="clip0_2_3906">
<rect width="102.281" height="136.953" fill="white" transform="translate(0.382874 0.242188)"/>
</clipPath>
</defs>
</svg>