       <svg width="172" height="234" viewBox="0 0 172 234" fill="none" xmlns="http://www.w3.org/2000/svg">
       <path style="mix-blend-mode:lighten" opacity="0.48" d="M170.562 64.7807L128.693 86.3853L76.2389 105.441L25.4317 84.2419L0.459274 62.7549V168.778H0.47234C0.328595 181.469 8.65273 194.173 25.4317 203.819C58.6759 222.94 112.528 222.835 145.707 203.596C162.316 193.964 170.588 181.365 170.549 168.778H170.562V64.7807Z" fill="url(#paint4_linear_2_3630)"/>
<path style="mix-blend-mode:lighten" opacity="0.48" d="M0.459274 64.7807L42.3282 86.3853L94.782 105.441L145.589 84.2419L170.562 62.7549V168.778H170.549C170.692 181.469 162.368 194.173 145.589 203.819C112.345 222.94 58.493 222.835 25.3141 203.596C8.70499 193.964 0.433137 181.365 0.47234 168.778H0.459274V64.7807Z" fill="url(#paint5_linear_2_3630)"/>
<path d="M20.5573 183.991C20.5573 184.527 20.5573 185.049 20.5834 185.585L42.2627 203.726L77.3757 216.796L102.1 211.255L125.752 204.497L149.849 185.938L150.463 185.442C150.555 183.952 150.463 182.462 150.241 180.972C154.501 175.312 158.761 169.666 163.021 164.007C164.942 166.477 166.537 169 167.713 171.587L170.535 169.326V183.847C170.548 184.017 170.548 184.2 170.548 184.37V184.919H170.522C170.183 197.231 161.937 209.477 145.707 218.887C112.528 238.126 58.6758 238.231 25.4315 219.11C8.94009 209.621 0.615959 197.191 0.472214 184.723V184.618C0.472214 184.474 0.472214 184.331 0.472214 184.187L0.49835 168.79L3.51699 171.313C4.23572 169.797 5.08512 168.307 6.05213 166.83C9.8679 173.3 13.6445 181.246 20.5442 183.978L20.5573 183.991Z" fill="url(#paint0_linear_2_3630)"/>
<path d="M144.243 148.676C144.701 148.924 145.158 149.16 145.602 149.421C153.142 153.76 158.918 158.714 163.035 164.007C158.774 169.666 154.514 175.313 150.254 180.972C149 172.45 142.74 164.151 131.437 157.642C106.033 143.03 64.8699 143.108 39.5185 157.812C27.0127 165.066 20.7141 174.515 20.5573 183.991C13.6706 181.259 9.88097 173.313 6.0652 166.843C9.13611 162.177 13.4877 157.72 19.1068 153.669L16.1796 154.27C16.1796 154.27 36.1732 136.913 36.905 136.743C37.6499 136.573 77.6501 125.974 77.6501 125.974L122.695 129.934L144.23 148.676H144.243Z" fill="url(#paint1_linear_2_3630)"/>
<path opacity="0.5" d="M84.4099 211.66C120.308 211.591 149.376 194.729 149.337 173.998C149.297 153.267 120.164 136.517 84.2658 136.586C48.368 136.655 19.2994 153.517 19.3392 174.248C19.379 194.979 48.5121 211.729 84.4099 211.66Z" fill="url(#paint2_linear_2_3630)"/>
<path opacity="0.48" d="M84.3014 216.208C120.199 216.139 149.268 199.277 149.228 178.546C149.188 157.815 120.055 141.065 84.1573 141.134C48.2595 141.203 19.1909 158.065 19.2307 178.796C19.2704 199.527 48.4036 216.276 84.3014 216.208Z" fill="url(#paint3_linear_2_3630)"/>
<path d="M145.577 134.156C112.332 115.035 58.4804 115.139 25.3014 134.378C-7.87748 153.617 -7.82521 184.711 25.4321 203.832C58.6764 222.953 112.528 222.849 145.707 203.61C178.886 184.371 178.834 153.277 145.577 134.156V134.156ZM131.411 142.377C156.815 156.989 156.867 180.75 131.503 195.454C106.151 210.158 65.0012 210.236 39.5845 195.624C14.1808 181.012 14.1285 157.251 39.493 142.547C64.8443 127.843 105.995 127.765 131.411 142.377Z" fill="#BCE3FF"/>
<path d="M145.577 134.156C112.332 115.035 58.4804 115.139 25.3014 134.378C-7.87748 153.617 -7.82521 184.711 25.4321 203.832C58.6764 222.953 112.528 222.849 145.707 203.61C178.886 184.371 178.834 153.277 145.577 134.156V134.156ZM131.411 142.377C156.815 156.989 156.867 180.75 131.503 195.454C106.151 210.158 65.0012 210.236 39.5845 195.624C14.1808 181.012 14.1285 157.251 39.493 142.547C64.8443 127.843 105.995 127.765 131.411 142.377Z" fill="#BCE3FF"/>
<path d="M25.0009 202.538C58.2451 221.659 112.097 221.554 145.276 202.316C165.701 190.474 173.502 174.137 168.759 158.871C174.391 174.503 166.72 191.441 145.72 203.623C112.541 222.861 58.6894 222.966 25.4451 203.845C12.6649 196.499 4.81124 187.377 1.8318 177.836C5.08566 186.893 12.8087 195.532 25.0009 202.538V202.538Z" fill="white"/>
<path d="M39.0611 141.241C64.4125 126.537 105.563 126.459 130.979 141.071C140.819 146.73 146.844 153.762 149.065 161.12C146.543 154.245 140.676 147.71 131.411 142.378C106.007 127.766 64.8437 127.844 39.4923 142.548C23.9548 151.553 17.9829 163.956 21.4981 175.575C17.1073 163.59 22.9356 150.586 39.0611 141.241V141.241Z" fill="white"/>
<path opacity="0.5" d="M85.8453 176.838C132.937 176.748 171.07 154.631 171.017 127.44C170.965 100.249 132.748 78.2791 85.6563 78.3695C38.5648 78.4599 0.431961 100.576 0.484156 127.768C0.536351 154.959 38.7539 176.929 85.8453 176.838Z" fill="#1BC9BC"/>
<defs>
<linearGradient id="paint0_linear_2_3630" x1="19.4544" y1="224.814" x2="149.512" y2="149.718" gradientUnits="userSpaceOnUse">
<stop stop-color="#BCBEFF"/>
<stop offset="0.31" stop-color="#9197EE"/>
<stop offset="0.59" stop-color="#7179E1"/>
<stop offset="0.84" stop-color="#5E67D9"/>
<stop offset="1" stop-color="#5761D7"/>
</linearGradient>
<linearGradient id="paint1_linear_2_3630" x1="148.355" y1="134.568" x2="15.8037" y2="193.291" gradientUnits="userSpaceOnUse">
<stop stop-color="#5761D7"/>
<stop offset="0.16" stop-color="#5E67D9"/>
<stop offset="0.41" stop-color="#7179E1"/>
<stop offset="0.69" stop-color="#9197EE"/>
<stop offset="1" stop-color="#BCBEFF"/>
</linearGradient>
<linearGradient id="paint2_linear_2_3630" x1="61.3678" y1="214.041" x2="107.186" y2="134.343" gradientUnits="userSpaceOnUse">
<stop stop-color="#42E8E0"/>
<stop offset="0.15" stop-color="#42E3DF"/>
<stop offset="0.33" stop-color="#44D4DE"/>
<stop offset="0.52" stop-color="#48BDDD"/>
<stop offset="0.72" stop-color="#4D9BDA"/>
<stop offset="0.93" stop-color="#5471D8"/>
<stop offset="1" stop-color="#5761D7"/>
</linearGradient>
<linearGradient id="paint3_linear_2_3630" x1="61.2561" y1="218.589" x2="107.074" y2="138.891" gradientUnits="userSpaceOnUse">
<stop stop-color="#42E8E0"/>
<stop offset="0.1" stop-color="#3ED9D6"/>
<stop offset="0.3" stop-color="#35B1BC"/>
<stop offset="0.58" stop-color="#277293"/>
<stop offset="0.91" stop-color="#141C5B"/>
<stop offset="1" stop-color="#0F054C"/>
</linearGradient>
<linearGradient id="paint4_linear_2_3630" x1="0.459274" y1="140.443" x2="170.562" y2="140.443" gradientUnits="userSpaceOnUse">
<stop stop-color="#42E8E0"/>
<stop offset="0.1" stop-color="#3ED9D6"/>
<stop offset="0.3" stop-color="#35B1BC"/>
<stop offset="0.58" stop-color="#277293"/>
<stop offset="0.91" stop-color="#141C5B"/>
<stop offset="1" stop-color="#0F054C"/>
</linearGradient>
<linearGradient id="paint5_linear_2_3630" x1="170.575" y1="140.443" x2="0.459274" y2="140.443" gradientUnits="userSpaceOnUse">
<stop stop-color="#C0BFF6"/>
<stop offset="0.12" stop-color="#B1B0E8"/>
<stop offset="0.36" stop-color="#8C89C4"/>
<stop offset="0.68" stop-color="#504A8B"/>
<stop offset="1" stop-color="#0F054C"/>
</linearGradient>
<linearGradient id="paint6_linear_2_3630" x1="34.383" y1="71.4154" x2="54.6791" y2="71.4154" gradientUnits="userSpaceOnUse">
<stop stop-color="#DFFEFF"/>
<stop offset="1" stop-color="#01B0F9"/>
</linearGradient>
<linearGradient id="paint7_linear_2_3630" x1="50.7019" y1="48.6831" x2="100.987" y2="59.7415" gradientUnits="userSpaceOnUse">
<stop stop-color="#DFFEFF"/>
<stop offset="1" stop-color="#01B0F9"/>
</linearGradient>
<linearGradient id="paint8_linear_2_3630" x1="138.593" y1="86.1715" x2="111.765" y2="169.096" gradientUnits="userSpaceOnUse">
<stop stop-color="#DFFEFF"/>
<stop offset="1" stop-color="#01B0F9"/>
</linearGradient>
<linearGradient id="paint9_linear_2_3630" x1="110.37" y1="71.4894" x2="132.317" y2="136.85" gradientUnits="userSpaceOnUse">
<stop stop-color="#DFFEFF"/>
<stop offset="1" stop-color="#01B0F9"/>
</linearGradient>
<linearGradient id="paint10_linear_2_3630" x1="84.802" y1="53.1579" x2="120.887" y2="92.3022" gradientUnits="userSpaceOnUse">
<stop stop-color="#DFFEFF"/>
<stop offset="1" stop-color="#01B0F9"/>
</linearGradient>
<linearGradient id="paint11_linear_2_3630" x1="80.629" y1="27.706" x2="80.629" y2="158.664" gradientUnits="userSpaceOnUse">
<stop stop-color="#DFFEFF"/>
<stop offset="1" stop-color="#01B0F9"/>
</linearGradient>
<linearGradient id="paint12_linear_2_3630" x1="37.7271" y1="119.609" x2="123.513" y2="119.609" gradientUnits="userSpaceOnUse">
<stop stop-color="#DFFEFF"/>
<stop offset="1" stop-color="#01B0F9"/>
</linearGradient>
<linearGradient id="paint13_linear_2_3630" x1="48.9694" y1="128.267" x2="101.186" y2="128.267" gradientUnits="userSpaceOnUse">
<stop stop-color="#01B3F9"/>
<stop offset="1" stop-color="#015BEA"/>
</linearGradient>
<linearGradient id="paint14_linear_2_3630" x1="69.6194" y1="108.424" x2="69.6194" y2="155.089" gradientUnits="userSpaceOnUse">
<stop stop-color="#01B3F9"/>
<stop offset="1" stop-color="#015BEA"/>
</linearGradient>
<radialGradient id="paint15_radial_2_3630" cx="0" cy="0" r="1" gradientUnits="userSpaceOnUse" gradientTransform="translate(59.3457 149.001) scale(41.5609 41.8609)">
<stop stop-color="#419DFF"/>
<stop offset="0.53" stop-color="#1D4CD4"/>
<stop offset="1" stop-color="#08137A"/>
</radialGradient>
<linearGradient id="paint16_linear_2_3630" x1="61.4134" y1="94.2014" x2="69.4238" y2="94.2014" gradientUnits="userSpaceOnUse">
<stop stop-color="#01B3F9"/>
<stop offset="1" stop-color="#015BEA"/>
</linearGradient>
<linearGradient id="paint17_linear_2_3630" x1="61.3389" y1="97.8138" x2="92.2441" y2="97.8138" gradientUnits="userSpaceOnUse">
<stop stop-color="#01B3F9"/>
<stop offset="1" stop-color="#015BEA"/>
</linearGradient>
<linearGradient id="paint18_linear_2_3630" x1="72.3856" y1="76.9207" x2="72.3856" y2="125.64" gradientUnits="userSpaceOnUse">
<stop stop-color="#DFFEFF"/>
<stop offset="1" stop-color="#01B0F9"/>
</linearGradient>
<linearGradient id="paint19_linear_2_3630" x1="19.446" y1="105.233" x2="149.504" y2="30.1372" gradientUnits="userSpaceOnUse">
<stop stop-color="#BCBEFF"/>
<stop offset="0.31" stop-color="#9197EE"/>
<stop offset="0.59" stop-color="#7179E1"/>
<stop offset="0.84" stop-color="#5E67D9"/>
<stop offset="1" stop-color="#5761D7"/>
</linearGradient>
<linearGradient id="paint20_linear_2_3630" x1="148.346" y1="14.9867" x2="15.8064" y2="73.7164" gradientUnits="userSpaceOnUse">
<stop stop-color="#73769D"/>
<stop offset="0.16" stop-color="#5E67D9"/>
<stop offset="0.41" stop-color="#7179E1"/>
<stop offset="0.69" stop-color="#9197EE"/>
<stop offset="1" stop-color="#BCBEFF"/>
</linearGradient>
<linearGradient id="paint21_linear_2_3630" x1="61.3595" y1="94.4602" x2="107.177" y2="14.7618" gradientUnits="userSpaceOnUse">
<stop stop-color="#42E8E0"/>
<stop offset="0.15" stop-color="#42E3DF"/>
<stop offset="0.33" stop-color="#44D4DE"/>
<stop offset="0.52" stop-color="#48BDDD"/>
<stop offset="0.72" stop-color="#4D9BDA"/>
<stop offset="0.93" stop-color="#5471D8"/>
<stop offset="1" stop-color="#5761D7"/>
</linearGradient>
<linearGradient id="paint22_linear_2_3630" x1="61.2347" y1="99.0082" x2="107.053" y2="19.3097" gradientUnits="userSpaceOnUse">
<stop stop-color="#42E8E0"/>
<stop offset="0.1" stop-color="#3ED9D6"/>
<stop offset="0.3" stop-color="#35B1BC"/>
<stop offset="0.58" stop-color="#277293"/>
<stop offset="0.91" stop-color="#141C5B"/>
<stop offset="1" stop-color="#0F054C"/>
</linearGradient>
<clipPath id="clip0_2_3630">
<rect width="102.281" height="136.953" fill="white" transform="translate(34.3829 48.2422)"/>
</clipPath>
</defs>
</svg>