      <svg width="172" height="234" viewBox="0 0 172 234" fill="none" xmlns="http://www.w3.org/2000/svg">
<path opacity="0.5" d="M145.589 162.582C112.345 181.704 58.4929 181.599 25.314 162.36C8.70495 152.728 0.433091 140.128 0.472294 127.542H0.459229V168.804H0.472294C0.433091 181.39 8.70495 193.99 25.314 203.622C58.4929 222.861 112.345 222.966 145.589 203.844C162.368 194.199 170.692 181.495 170.549 168.804H170.562V127.542H170.549C170.692 140.233 162.368 152.937 145.589 162.582Z" fill="#42A2E8"/>
<path d="M20.5573 64.4009C20.5573 64.9368 20.5573 65.4596 20.5834 65.9954L42.2627 84.1365L77.3757 97.2064L102.1 91.6648L125.752 84.9076L149.849 66.3483L150.463 65.8517C150.555 64.3617 150.463 62.8717 150.241 61.3818C154.501 55.7225 158.761 50.0763 163.021 44.417C164.942 46.8872 166.537 49.4097 167.713 51.9976L170.535 49.7365V64.2571C170.548 64.4271 170.548 64.61 170.548 64.7799V65.3289H170.522C170.183 77.6408 161.937 89.8873 145.707 99.2976C112.528 118.537 58.6758 118.641 25.4315 99.5198C8.94008 90.0311 0.615943 77.6015 0.472198 65.1328V65.0283C0.472198 64.8845 0.472198 64.7407 0.472198 64.597L0.498335 49.2006L3.51698 51.7231C4.2357 50.207 5.0851 48.717 6.05211 47.2401C9.86788 53.7097 13.6444 61.6562 20.5442 64.3878L20.5573 64.4009Z" fill="url(#paint19_linear_2_3630)"/>
<path d="M144.243 29.099C144.7 29.3473 145.158 29.5825 145.602 29.8439C153.142 34.1832 158.918 39.1367 163.034 44.43C158.774 50.0893 154.514 55.7355 150.254 61.3948C149 52.8732 142.74 44.5737 131.437 38.0649C106.033 23.4527 64.8697 23.5312 39.5183 38.2348C27.0125 45.4886 20.7139 54.9382 20.5571 64.4139C13.6704 61.6823 9.88074 53.7358 6.06497 47.2662C9.13588 42.6002 13.4874 38.1433 19.1065 34.0917L16.1794 34.6929C16.1794 34.6929 36.173 17.336 36.9048 17.1661C37.6496 16.9962 77.6499 6.39648 77.6499 6.39648L122.694 10.3567L144.23 29.099H144.243Z" fill="url(#paint20_linear_2_3630)"/>
<path opacity="0.5" d="M84.4026 92.0698C120.3 92.0009 149.369 75.1392 149.329 54.4082C149.289 33.6773 120.156 16.9274 84.2585 16.9963C48.3607 17.0652 19.2921 33.9269 19.3318 54.6579C19.3716 75.3889 48.5048 92.1387 84.4026 92.0698Z" fill="url(#paint21_linear_2_3630)"/>
<path opacity="0.48" d="M84.294 96.6177C120.192 96.5487 149.26 79.6871 149.221 58.9561C149.181 38.2251 120.048 21.4752 84.1499 21.5441C48.2521 21.6131 19.1834 38.4747 19.2232 59.2057C19.263 79.9367 48.3962 96.6866 84.294 96.6177Z" fill="url(#paint22_linear_2_3630)"/>
<path d="M145.577 14.5789C112.332 -4.54236 58.4804 -4.4378 25.3015 14.8011C-7.87746 34.0401 -7.82519 65.1334 25.4321 84.2547C58.6764 103.376 112.528 103.271 145.707 84.0326C178.886 64.7936 178.834 33.7003 145.577 14.5789ZM131.411 22.7999C156.815 37.4121 156.867 61.1732 131.503 75.8769C106.151 90.5806 65.0012 90.659 39.5845 76.0468C14.1808 61.4346 14.1286 37.6735 39.493 22.9698C64.8444 8.26617 105.995 8.18775 131.411 22.7999Z" fill="#BCE3FF"/>
<path d="M145.577 14.5789C112.332 -4.54236 58.4804 -4.4378 25.3015 14.8011C-7.87746 34.0401 -7.82519 65.1334 25.4321 84.2547C58.6764 103.376 112.528 103.271 145.707 84.0326C178.886 64.7936 178.834 33.7003 145.577 14.5789ZM131.411 22.7999C156.815 37.4121 156.867 61.1732 131.503 75.8769C106.151 90.5806 65.0012 90.659 39.5845 76.0468C14.1808 61.4346 14.1286 37.6735 39.493 22.9698C64.8444 8.26617 105.995 8.18775 131.411 22.7999Z" fill="#BCE3FF"/>
<path d="M25.0009 82.9479C58.2452 102.069 112.097 101.965 145.276 82.7257C165.701 70.8843 173.502 54.5469 168.759 39.2812C174.391 54.9129 166.72 71.8515 145.72 84.0327C112.542 103.272 58.6895 103.376 25.4452 84.2549C12.665 76.9096 4.81132 67.7868 1.83188 58.2457C5.08574 67.3032 12.8088 75.9424 25.0009 82.9479Z" fill="white"/>
<path d="M39.0612 21.6626C64.4125 6.95891 105.563 6.88049 130.979 21.4927C140.819 27.152 146.844 34.1836 149.065 41.542C146.543 34.6672 140.676 28.1322 131.411 22.7997C106.007 8.18748 64.8438 8.2659 39.4924 22.9696C23.9549 31.9748 17.983 44.3781 21.4982 55.9973C17.1074 44.0122 22.9356 31.0076 39.0612 21.6626Z" fill="white"/>
<path opacity="0.5" d="M146.112 160.256C112.855 179.548 58.859 179.652 25.5233 160.479C9.29321 151.147 0.969075 138.966 0.524773 126.693C0.0674033 139.645 8.37847 152.676 25.5233 162.531C58.859 181.691 112.842 181.6 146.112 162.308C163.179 152.415 171.45 139.384 170.98 126.471C170.549 138.717 162.277 150.885 146.112 160.256Z" fill="#99FFF7"/>
<defs>
<linearGradient id="paint4_linear_2_3630" x1="0.459274" y1="140.443" x2="170.562" y2="140.443" gradientUnits="userSpaceOnUse">
<stop stop-color="#42E8E0"/>
<stop offset="0.1" stop-color="#3ED9D6"/>
<stop offset="0.3" stop-color="#35B1BC"/>
<stop offset="0.58" stop-color="#277293"/>
<stop offset="0.91" stop-color="#141C5B"/>
<stop offset="1" stop-color="#0F054C"/>
</linearGradient>
<linearGradient id="paint5_linear_2_3630" x1="170.575" y1="140.443" x2="0.459274" y2="140.443" gradientUnits="userSpaceOnUse">
<stop stop-color="#C0BFF6"/>
<stop offset="0.12" stop-color="#B1B0E8"/>
<stop offset="0.36" stop-color="#8C89C4"/>
<stop offset="0.68" stop-color="#504A8B"/>
<stop offset="1" stop-color="#0F054C"/>
</linearGradient>
<linearGradient id="paint6_linear_2_3630" x1="34.383" y1="71.4154" x2="54.6791" y2="71.4154" gradientUnits="userSpaceOnUse">
<stop stop-color="#DFFEFF"/>
<stop offset="1" stop-color="#01B0F9"/>
</linearGradient>
<linearGradient id="paint7_linear_2_3630" x1="50.7019" y1="48.6831" x2="100.987" y2="59.7415" gradientUnits="userSpaceOnUse">
<stop stop-color="#DFFEFF"/>
<stop offset="1" stop-color="#01B0F9"/>
</linearGradient>
<linearGradient id="paint8_linear_2_3630" x1="138.593" y1="86.1715" x2="111.765" y2="169.096" gradientUnits="userSpaceOnUse">
<stop stop-color="#DFFEFF"/>
<stop offset="1" stop-color="#01B0F9"/>
</linearGradient>
<linearGradient id="paint9_linear_2_3630" x1="110.37" y1="71.4894" x2="132.317" y2="136.85" gradientUnits="userSpaceOnUse">
<stop stop-color="#DFFEFF"/>
<stop offset="1" stop-color="#01B0F9"/>
</linearGradient>
<linearGradient id="paint10_linear_2_3630" x1="84.802" y1="53.1579" x2="120.887" y2="92.3022" gradientUnits="userSpaceOnUse">
<stop stop-color="#DFFEFF"/>
<stop offset="1" stop-color="#01B0F9"/>
</linearGradient>
<linearGradient id="paint11_linear_2_3630" x1="80.629" y1="27.706" x2="80.629" y2="158.664" gradientUnits="userSpaceOnUse">
<stop stop-color="#DFFEFF"/>
<stop offset="1" stop-color="#01B0F9"/>
</linearGradient>
<linearGradient id="paint12_linear_2_3630" x1="37.7271" y1="119.609" x2="123.513" y2="119.609" gradientUnits="userSpaceOnUse">
<stop stop-color="#DFFEFF"/>
<stop offset="1" stop-color="#01B0F9"/>
</linearGradient>
<linearGradient id="paint13_linear_2_3630" x1="48.9694" y1="128.267" x2="101.186" y2="128.267" gradientUnits="userSpaceOnUse">
<stop stop-color="#01B3F9"/>
<stop offset="1" stop-color="#015BEA"/>
</linearGradient>
<linearGradient id="paint14_linear_2_3630" x1="69.6194" y1="108.424" x2="69.6194" y2="155.089" gradientUnits="userSpaceOnUse">
<stop stop-color="#01B3F9"/>
<stop offset="1" stop-color="#015BEA"/>
</linearGradient>
<radialGradient id="paint15_radial_2_3630" cx="0" cy="0" r="1" gradientUnits="userSpaceOnUse" gradientTransform="translate(59.3457 149.001) scale(41.5609 41.8609)">
<stop stop-color="#419DFF"/>
<stop offset="0.53" stop-color="#1D4CD4"/>
<stop offset="1" stop-color="#08137A"/>
</radialGradient>
<linearGradient id="paint16_linear_2_3630" x1="61.4134" y1="94.2014" x2="69.4238" y2="94.2014" gradientUnits="userSpaceOnUse">
<stop stop-color="#01B3F9"/>
<stop offset="1" stop-color="#015BEA"/>
</linearGradient>
<linearGradient id="paint17_linear_2_3630" x1="61.3389" y1="97.8138" x2="92.2441" y2="97.8138" gradientUnits="userSpaceOnUse">
<stop stop-color="#01B3F9"/>
<stop offset="1" stop-color="#015BEA"/>
</linearGradient>
<linearGradient id="paint18_linear_2_3630" x1="72.3856" y1="76.9207" x2="72.3856" y2="125.64" gradientUnits="userSpaceOnUse">
<stop stop-color="#DFFEFF"/>
<stop offset="1" stop-color="#01B0F9"/>
</linearGradient>
<linearGradient id="paint19_linear_2_3630" x1="19.446" y1="105.233" x2="149.504" y2="30.1372" gradientUnits="userSpaceOnUse">
<stop stop-color="#BCBEFF"/>
<stop offset="0.31" stop-color="#9197EE"/>
<stop offset="0.59" stop-color="#7179E1"/>
<stop offset="0.84" stop-color="#5E67D9"/>
<stop offset="1" stop-color="#5761D7"/>
</linearGradient>
<linearGradient id="paint20_linear_2_3630" x1="148.346" y1="14.9867" x2="15.8064" y2="73.7164" gradientUnits="userSpaceOnUse">
<stop stop-color="#73769D"/>
<stop offset="0.16" stop-color="#5E67D9"/>
<stop offset="0.41" stop-color="#7179E1"/>
<stop offset="0.69" stop-color="#9197EE"/>
<stop offset="1" stop-color="#BCBEFF"/>
</linearGradient>
<linearGradient id="paint21_linear_2_3630" x1="61.3595" y1="94.4602" x2="107.177" y2="14.7618" gradientUnits="userSpaceOnUse">
<stop stop-color="#42E8E0"/>
<stop offset="0.15" stop-color="#42E3DF"/>
<stop offset="0.33" stop-color="#44D4DE"/>
<stop offset="0.52" stop-color="#48BDDD"/>
<stop offset="0.72" stop-color="#4D9BDA"/>
<stop offset="0.93" stop-color="#5471D8"/>
<stop offset="1" stop-color="#5761D7"/>
</linearGradient>
<linearGradient id="paint22_linear_2_3630" x1="61.2347" y1="99.0082" x2="107.053" y2="19.3097" gradientUnits="userSpaceOnUse">
<stop stop-color="#42E8E0"/>
<stop offset="0.1" stop-color="#3ED9D6"/>
<stop offset="0.3" stop-color="#35B1BC"/>
<stop offset="0.58" stop-color="#277293"/>
<stop offset="0.91" stop-color="#141C5B"/>
<stop offset="1" stop-color="#0F054C"/>
</linearGradient>
<clipPath id="clip0_2_3630">
<rect width="102.281" height="136.953" fill="white" transform="translate(34.3829 48.2422)"/>
</clipPath>
</defs>
</svg>