<svg width="103" height="138" viewBox="0 0 103 138" fill="none" xmlns="http://www.w3.org/2000/svg">
<g clip-path="url(#clip0_2_3906)">
<path d="M10.8804 25.5544L20.6791 19.8223C20.3531 20.0099 20.0271 20.1788 19.6825 20.3289C19.58 20.3758 19.4682 20.4133 19.3565 20.4602C19.1422 20.5447 18.928 20.6291 18.7045 20.6948C18.3878 20.798 18.0618 20.8824 17.7358 20.9668C17.596 21.0044 17.447 21.0419 17.3073 21.07C17.121 21.1076 16.9254 21.1263 16.7391 21.1545C16.5063 21.1826 16.2734 21.2201 16.0312 21.2389C15.8915 21.2483 15.7518 21.2483 15.6121 21.2577C15.3233 21.267 15.0439 21.2764 14.7458 21.267C14.6247 21.267 14.4943 21.267 14.3639 21.2577C13.9821 21.2389 13.5908 21.2107 13.1996 21.1545C13.1717 21.1545 13.1531 21.1545 13.1344 21.1545C12.706 21.0982 12.2775 21.0137 11.8397 20.9199C11.7466 20.9012 11.6535 20.8824 11.5696 20.8542C11.1132 20.751 10.6568 20.6291 10.2004 20.479L0.383026 26.2112C0.457541 26.2393 0.541371 26.2581 0.615886 26.2862C0.913947 26.38 1.20269 26.4551 1.49144 26.5301C1.58458 26.5489 1.66841 26.5677 1.75224 26.5864C1.84539 26.6052 1.92922 26.624 2.02236 26.6427C2.14345 26.6709 2.26454 26.699 2.38562 26.7271C2.693 26.7834 3.00037 26.8397 3.29843 26.8773H3.31706C3.31706 26.8773 3.36364 26.8773 3.39158 26.8773C3.68964 26.9148 3.97839 26.9523 4.26713 26.9711C4.36959 26.9711 4.46273 26.9711 4.55588 26.9805C4.68628 26.9805 4.80737 26.9898 4.93777 26.9898C5.05886 26.9898 5.17063 26.9992 5.29172 26.9992C5.46869 26.9992 5.63635 26.9805 5.80401 26.9711C5.94372 26.9711 6.08344 26.9711 6.22316 26.9523C6.27904 26.9523 6.33493 26.9523 6.39082 26.9523C6.5771 26.9335 6.75408 26.896 6.93105 26.8773C7.11734 26.8491 7.31294 26.8303 7.49923 26.7928C7.53649 26.7928 7.58306 26.7834 7.62032 26.7741C7.72278 26.7553 7.82523 26.7178 7.92769 26.6896C8.2537 26.6146 8.5797 26.5301 8.89639 26.4176C8.96159 26.3988 9.03611 26.38 9.11062 26.3613C9.25965 26.305 9.40868 26.2393 9.55771 26.183C9.66949 26.1361 9.77194 26.0986 9.88372 26.0517C10.2283 25.9016 10.5637 25.7327 10.8804 25.5451V25.5544Z" fill="url(#paint0_linear_2_3906)"/>
<path d="M26.4448 0.242188L16.646 5.97437L46.7502 10.0085L56.549 4.26691L26.4448 0.242188Z" fill="url(#paint1_linear_2_3906)"/>
<path d="M101.677 79.9761C101.836 79.1881 101.985 78.3812 102.124 77.565C102.152 77.4243 102.18 77.2836 102.199 77.1429V77.1053C102.367 76.1765 102.516 75.2196 102.665 74.2627L92.8659 79.9949C92.7261 80.9612 92.5678 81.9087 92.4095 82.8375C92.3815 82.997 92.3536 83.1377 92.3256 83.2972C92.1859 84.1134 92.0369 84.9202 91.8785 85.7083C91.8133 86.0366 91.7388 86.365 91.6736 86.684C91.5525 87.2844 91.4221 87.8848 91.2917 88.4759C91.2172 88.8042 91.1427 89.1232 91.0682 89.4516C90.9192 90.0801 90.7701 90.6899 90.6211 91.2997C90.5373 91.6469 90.4441 91.9846 90.3603 92.3223C90.2113 92.904 90.0529 93.4763 89.8852 94.0392C89.8014 94.3488 89.7083 94.6584 89.6244 94.968C89.3636 95.8592 89.0935 96.7411 88.8141 97.6042C88.8048 97.6417 88.7862 97.6886 88.7768 97.7262C88.4788 98.6268 88.1714 99.4993 87.864 100.353C87.7057 100.794 87.538 101.226 87.3797 101.657C87.3145 101.826 87.2493 101.995 87.1934 102.154C86.9512 102.783 86.6997 103.393 86.4482 104.002C86.3924 104.134 86.3365 104.256 86.2806 104.387C86.0757 104.866 85.8707 105.335 85.6658 105.794C85.5727 105.991 85.4888 106.188 85.3957 106.376C85.228 106.733 85.0697 107.08 84.902 107.427C84.7437 107.755 84.576 108.083 84.4177 108.412C84.2687 108.703 84.129 108.994 83.9799 109.275C83.8123 109.594 83.6446 109.904 83.4769 110.213C83.3279 110.495 83.1789 110.767 83.0299 111.039C82.8622 111.348 82.6852 111.649 82.5176 111.939C82.3685 112.202 82.2102 112.465 82.0612 112.727C81.8842 113.018 81.7072 113.309 81.5302 113.591C81.3719 113.844 81.2135 114.097 81.0552 114.341C80.8782 114.613 80.7106 114.876 80.5336 115.148C80.3752 115.392 80.2076 115.636 80.0492 115.88C79.8723 116.142 79.6953 116.396 79.509 116.649C79.3413 116.883 79.183 117.118 79.0153 117.343C78.8384 117.596 78.6521 117.84 78.4658 118.075C78.2981 118.3 78.1305 118.516 77.9628 118.732C77.7765 118.966 77.5902 119.201 77.404 119.435C77.2363 119.642 77.0686 119.857 76.901 120.064C76.7147 120.289 76.5284 120.514 76.3328 120.73C76.1651 120.927 75.9975 121.124 75.8298 121.321C75.6342 121.537 75.4479 121.753 75.2523 121.959C75.0847 122.147 74.917 122.334 74.74 122.522C74.5444 122.728 74.3488 122.925 74.1625 123.132C73.9949 123.31 73.8179 123.488 73.6502 123.657C73.4546 123.854 73.259 124.042 73.0634 124.239C72.8958 124.408 72.7188 124.576 72.5511 124.736C72.3555 124.924 72.1506 125.102 71.955 125.289C71.7874 125.449 71.6197 125.608 71.4427 125.758C71.2378 125.937 71.0422 126.115 70.8373 126.284C70.6696 126.425 70.502 126.575 70.3343 126.715C70.1294 126.884 69.9338 127.044 69.7289 127.213C69.5612 127.353 69.3936 127.494 69.2259 127.625C69.021 127.785 68.8161 127.944 68.6112 128.095C68.4435 128.226 68.2758 128.348 68.1175 128.479C67.9033 128.639 67.6983 128.789 67.4934 128.939C67.3351 129.051 67.1767 129.173 67.0184 129.286C66.7948 129.445 66.5713 129.586 66.3571 129.736C66.208 129.83 66.0683 129.933 65.9193 130.037C65.6678 130.205 65.407 130.365 65.1555 130.524C65.0437 130.59 64.932 130.665 64.8295 130.731C64.4662 130.956 64.103 131.172 63.7397 131.387L73.5385 125.655C73.9017 125.449 74.265 125.224 74.6283 124.999C74.74 124.933 74.8518 124.858 74.9543 124.792C75.2057 124.633 75.4666 124.473 75.718 124.304C75.8671 124.211 76.0068 124.107 76.1558 124.004C76.3794 123.854 76.6029 123.704 76.8171 123.554C76.9755 123.441 77.1338 123.319 77.2922 123.207C77.4971 123.057 77.7113 122.906 77.9162 122.747C78.0839 122.625 78.2516 122.494 78.4099 122.362C78.6148 122.203 78.8197 122.053 79.0247 121.893C79.1923 121.762 79.36 121.621 79.5276 121.48C79.7326 121.312 79.9282 121.152 80.1331 120.983C80.3007 120.843 80.4684 120.692 80.6361 120.542C80.841 120.373 81.0366 120.195 81.2322 120.017C81.3998 119.867 81.5768 119.698 81.7445 119.548C81.9401 119.37 82.1357 119.191 82.3313 119.004C82.4989 118.844 82.6759 118.675 82.8436 118.506C83.0392 118.319 83.2348 118.122 83.4304 117.925C83.598 117.756 83.775 117.568 83.9427 117.399C84.1383 117.202 84.3246 116.996 84.5202 116.79C84.6878 116.602 84.8648 116.414 85.0324 116.227C85.2187 116.02 85.4143 115.805 85.6006 115.589C85.7683 115.392 85.9453 115.195 86.1129 114.988C86.2992 114.773 86.4855 114.547 86.6718 114.322C86.8394 114.116 87.0071 113.9 87.1841 113.694C87.3704 113.459 87.5566 113.234 87.7336 112.999C87.9013 112.784 88.0689 112.559 88.2366 112.343C88.4229 112.099 88.5999 111.855 88.7862 111.611C88.9538 111.386 89.1122 111.151 89.2798 110.917C89.4568 110.663 89.6338 110.41 89.8107 110.157C89.9784 109.913 90.1367 109.669 90.2951 109.425C90.4721 109.162 90.6397 108.9 90.8167 108.628C90.8726 108.543 90.9285 108.459 90.9843 108.374C91.0868 108.215 91.1893 108.037 91.2917 107.877C91.4687 107.596 91.6457 107.305 91.8226 107.014C91.981 106.751 92.13 106.489 92.2791 106.226C92.4467 105.926 92.6237 105.626 92.7913 105.325C92.9404 105.053 93.0894 104.772 93.2384 104.5C93.4061 104.19 93.5738 103.881 93.7321 103.562C93.8811 103.28 94.0302 102.989 94.1699 102.698C94.3282 102.37 94.4959 102.051 94.6542 101.713C94.7194 101.573 94.7939 101.432 94.8685 101.282C94.9616 101.075 95.0547 100.869 95.1572 100.663C95.2503 100.466 95.3342 100.278 95.4273 100.081C95.6322 99.6213 95.8372 99.1522 96.0421 98.6737C96.098 98.5424 96.1538 98.4204 96.2097 98.2891C96.4612 97.6886 96.7127 97.0695 96.9549 96.4409C97.0201 96.272 97.0853 96.1031 97.1505 95.9343C97.2809 95.5965 97.4113 95.2588 97.5417 94.9117C97.5789 94.8179 97.6069 94.724 97.6348 94.6396C97.9515 93.7859 98.2589 92.9134 98.5476 92.0128C98.557 91.9752 98.5756 91.9283 98.5849 91.8814C98.8643 91.0277 99.1345 90.1458 99.3953 89.2452C99.4325 89.1326 99.4605 89.0294 99.4977 88.9168C99.5536 88.7198 99.6095 88.5134 99.6561 88.3258C99.8144 87.7629 99.9727 87.1812 100.131 86.5995C100.224 86.2618 100.308 85.9241 100.392 85.5863C100.55 84.9765 100.699 84.3573 100.839 83.7288C100.895 83.5036 100.951 83.2784 101.007 83.0533C101.025 82.9595 101.044 82.8563 101.072 82.7625C101.202 82.1714 101.333 81.571 101.454 80.9706C101.519 80.6422 101.593 80.3232 101.659 79.9949L101.677 79.9761Z" fill="url(#paint2_linear_2_3906)"/>
<path d="M101.025 72.7805C100.96 72.7242 100.895 72.6585 100.839 72.6022C100.327 72.1144 99.8237 71.5984 99.3207 71.073C99.2555 70.998 99.181 70.9323 99.1158 70.8573C98.6315 70.3319 98.1471 69.7971 97.6814 69.2436C97.6162 69.1686 97.551 69.0841 97.4858 69.0091C97.0294 68.4649 96.5916 67.9114 96.1538 67.3485C96.0607 67.2266 95.9676 67.0952 95.8744 66.9733C95.567 66.5605 95.2597 66.1383 94.9616 65.7067C94.7753 65.4347 94.5797 65.172 94.3934 64.8905C94.2164 64.6279 94.0488 64.3558 93.8718 64.0837C93.4899 63.4927 93.1173 62.8922 92.7541 62.2918C92.5492 61.9541 92.3536 61.6163 92.158 61.2786C92.0089 61.0159 91.8599 60.7532 91.7202 60.4812C91.3849 59.8714 91.0589 59.2616 90.7608 58.6424C90.3975 57.9012 90.0529 57.1507 89.7269 56.4095C89.7083 56.372 89.6896 56.3345 89.6803 56.297C89.373 55.5933 89.0842 54.8803 88.8141 54.1673C88.7861 54.0923 88.7582 54.0172 88.7303 53.9422C88.4695 53.2573 88.2366 52.5724 88.0131 51.8782C87.9851 51.7938 87.9572 51.6999 87.9292 51.6155C87.715 50.9307 87.5194 50.2552 87.3331 49.5703C87.3052 49.4765 87.2865 49.3827 87.2586 49.2889C87.0816 48.604 86.9233 47.9285 86.7836 47.2531C86.7649 47.1592 86.7463 47.0748 86.7277 46.981C86.5973 46.2961 86.4762 45.6207 86.383 44.9452C86.3737 44.8701 86.3644 44.7857 86.3458 44.7106C86.2526 44.0258 86.1781 43.3409 86.1315 42.6561C86.1315 42.5998 86.1222 42.5341 86.1222 42.4778C86.0757 41.746 86.0477 41.033 86.0477 40.32C86.0477 39.9072 86.0663 39.4944 86.085 39.091C86.085 38.9691 86.1036 38.8565 86.1036 38.7439C86.1222 38.4625 86.1409 38.181 86.1688 37.8996C86.1781 37.7682 86.1967 37.6369 86.2061 37.5055C86.234 37.2335 86.2713 36.9708 86.3178 36.6987C86.3365 36.5768 86.3551 36.4454 86.3737 36.3234C86.4389 35.9482 86.5041 35.5729 86.5879 35.207L76.7892 40.9392C76.7147 41.2676 76.6495 41.6053 76.5936 41.943C76.5936 41.9806 76.5843 42.0181 76.575 42.0556C76.5563 42.1776 76.5377 42.2996 76.5191 42.4309C76.4911 42.6185 76.4632 42.7968 76.4352 42.9844C76.4259 43.0688 76.4166 43.1533 76.4073 43.2377C76.3887 43.3691 76.3794 43.5004 76.37 43.6411C76.3607 43.7631 76.3421 43.885 76.3328 44.007C76.3235 44.1665 76.3142 44.326 76.3048 44.4855C76.3048 44.5981 76.2862 44.72 76.2862 44.8326C76.2862 44.8889 76.2862 44.9452 76.2769 45.0108C76.2676 45.3392 76.2583 45.6676 76.2583 46.0053V46.0616C76.2583 46.3806 76.2583 46.6995 76.2676 47.0279C76.2769 47.375 76.2955 47.7128 76.3142 48.0599C76.3142 48.1162 76.3142 48.1631 76.3235 48.2194C76.3235 48.2757 76.3328 48.3413 76.3328 48.3976C76.3514 48.6322 76.37 48.8667 76.3887 49.1012C76.4259 49.4484 76.4632 49.8049 76.5098 50.1614C76.5191 50.2552 76.5377 50.3584 76.547 50.4522C76.5563 50.5272 76.5656 50.6117 76.5843 50.6867C76.6122 50.865 76.6308 51.0526 76.6588 51.2309C76.7147 51.5968 76.7799 51.9626 76.8451 52.3285C76.873 52.4599 76.901 52.5912 76.9196 52.7225C76.9382 52.8164 76.9569 52.9008 76.9755 52.9946C77.0034 53.1447 77.0314 53.2948 77.0686 53.4543C77.1525 53.8296 77.2363 54.2142 77.3294 54.5989C77.3667 54.749 77.4039 54.8897 77.4412 55.0398C77.4691 55.1336 77.4878 55.2274 77.5157 55.3213C77.553 55.462 77.5902 55.6027 77.6275 55.7434C77.7299 56.1281 77.8417 56.5034 77.9628 56.888C78.0094 57.0475 78.0653 57.207 78.1118 57.3665C78.1398 57.4603 78.1677 57.5447 78.1957 57.6291C78.2329 57.7511 78.2702 57.8825 78.3168 58.0044C78.4378 58.3703 78.5682 58.7456 78.6986 59.1114C78.7638 59.3085 78.8384 59.4961 78.9129 59.6931C78.9408 59.7682 78.9688 59.8432 78.9967 59.9183C79.034 60.0027 79.0619 60.0871 79.0899 60.181C79.2296 60.5281 79.3693 60.8846 79.509 61.2317C79.6208 61.5038 79.7419 61.7758 79.8536 62.0479C79.8723 62.0854 79.8909 62.1323 79.9002 62.1699C79.9095 62.198 79.9282 62.2355 79.9375 62.2637C80.0958 62.6202 80.2542 62.9767 80.4218 63.3332C80.5895 63.6897 80.7571 64.0368 80.9341 64.3933V64.4121H80.9434C81.1576 64.8624 81.3905 65.3033 81.6234 65.7349C81.7165 65.9038 81.8097 66.0726 81.9028 66.2415C82.0518 66.5042 82.1915 66.7762 82.3406 67.0389C82.443 67.2266 82.5455 67.4236 82.6573 67.6112C82.7411 67.7613 82.8436 67.9114 82.9367 68.0615C83.3 68.6713 83.6725 69.2624 84.0544 69.8534C84.1662 70.0223 84.2593 70.2005 84.3711 70.36C84.4363 70.4538 84.5108 70.5477 84.576 70.6509C84.7623 70.9229 84.9579 71.195 85.1442 71.4671C85.3212 71.7204 85.4888 71.9737 85.6751 72.227C85.7962 72.3959 85.9266 72.5647 86.057 72.7336C86.1502 72.8555 86.2433 72.9869 86.3365 73.1088C86.4296 73.2214 86.5134 73.3434 86.5973 73.456C86.8767 73.8125 87.1561 74.1596 87.4356 74.5067C87.5101 74.6005 87.5846 74.685 87.6591 74.7694C87.7243 74.8445 87.7895 74.9289 87.864 75.0039C87.9944 75.1541 88.1248 75.3135 88.2552 75.4636C88.5347 75.7826 88.8141 76.0922 89.0935 76.4018C89.1587 76.4769 89.2332 76.5425 89.2984 76.6176C89.3636 76.6926 89.4382 76.7583 89.5034 76.8334C89.6524 76.9928 89.8107 77.1617 89.9598 77.3212C90.2578 77.6308 90.5652 77.931 90.8726 78.2312C90.9191 78.2781 90.9657 78.3157 91.0123 78.3626C91.0775 78.4282 91.1427 78.4845 91.2079 78.5408C91.4128 78.7285 91.6084 78.9255 91.8133 79.1037C92.13 79.3945 92.4467 79.676 92.7727 79.9481L92.8472 80.0137L102.646 74.2816C102.087 73.8125 101.538 73.3152 101.007 72.8086L101.025 72.7805Z" fill="url(#paint3_linear_2_3906)"/>
<path d="M46.7502 10.0082L56.549 4.2666L86.5693 35.1979L76.7705 40.9394L46.7502 10.0082Z" fill="url(#paint4_linear_2_3906)"/>
<path d="M46.7501 10.0087L76.7705 40.94C76.4165 42.5161 76.2395 44.2329 76.2302 46.0623C76.193 57.7894 83.2719 71.89 92.8657 79.9957C85.3024 130.91 53.4938 136.567 46.3869 137.196C43.2013 133.208 35.0699 122.457 26.4913 106.602C16.7857 88.655 4.55588 60.3693 0.383026 26.2108C9.99549 29.2692 17.1303 23.4338 17.1583 11.7068C17.1583 9.87737 16.9906 7.96352 16.646 5.97461L46.7501 9.99933V10.0087Z" fill="url(#paint5_linear_2_3906)"/>
<path d="M46.3963 132.261C42.9034 127.673 36.1878 118.254 29.174 105.289C20.3626 89.0209 8.95244 63.0244 4.46289 31.4833C14.1964 32.8624 20.7352 25.7699 20.7724 13.7708C20.7724 12.8608 20.7352 11.9226 20.6606 10.9657L46.7223 14.4557L72.7188 41.2496C72.6443 42.1127 72.5978 43.0134 72.5978 43.914C72.5605 55.9131 79.0433 70.5766 88.7489 80.5024C81.1391 123.555 54.6396 130.994 46.3777 132.261H46.3963ZM46.713 13.6395L19.9434 10.0557L19.9621 10.3653C20.0552 11.3972 20.0925 12.4105 20.0925 13.3861C20.0552 25.1789 13.5724 32.0931 3.95992 30.5921L3.69911 30.5545L3.74568 30.8923C8.22591 62.7805 19.7665 89.0772 28.6617 105.514C35.8431 118.789 42.7265 128.377 46.2007 132.918L46.3777 133.143L46.5547 133.124C54.6768 131.933 81.8004 124.605 89.4475 80.7182L89.5034 80.4367L89.2426 80.174C79.6488 70.5016 73.2218 56.082 73.2591 44.2893C73.2591 43.3042 73.315 42.3473 73.4081 41.4279L73.4361 41.1464L46.8527 13.7614L46.7317 13.6395" fill="url(#paint6_linear_2_3906)"/>
</g>
<defs>
<linearGradient id="paint0_linear_2_3906" x1="0.383026" y1="23.4154" x2="20.6791" y2="23.4154" gradientUnits="userSpaceOnUse">
<stop stop-color="#DFFEFF"/>
<stop offset="1" stop-color="#01B0F9"/>
</linearGradient>
<linearGradient id="paint1_linear_2_3906" x1="16.7019" y1="0.683124" x2="66.9867" y2="11.7415" gradientUnits="userSpaceOnUse">
<stop stop-color="#DFFEFF"/>
<stop offset="1" stop-color="#01B0F9"/>
</linearGradient>
<linearGradient id="paint2_linear_2_3906" x1="104.593" y1="38.1715" x2="77.7645" y2="121.096" gradientUnits="userSpaceOnUse">
<stop stop-color="#DFFEFF"/>
<stop offset="1" stop-color="#01B0F9"/>
</linearGradient>
<linearGradient id="paint3_linear_2_3906" x1="76.37" y1="23.4894" x2="98.3174" y2="88.8503" gradientUnits="userSpaceOnUse">
<stop stop-color="#DFFEFF"/>
<stop offset="1" stop-color="#01B0F9"/>
</linearGradient>
<linearGradient id="paint4_linear_2_3906" x1="50.802" y1="5.15786" x2="86.887" y2="44.3022" gradientUnits="userSpaceOnUse">
<stop stop-color="#DFFEFF"/>
<stop offset="1" stop-color="#01B0F9"/>
</linearGradient>
<linearGradient id="paint5_linear_2_3906" x1="46.629" y1="-20.294" x2="46.629" y2="110.664" gradientUnits="userSpaceOnUse">
<stop stop-color="#DFFEFF"/>
<stop offset="1" stop-color="#01B0F9"/>
</linearGradient>
<linearGradient id="paint6_linear_2_3906" x1="3.72706" y1="71.6086" x2="89.5127" y2="71.6086" gradientUnits="userSpaceOnUse">
<stop stop-color="#DFFEFF"/>
<stop offset="1" stop-color="#01B0F9"/>
</linearGradient>
<clipPath id="clip0_2_3906">
<rect width="102.281" height="136.953" fill="white" transform="translate(0.382874 0.242188)"/>
</clipPath>
</defs>
</svg>
