<svg width="282" height="20" viewBox="0 0 282 20" fill="none" xmlns="http://www.w3.org/2000/svg">
<path d="M1 1L6 10L1 19" stroke="black" stroke-width="0.5"/>
<path d="M12 1L17 10L12 19" stroke="black" stroke-width="0.5"/>
<path d="M23 1L28 10L23 19" stroke="black" stroke-width="0.5"/>
<path d="M34 1L39 10L34 19" stroke="black" stroke-width="0.5"/>
<path d="M45 1L50 10L45 19" stroke="black" stroke-width="0.5"/>
<path d="M56 1L61 10L56 19" stroke="black" stroke-width="0.5"/>
<path d="M67 1L72 10L67 19" stroke="black" stroke-width="0.5"/>
<path d="M78 1L83 10L78 19" stroke="black" stroke-width="0.5"/>
<path d="M89 1L94 10L89 19" stroke="black" stroke-width="0.5"/>
<path d="M100 1L105 10L100 19" stroke="black" stroke-width="0.5"/>
<path d="M111 1L116 10L111 19" stroke="black" stroke-width="0.5"/>
<path d="M122 1L127 10L122 19" stroke="black" stroke-width="0.5"/>
<path d="M133 1L138 10L133 19" stroke="black" stroke-width="0.5"/>
<path d="M144 1L149 10L144 19" stroke="black" stroke-width="0.5"/>
<path d="M155 1L160 10L155 19" stroke="black" stroke-width="0.5"/>
<path d="M166 1L171 10L166 19" stroke="black" stroke-width="0.5"/>
<path d="M177 1L182 10L177 19" stroke="black" stroke-width="0.5"/>
<path d="M188 1L193 10L188 19" stroke="black" stroke-width="0.5"/>
<path d="M199 1L204 10L199 19" stroke="black" stroke-width="0.5"/>
<path d="M210 1L215 10L210 19" stroke="black" stroke-width="0.5"/>
<path d="M221 1L226 10L221 19" stroke="black" stroke-width="0.5"/>
<path d="M232 1L237 10L232 19" stroke="black" stroke-width="0.5"/>
<path d="M243 1L248 10L243 19" stroke="black" stroke-width="0.5"/>
<path d="M254 1L259 10L254 19" stroke="black" stroke-width="0.5"/>
<path d="M265 1L270 10L265 19" stroke="black" stroke-width="0.5"/>
<path d="M276 1L281 10L276 19" stroke="black" stroke-width="0.5"/>
</svg>
